%
M48
M72
T01C0.0276
T02C0.0320
T03C0.0354
T04C0.0400
T05C0.0984
%
T01
X31000Y2750
X30000Y2750
X30000Y1750
X31000Y1750
X25000Y1750
X24000Y1750
T02
X24500Y10750
X23500Y10750
X23500Y8250
X24500Y8250
X24500Y5750
X25250Y5250
X24500Y4750
T03
X28500Y14250
X28500Y13250
X28500Y12250
X28500Y11250
X28500Y10250
X28500Y9250
X28500Y8250
X28500Y7250
X28500Y6250
X28500Y5250
X28500Y4250
X32500Y4250
X32500Y5250
X32500Y6250
X32500Y7250
X32500Y8250
X32500Y9250
X32500Y10250
X32500Y11250
X32500Y12250
X32500Y13250
X32500Y14250
T04
X34500Y1250
X22500Y17750
X22500Y16750
X23500Y15250
X24500Y15250
X24500Y14250
X23500Y14250
X23500Y13250
X24500Y13250
X26500Y13250
X26500Y12250
X26500Y11250
X26500Y10250
X26500Y9250
X26500Y8250
X26500Y7250
X26500Y6250
X26500Y5250
X26500Y4250
X26500Y3250
X26500Y2250
X26500Y1250
X22500Y3250
X22500Y4250
X22500Y5250
X34500Y5250
X34500Y4250
X34500Y3250
X34500Y2250
X34500Y6250
X34500Y7250
X34500Y8250
X34500Y9250
X34500Y10250
X34500Y11250
X34500Y12250
X34500Y13250
X34500Y14250
X34500Y15250
X34500Y16250
X26500Y16250
X26500Y15250
X26500Y14250
T05
X23500Y18750
X33500Y18750
M30
