G75*
%MOIN*%
%OFA0B0*%
%FSLAX24Y24*%
%IPPOS*%
%LPD*%
%AMOC8*
5,1,8,0,0,1.08239X$1,22.5*
%
%ADD10C,0.0080*%
%ADD11C,0.0000*%
%ADD12C,0.0040*%
%ADD13C,0.0030*%
%ADD14C,0.0010*%
%ADD15C,0.0100*%
%ADD16C,0.0050*%
D10*
X021500Y001250D02*
X021500Y018750D01*
X022250Y018250D02*
X022750Y018250D01*
X023000Y018000D01*
X023000Y017500D01*
X022750Y017250D01*
X023000Y017000D01*
X023000Y016500D01*
X022750Y016250D01*
X022250Y016250D01*
X022000Y016500D01*
X022000Y017000D01*
X022250Y017250D01*
X022000Y017500D01*
X022000Y018000D01*
X022250Y018250D01*
X021500Y018750D02*
X021502Y018810D01*
X021507Y018871D01*
X021516Y018930D01*
X021529Y018989D01*
X021545Y019048D01*
X021565Y019105D01*
X021588Y019160D01*
X021615Y019215D01*
X021644Y019267D01*
X021677Y019318D01*
X021713Y019367D01*
X021751Y019413D01*
X021793Y019457D01*
X021837Y019499D01*
X021883Y019537D01*
X021932Y019573D01*
X021983Y019606D01*
X022035Y019635D01*
X022090Y019662D01*
X022145Y019685D01*
X022202Y019705D01*
X022261Y019721D01*
X022320Y019734D01*
X022379Y019743D01*
X022440Y019748D01*
X022500Y019750D01*
X034500Y019750D01*
X034560Y019748D01*
X034621Y019743D01*
X034680Y019734D01*
X034739Y019721D01*
X034798Y019705D01*
X034855Y019685D01*
X034910Y019662D01*
X034965Y019635D01*
X035017Y019606D01*
X035068Y019573D01*
X035117Y019537D01*
X035163Y019499D01*
X035207Y019457D01*
X035249Y019413D01*
X035287Y019367D01*
X035323Y019318D01*
X035356Y019267D01*
X035385Y019215D01*
X035412Y019160D01*
X035435Y019105D01*
X035455Y019048D01*
X035471Y018989D01*
X035484Y018930D01*
X035493Y018871D01*
X035498Y018810D01*
X035500Y018750D01*
X035500Y001250D01*
X035000Y001500D02*
X035000Y001000D01*
X034750Y000750D01*
X034250Y000750D01*
X034000Y001000D01*
X034000Y001500D01*
X034250Y001750D01*
X034000Y002000D01*
X034000Y002500D01*
X034250Y002750D01*
X034000Y003000D01*
X034000Y003500D01*
X034250Y003750D01*
X034000Y004000D01*
X034000Y004500D01*
X034250Y004750D01*
X034000Y005000D01*
X034000Y005500D01*
X034250Y005750D01*
X034000Y006000D01*
X034000Y006500D01*
X034250Y006750D01*
X034000Y007000D01*
X034000Y007500D01*
X034250Y007750D01*
X034000Y008000D01*
X034000Y008500D01*
X034250Y008750D01*
X034000Y009000D01*
X034000Y009500D01*
X034250Y009750D01*
X034000Y010000D01*
X034000Y010500D01*
X034250Y010750D01*
X034000Y011000D01*
X034000Y011500D01*
X034250Y011750D01*
X034000Y012000D01*
X034000Y012500D01*
X034250Y012750D01*
X034000Y013000D01*
X034000Y013500D01*
X034250Y013750D01*
X034000Y014000D01*
X034000Y014500D01*
X034250Y014750D01*
X034000Y015000D01*
X034000Y015500D01*
X034250Y015750D01*
X034000Y016000D01*
X034000Y016500D01*
X034250Y016750D01*
X034750Y016750D01*
X035000Y016500D01*
X035000Y016000D01*
X034750Y015750D01*
X035000Y015500D01*
X035000Y015000D01*
X034750Y014750D01*
X035000Y014500D01*
X035000Y014000D01*
X034750Y013750D01*
X035000Y013500D01*
X035000Y013000D01*
X034750Y012750D01*
X035000Y012500D01*
X035000Y012000D01*
X034750Y011750D01*
X035000Y011500D01*
X035000Y011000D01*
X034750Y010750D01*
X035000Y010500D01*
X035000Y010000D01*
X034750Y009750D01*
X035000Y009500D01*
X035000Y009000D01*
X034750Y008750D01*
X035000Y008500D01*
X035000Y008000D01*
X034750Y007750D01*
X035000Y007500D01*
X035000Y007000D01*
X034750Y006750D01*
X035000Y006500D01*
X035000Y006000D01*
X034750Y005750D01*
X035000Y005500D01*
X035000Y005000D01*
X034750Y004750D01*
X035000Y004500D01*
X035000Y004000D01*
X034750Y003750D01*
X035000Y003500D01*
X035000Y003000D01*
X034750Y002750D01*
X035000Y002500D01*
X035000Y002000D01*
X034750Y001750D01*
X035000Y001500D01*
X035500Y001250D02*
X035498Y001190D01*
X035493Y001129D01*
X035484Y001070D01*
X035471Y001011D01*
X035455Y000952D01*
X035435Y000895D01*
X035412Y000840D01*
X035385Y000785D01*
X035356Y000733D01*
X035323Y000682D01*
X035287Y000633D01*
X035249Y000587D01*
X035207Y000543D01*
X035163Y000501D01*
X035117Y000463D01*
X035068Y000427D01*
X035017Y000394D01*
X034965Y000365D01*
X034910Y000338D01*
X034855Y000315D01*
X034798Y000295D01*
X034739Y000279D01*
X034680Y000266D01*
X034621Y000257D01*
X034560Y000252D01*
X034500Y000250D01*
X022500Y000250D01*
X022440Y000252D01*
X022379Y000257D01*
X022320Y000266D01*
X022261Y000279D01*
X022202Y000295D01*
X022145Y000315D01*
X022090Y000338D01*
X022035Y000365D01*
X021983Y000394D01*
X021932Y000427D01*
X021883Y000463D01*
X021837Y000501D01*
X021793Y000543D01*
X021751Y000587D01*
X021713Y000633D01*
X021677Y000682D01*
X021644Y000733D01*
X021615Y000785D01*
X021588Y000840D01*
X021565Y000895D01*
X021545Y000952D01*
X021529Y001011D01*
X021516Y001070D01*
X021507Y001129D01*
X021502Y001190D01*
X021500Y001250D01*
X021644Y001961D02*
X021644Y006539D01*
X023356Y006539D01*
X023356Y001961D01*
X021644Y001961D01*
X023800Y002300D02*
X024200Y002300D01*
X023516Y001750D02*
X023518Y001812D01*
X023524Y001875D01*
X023534Y001936D01*
X023548Y001997D01*
X023565Y002057D01*
X023586Y002116D01*
X023612Y002173D01*
X023640Y002228D01*
X023672Y002282D01*
X023708Y002333D01*
X023746Y002383D01*
X023788Y002429D01*
X023832Y002473D01*
X023880Y002514D01*
X023929Y002552D01*
X023981Y002586D01*
X024035Y002617D01*
X024091Y002645D01*
X024149Y002669D01*
X024208Y002690D01*
X024268Y002706D01*
X024329Y002719D01*
X024391Y002728D01*
X024453Y002733D01*
X024516Y002734D01*
X024578Y002731D01*
X024640Y002724D01*
X024702Y002713D01*
X024762Y002698D01*
X024822Y002680D01*
X024880Y002658D01*
X024937Y002632D01*
X024992Y002602D01*
X025045Y002569D01*
X025096Y002533D01*
X025144Y002494D01*
X025190Y002451D01*
X025233Y002406D01*
X025273Y002358D01*
X025310Y002308D01*
X025344Y002255D01*
X025375Y002201D01*
X025401Y002145D01*
X025425Y002087D01*
X025444Y002027D01*
X025460Y001967D01*
X025472Y001905D01*
X025480Y001844D01*
X025484Y001781D01*
X025484Y001719D01*
X025480Y001656D01*
X025472Y001595D01*
X025460Y001533D01*
X025444Y001473D01*
X025425Y001413D01*
X025401Y001355D01*
X025375Y001299D01*
X025344Y001245D01*
X025310Y001192D01*
X025273Y001142D01*
X025233Y001094D01*
X025190Y001049D01*
X025144Y001006D01*
X025096Y000967D01*
X025045Y000931D01*
X024992Y000898D01*
X024937Y000868D01*
X024880Y000842D01*
X024822Y000820D01*
X024762Y000802D01*
X024702Y000787D01*
X024640Y000776D01*
X024578Y000769D01*
X024516Y000766D01*
X024453Y000767D01*
X024391Y000772D01*
X024329Y000781D01*
X024268Y000794D01*
X024208Y000810D01*
X024149Y000831D01*
X024091Y000855D01*
X024035Y000883D01*
X023981Y000914D01*
X023929Y000948D01*
X023880Y000986D01*
X023832Y001027D01*
X023788Y001071D01*
X023746Y001117D01*
X023708Y001167D01*
X023672Y001218D01*
X023640Y001272D01*
X023612Y001327D01*
X023586Y001384D01*
X023565Y001443D01*
X023548Y001503D01*
X023534Y001564D01*
X023524Y001625D01*
X023518Y001688D01*
X023516Y001750D01*
X026000Y001500D02*
X026000Y001000D01*
X026250Y000750D01*
X026750Y000750D01*
X027000Y001000D01*
X027000Y001500D01*
X026750Y001750D01*
X027000Y002000D01*
X027000Y002500D01*
X026750Y002750D01*
X027000Y003000D01*
X027000Y003500D01*
X026750Y003750D01*
X027000Y004000D01*
X027000Y004500D01*
X026750Y004750D01*
X027000Y005000D01*
X027000Y005500D01*
X026750Y005750D01*
X027000Y006000D01*
X027000Y006500D01*
X026750Y006750D01*
X027000Y007000D01*
X027000Y007500D01*
X026750Y007750D01*
X027000Y008000D01*
X027000Y008500D01*
X026750Y008750D01*
X027000Y009000D01*
X027000Y009500D01*
X026750Y009750D01*
X027000Y010000D01*
X027000Y010500D01*
X026750Y010750D01*
X027000Y011000D01*
X027000Y011500D01*
X026750Y011750D01*
X027000Y012000D01*
X027000Y012500D01*
X026750Y012750D01*
X027000Y013000D01*
X027000Y013500D01*
X026750Y013750D01*
X027000Y014000D01*
X027000Y014500D01*
X026750Y014750D01*
X027000Y015000D01*
X027000Y015500D01*
X026750Y015750D01*
X027000Y016000D01*
X027000Y016500D01*
X026750Y016750D01*
X026250Y016750D01*
X026000Y016500D01*
X026000Y016000D01*
X026250Y015750D01*
X026000Y015500D01*
X026000Y015000D01*
X026250Y014750D01*
X026000Y014500D01*
X026000Y014000D01*
X026250Y013750D01*
X026000Y013500D01*
X026000Y013000D01*
X026250Y012750D01*
X026000Y012500D01*
X026000Y012000D01*
X026250Y011750D01*
X026000Y011500D01*
X026000Y011000D01*
X026250Y010750D01*
X026000Y010500D01*
X026000Y010000D01*
X026250Y009750D01*
X026000Y009500D01*
X026000Y009000D01*
X026250Y008750D01*
X026000Y008500D01*
X026000Y008000D01*
X026250Y007750D01*
X026000Y007500D01*
X026000Y007000D01*
X026250Y006750D01*
X026000Y006500D01*
X026000Y006000D01*
X026250Y005750D01*
X026000Y005500D01*
X026000Y005000D01*
X026250Y004750D01*
X026000Y004500D01*
X026000Y004000D01*
X026250Y003750D01*
X026000Y003500D01*
X026000Y003000D01*
X026250Y002750D01*
X026000Y002500D01*
X026000Y002000D01*
X026250Y001750D01*
X026000Y001500D01*
X026250Y000750D02*
X026750Y000750D01*
X030500Y001500D02*
X030500Y002000D01*
X030500Y002500D02*
X030500Y003000D01*
X031740Y003778D02*
X029260Y003778D01*
X029260Y004722D01*
X031740Y004722D01*
X031740Y003778D01*
X031740Y004778D02*
X029260Y004778D01*
X029260Y005722D01*
X031740Y005722D01*
X031740Y004778D01*
X031740Y005778D02*
X029260Y005778D01*
X029260Y006722D01*
X031740Y006722D01*
X031740Y005778D01*
X031740Y006778D02*
X029260Y006778D01*
X029260Y007722D01*
X031740Y007722D01*
X031740Y006778D01*
X031740Y007778D02*
X029260Y007778D01*
X029260Y008722D01*
X031740Y008722D01*
X031740Y007778D01*
X031740Y008778D02*
X029260Y008778D01*
X029260Y009722D01*
X031740Y009722D01*
X031740Y008778D01*
X031740Y009778D02*
X029260Y009778D01*
X029260Y010722D01*
X031740Y010722D01*
X031740Y009778D01*
X031740Y010778D02*
X029260Y010778D01*
X029260Y011722D01*
X031740Y011722D01*
X031740Y010778D01*
X031740Y011778D02*
X029260Y011778D01*
X029260Y012722D01*
X031740Y012722D01*
X031740Y011778D01*
X031740Y012778D02*
X029260Y012778D01*
X029260Y013722D01*
X031740Y013722D01*
X031740Y012778D01*
X031740Y013778D02*
X029260Y013778D01*
X029260Y014722D01*
X031740Y014722D01*
X031740Y013778D01*
X034250Y016750D02*
X034750Y016750D01*
X026750Y016750D02*
X026250Y016750D01*
X025000Y015500D02*
X024750Y015750D01*
X023250Y015750D01*
X023000Y015500D01*
X023000Y015000D01*
X023250Y014750D01*
X024750Y014750D01*
X025000Y014500D01*
X025000Y014000D01*
X024750Y013750D01*
X023250Y013750D01*
X023000Y013500D01*
X023000Y013000D01*
X023250Y012750D01*
X024750Y012750D01*
X025000Y013000D01*
X025000Y013500D01*
X024750Y013750D01*
X023250Y013750D02*
X023000Y014000D01*
X023000Y014500D01*
X023250Y014750D01*
X022868Y015000D02*
X022868Y015500D01*
X024750Y014750D02*
X025000Y015000D01*
X025000Y015500D01*
X024400Y006295D02*
X024400Y006137D01*
X023850Y006075D02*
X023850Y004425D01*
X024400Y004363D02*
X024400Y004205D01*
X024400Y005137D02*
X024400Y005363D01*
X023850Y004425D02*
X023901Y004388D01*
X023954Y004353D01*
X024010Y004321D01*
X024067Y004293D01*
X024126Y004269D01*
X024186Y004248D01*
X024247Y004231D01*
X024309Y004217D01*
X024372Y004208D01*
X024435Y004202D01*
X024499Y004200D01*
X024563Y004202D01*
X024626Y004208D01*
X024689Y004217D01*
X024751Y004230D01*
X024812Y004248D01*
X024872Y004268D01*
X024931Y004293D01*
X024988Y004320D01*
X025044Y004352D01*
X025097Y004386D01*
X025148Y004424D01*
X025197Y004465D01*
X025243Y004509D01*
X025287Y004555D01*
X025328Y004604D01*
X025365Y004655D01*
X025400Y004709D01*
X025431Y004764D01*
X025459Y004821D01*
X025483Y004880D01*
X025503Y004940D01*
X025503Y005560D02*
X025483Y005620D01*
X025459Y005679D01*
X025431Y005736D01*
X025400Y005791D01*
X025365Y005845D01*
X025328Y005896D01*
X025287Y005945D01*
X025243Y005991D01*
X025197Y006035D01*
X025148Y006076D01*
X025097Y006114D01*
X025044Y006148D01*
X024988Y006179D01*
X024931Y006207D01*
X024872Y006232D01*
X024812Y006252D01*
X024751Y006270D01*
X024689Y006283D01*
X024626Y006292D01*
X024563Y006298D01*
X024499Y006300D01*
X024435Y006298D01*
X024372Y006292D01*
X024309Y006283D01*
X024247Y006269D01*
X024186Y006252D01*
X024126Y006231D01*
X024067Y006207D01*
X024010Y006179D01*
X023954Y006147D01*
X023901Y006112D01*
X023850Y006075D01*
X034250Y000750D02*
X034750Y000750D01*
D11*
X033008Y018750D02*
X033010Y018794D01*
X033016Y018838D01*
X033026Y018881D01*
X033039Y018923D01*
X033057Y018963D01*
X033078Y019002D01*
X033102Y019039D01*
X033129Y019074D01*
X033160Y019106D01*
X033193Y019135D01*
X033229Y019161D01*
X033267Y019183D01*
X033307Y019202D01*
X033348Y019218D01*
X033391Y019230D01*
X033434Y019238D01*
X033478Y019242D01*
X033522Y019242D01*
X033566Y019238D01*
X033609Y019230D01*
X033652Y019218D01*
X033693Y019202D01*
X033733Y019183D01*
X033771Y019161D01*
X033807Y019135D01*
X033840Y019106D01*
X033871Y019074D01*
X033898Y019039D01*
X033922Y019002D01*
X033943Y018963D01*
X033961Y018923D01*
X033974Y018881D01*
X033984Y018838D01*
X033990Y018794D01*
X033992Y018750D01*
X033990Y018706D01*
X033984Y018662D01*
X033974Y018619D01*
X033961Y018577D01*
X033943Y018537D01*
X033922Y018498D01*
X033898Y018461D01*
X033871Y018426D01*
X033840Y018394D01*
X033807Y018365D01*
X033771Y018339D01*
X033733Y018317D01*
X033693Y018298D01*
X033652Y018282D01*
X033609Y018270D01*
X033566Y018262D01*
X033522Y018258D01*
X033478Y018258D01*
X033434Y018262D01*
X033391Y018270D01*
X033348Y018282D01*
X033307Y018298D01*
X033267Y018317D01*
X033229Y018339D01*
X033193Y018365D01*
X033160Y018394D01*
X033129Y018426D01*
X033102Y018461D01*
X033078Y018498D01*
X033057Y018537D01*
X033039Y018577D01*
X033026Y018619D01*
X033016Y018662D01*
X033010Y018706D01*
X033008Y018750D01*
X023008Y018750D02*
X023010Y018794D01*
X023016Y018838D01*
X023026Y018881D01*
X023039Y018923D01*
X023057Y018963D01*
X023078Y019002D01*
X023102Y019039D01*
X023129Y019074D01*
X023160Y019106D01*
X023193Y019135D01*
X023229Y019161D01*
X023267Y019183D01*
X023307Y019202D01*
X023348Y019218D01*
X023391Y019230D01*
X023434Y019238D01*
X023478Y019242D01*
X023522Y019242D01*
X023566Y019238D01*
X023609Y019230D01*
X023652Y019218D01*
X023693Y019202D01*
X023733Y019183D01*
X023771Y019161D01*
X023807Y019135D01*
X023840Y019106D01*
X023871Y019074D01*
X023898Y019039D01*
X023922Y019002D01*
X023943Y018963D01*
X023961Y018923D01*
X023974Y018881D01*
X023984Y018838D01*
X023990Y018794D01*
X023992Y018750D01*
X023990Y018706D01*
X023984Y018662D01*
X023974Y018619D01*
X023961Y018577D01*
X023943Y018537D01*
X023922Y018498D01*
X023898Y018461D01*
X023871Y018426D01*
X023840Y018394D01*
X023807Y018365D01*
X023771Y018339D01*
X023733Y018317D01*
X023693Y018298D01*
X023652Y018282D01*
X023609Y018270D01*
X023566Y018262D01*
X023522Y018258D01*
X023478Y018258D01*
X023434Y018262D01*
X023391Y018270D01*
X023348Y018282D01*
X023307Y018298D01*
X023267Y018317D01*
X023229Y018339D01*
X023193Y018365D01*
X023160Y018394D01*
X023129Y018426D01*
X023102Y018461D01*
X023078Y018498D01*
X023057Y018537D01*
X023039Y018577D01*
X023026Y018619D01*
X023016Y018662D01*
X023010Y018706D01*
X023008Y018750D01*
D12*
X025520Y018827D02*
X025673Y018827D01*
X025597Y018904D02*
X025597Y018597D01*
X025673Y018520D01*
X025827Y018597D02*
X025827Y018750D01*
X025904Y018827D01*
X026057Y018827D01*
X026134Y018750D01*
X026134Y018673D01*
X025827Y018673D01*
X025827Y018597D02*
X025904Y018520D01*
X026057Y018520D01*
X026287Y018520D02*
X026594Y018827D01*
X026748Y018827D02*
X026901Y018827D01*
X026824Y018904D02*
X026824Y018597D01*
X026901Y018520D01*
X027055Y018597D02*
X027131Y018520D01*
X027362Y018520D01*
X027362Y018827D01*
X027515Y018827D02*
X027515Y018520D01*
X027515Y018673D02*
X027668Y018827D01*
X027745Y018827D01*
X027899Y018750D02*
X027899Y018597D01*
X027975Y018520D01*
X028129Y018520D01*
X028206Y018673D02*
X027899Y018673D01*
X027899Y018750D02*
X027975Y018827D01*
X028129Y018827D01*
X028206Y018750D01*
X028206Y018673D01*
X028359Y018597D02*
X028436Y018597D01*
X028436Y018520D01*
X028359Y018520D01*
X028359Y018597D01*
X028589Y018520D02*
X028819Y018520D01*
X028896Y018597D01*
X028819Y018673D01*
X028666Y018673D01*
X028589Y018750D01*
X028666Y018827D01*
X028896Y018827D01*
X029050Y018827D02*
X029050Y018597D01*
X029126Y018520D01*
X029357Y018520D01*
X029357Y018443D02*
X029280Y018367D01*
X029203Y018367D01*
X029357Y018443D02*
X029357Y018827D01*
X029510Y018750D02*
X029587Y018827D01*
X029817Y018827D01*
X029970Y018827D02*
X030124Y018827D01*
X030047Y018904D02*
X030047Y018597D01*
X030124Y018520D01*
X030277Y018597D02*
X030277Y018750D01*
X030354Y018827D01*
X030508Y018827D01*
X030584Y018750D01*
X030584Y018673D01*
X030277Y018673D01*
X030277Y018597D02*
X030354Y018520D01*
X030508Y018520D01*
X030738Y018520D02*
X030738Y018827D01*
X030815Y018827D01*
X030891Y018750D01*
X030968Y018827D01*
X031045Y018750D01*
X031045Y018520D01*
X031198Y018520D02*
X031428Y018520D01*
X031505Y018597D01*
X031428Y018673D01*
X031275Y018673D01*
X031198Y018750D01*
X031275Y018827D01*
X031505Y018827D01*
X030891Y018750D02*
X030891Y018520D01*
X030891Y017980D02*
X030891Y017520D01*
X030738Y017520D02*
X031045Y017520D01*
X031198Y017520D02*
X031275Y017520D01*
X031275Y017597D01*
X031198Y017597D01*
X031198Y017520D01*
X031428Y017597D02*
X031428Y017904D01*
X031505Y017980D01*
X031659Y017980D01*
X031735Y017904D01*
X031428Y017597D01*
X031505Y017520D01*
X031659Y017520D01*
X031735Y017597D01*
X031735Y017904D01*
X030891Y017980D02*
X030738Y017827D01*
X030584Y017827D02*
X030431Y017520D01*
X030277Y017827D01*
X029664Y017827D02*
X029510Y017827D01*
X029587Y017904D02*
X029587Y017597D01*
X029664Y017520D01*
X029357Y017673D02*
X029357Y017750D01*
X029280Y017827D01*
X029126Y017827D01*
X029050Y017750D01*
X029050Y017597D01*
X029126Y017520D01*
X029280Y017520D01*
X029357Y017673D02*
X029050Y017673D01*
X028896Y017520D02*
X028666Y017673D01*
X028896Y017827D01*
X028666Y017980D02*
X028666Y017520D01*
X028513Y017520D02*
X028282Y017520D01*
X028206Y017597D01*
X028206Y017750D01*
X028282Y017827D01*
X028513Y017827D01*
X028052Y017750D02*
X028052Y017520D01*
X027822Y017520D01*
X027745Y017597D01*
X027822Y017673D01*
X028052Y017673D01*
X028052Y017750D02*
X027975Y017827D01*
X027822Y017827D01*
X027592Y017750D02*
X027592Y017597D01*
X027515Y017520D01*
X027285Y017520D01*
X027285Y017367D02*
X027285Y017827D01*
X027515Y017827D01*
X027592Y017750D01*
X027131Y017827D02*
X026901Y017673D01*
X027131Y017520D01*
X026901Y017520D02*
X026901Y017980D01*
X026748Y017827D02*
X026518Y017827D01*
X026441Y017750D01*
X026441Y017597D01*
X026518Y017520D01*
X026748Y017520D01*
X026287Y017520D02*
X026057Y017520D01*
X025980Y017597D01*
X026057Y017673D01*
X026287Y017673D01*
X026287Y017750D02*
X026287Y017520D01*
X026287Y017750D02*
X026211Y017827D01*
X026057Y017827D01*
X025827Y017750D02*
X025827Y017597D01*
X025750Y017520D01*
X025520Y017520D01*
X025520Y017980D01*
X025520Y017827D02*
X025750Y017827D01*
X025827Y017750D01*
X026594Y018520D02*
X026287Y018827D01*
X027055Y018827D02*
X027055Y018597D01*
X029510Y018520D02*
X029740Y018520D01*
X029817Y018597D01*
X029740Y018673D01*
X029587Y018673D01*
X029510Y018750D01*
D13*
X030380Y016727D02*
X030348Y016409D01*
X030241Y016375D01*
X030141Y016324D01*
X029894Y016526D01*
X029724Y016356D01*
X029926Y016109D01*
X029875Y016009D01*
X029841Y015902D01*
X029523Y015870D01*
X029523Y015630D01*
X029841Y015598D01*
X029875Y015491D01*
X029926Y015391D01*
X029724Y015144D01*
X029894Y014974D01*
X030141Y015176D01*
X030241Y015125D01*
X030382Y015466D01*
X030329Y015494D01*
X030282Y015532D01*
X030244Y015579D01*
X030216Y015632D01*
X030198Y015690D01*
X030192Y015750D01*
X030199Y015813D01*
X030218Y015873D01*
X030249Y015928D01*
X030291Y015975D01*
X030341Y016013D01*
X030398Y016040D01*
X030460Y016055D01*
X030523Y016057D01*
X030585Y016046D01*
X030644Y016022D01*
X030696Y015987D01*
X030740Y015942D01*
X030775Y015889D01*
X030797Y015830D01*
X030807Y015767D01*
X030804Y015704D01*
X030788Y015643D01*
X030760Y015586D01*
X030722Y015537D01*
X030673Y015496D01*
X030618Y015466D01*
X030759Y015125D01*
X030859Y015176D01*
X031106Y014974D01*
X031276Y015144D01*
X031074Y015391D01*
X031125Y015491D01*
X031159Y015598D01*
X031477Y015630D01*
X031477Y015870D01*
X031159Y015902D01*
X031125Y016009D01*
X031074Y016109D01*
X031276Y016356D01*
X031106Y016526D01*
X030859Y016324D01*
X030759Y016375D01*
X030652Y016409D01*
X030620Y016727D01*
X030380Y016727D01*
X030380Y016722D02*
X030620Y016722D01*
X030623Y016693D02*
X030377Y016693D01*
X030374Y016665D02*
X030626Y016665D01*
X030629Y016636D02*
X030371Y016636D01*
X030368Y016608D02*
X030632Y016608D01*
X030635Y016579D02*
X030365Y016579D01*
X030362Y016551D02*
X030638Y016551D01*
X030641Y016522D02*
X030359Y016522D01*
X030356Y016494D02*
X030644Y016494D01*
X030647Y016465D02*
X030353Y016465D01*
X030351Y016437D02*
X030649Y016437D01*
X030656Y016408D02*
X030344Y016408D01*
X030255Y016380D02*
X030745Y016380D01*
X030805Y016351D02*
X030195Y016351D01*
X030108Y016351D02*
X029728Y016351D01*
X029748Y016380D02*
X030073Y016380D01*
X030038Y016408D02*
X029777Y016408D01*
X029805Y016437D02*
X030003Y016437D01*
X029968Y016465D02*
X029834Y016465D01*
X029862Y016494D02*
X029933Y016494D01*
X029898Y016522D02*
X029891Y016522D01*
X029752Y016323D02*
X031248Y016323D01*
X031225Y016294D02*
X029775Y016294D01*
X029798Y016266D02*
X031202Y016266D01*
X031179Y016237D02*
X029821Y016237D01*
X029844Y016209D02*
X031156Y016209D01*
X031132Y016180D02*
X029868Y016180D01*
X029891Y016152D02*
X031109Y016152D01*
X031086Y016123D02*
X029914Y016123D01*
X029919Y016095D02*
X031081Y016095D01*
X031096Y016066D02*
X029904Y016066D01*
X029890Y016038D02*
X030393Y016038D01*
X030336Y016009D02*
X029875Y016009D01*
X029866Y015981D02*
X030298Y015981D01*
X030270Y015952D02*
X029857Y015952D01*
X029848Y015924D02*
X030247Y015924D01*
X030231Y015895D02*
X029772Y015895D01*
X029523Y015867D02*
X030216Y015867D01*
X030207Y015838D02*
X029523Y015838D01*
X029523Y015810D02*
X030199Y015810D01*
X030196Y015781D02*
X029523Y015781D01*
X029523Y015753D02*
X030193Y015753D01*
X030195Y015724D02*
X029523Y015724D01*
X029523Y015696D02*
X030198Y015696D01*
X030205Y015667D02*
X029523Y015667D01*
X029523Y015639D02*
X030214Y015639D01*
X030228Y015610D02*
X029718Y015610D01*
X029846Y015582D02*
X030243Y015582D01*
X030265Y015553D02*
X029855Y015553D01*
X029864Y015525D02*
X030292Y015525D01*
X030327Y015496D02*
X029873Y015496D01*
X029887Y015468D02*
X030379Y015468D01*
X030371Y015439D02*
X029902Y015439D01*
X029916Y015411D02*
X030359Y015411D01*
X030348Y015382D02*
X029919Y015382D01*
X029895Y015354D02*
X030336Y015354D01*
X030324Y015325D02*
X029872Y015325D01*
X029849Y015297D02*
X030312Y015297D01*
X030300Y015268D02*
X029826Y015268D01*
X029802Y015240D02*
X030289Y015240D01*
X030277Y015211D02*
X029779Y015211D01*
X029756Y015183D02*
X030265Y015183D01*
X030253Y015154D02*
X030184Y015154D01*
X030239Y015126D02*
X030241Y015126D01*
X030115Y015154D02*
X029733Y015154D01*
X029743Y015126D02*
X030080Y015126D01*
X030045Y015097D02*
X029771Y015097D01*
X029800Y015069D02*
X030010Y015069D01*
X029975Y015040D02*
X029828Y015040D01*
X029857Y015012D02*
X029940Y015012D01*
X029905Y014983D02*
X029885Y014983D01*
X030652Y015382D02*
X031081Y015382D01*
X031084Y015411D02*
X030641Y015411D01*
X030629Y015439D02*
X031098Y015439D01*
X031113Y015468D02*
X030621Y015468D01*
X030674Y015496D02*
X031127Y015496D01*
X031136Y015525D02*
X030707Y015525D01*
X030735Y015553D02*
X031145Y015553D01*
X031154Y015582D02*
X030757Y015582D01*
X030772Y015610D02*
X031282Y015610D01*
X031477Y015639D02*
X030786Y015639D01*
X030795Y015667D02*
X031477Y015667D01*
X031477Y015696D02*
X030802Y015696D01*
X030805Y015724D02*
X031477Y015724D01*
X031477Y015753D02*
X030806Y015753D01*
X030805Y015781D02*
X031477Y015781D01*
X031477Y015810D02*
X030800Y015810D01*
X030794Y015838D02*
X031477Y015838D01*
X031477Y015867D02*
X030783Y015867D01*
X030770Y015895D02*
X031228Y015895D01*
X031152Y015924D02*
X030752Y015924D01*
X030730Y015952D02*
X031143Y015952D01*
X031134Y015981D02*
X030702Y015981D01*
X030663Y016009D02*
X031125Y016009D01*
X031110Y016038D02*
X030605Y016038D01*
X030892Y016351D02*
X031272Y016351D01*
X031252Y016380D02*
X030927Y016380D01*
X030962Y016408D02*
X031223Y016408D01*
X031195Y016437D02*
X030997Y016437D01*
X031032Y016465D02*
X031166Y016465D01*
X031138Y016494D02*
X031067Y016494D01*
X031102Y016522D02*
X031109Y016522D01*
X031105Y015354D02*
X030664Y015354D01*
X030676Y015325D02*
X031128Y015325D01*
X031151Y015297D02*
X030688Y015297D01*
X030700Y015268D02*
X031174Y015268D01*
X031198Y015240D02*
X030711Y015240D01*
X030723Y015211D02*
X031221Y015211D01*
X031244Y015183D02*
X030735Y015183D01*
X030747Y015154D02*
X030816Y015154D01*
X030761Y015126D02*
X030759Y015126D01*
X030885Y015154D02*
X031267Y015154D01*
X031257Y015126D02*
X030920Y015126D01*
X030955Y015097D02*
X031229Y015097D01*
X031200Y015069D02*
X030990Y015069D01*
X031025Y015040D02*
X031172Y015040D01*
X031143Y015012D02*
X031060Y015012D01*
X031095Y014983D02*
X031115Y014983D01*
X029906Y014395D02*
X029810Y014298D01*
X029708Y014250D02*
X029660Y014202D01*
X029515Y014202D01*
X029612Y014202D02*
X029708Y014105D01*
X029810Y014105D02*
X030003Y014105D01*
X029906Y014105D02*
X029906Y014395D01*
X029708Y014347D02*
X029708Y014250D01*
X029708Y014347D02*
X029660Y014395D01*
X029515Y014395D01*
X029515Y014105D01*
X029515Y013395D02*
X029660Y013395D01*
X029708Y013347D01*
X029708Y013250D01*
X029660Y013202D01*
X029515Y013202D01*
X029612Y013202D02*
X029708Y013105D01*
X029810Y013105D02*
X030003Y013298D01*
X030003Y013347D01*
X029955Y013395D01*
X029858Y013395D01*
X029810Y013347D01*
X029515Y013395D02*
X029515Y013105D01*
X029810Y013105D02*
X030003Y013105D01*
X029955Y012395D02*
X029858Y012395D01*
X029810Y012347D01*
X029708Y012347D02*
X029708Y012250D01*
X029660Y012202D01*
X029515Y012202D01*
X029612Y012202D02*
X029708Y012105D01*
X029810Y012153D02*
X029858Y012105D01*
X029955Y012105D01*
X030003Y012153D01*
X030003Y012202D01*
X029955Y012250D01*
X029906Y012250D01*
X029955Y012250D02*
X030003Y012298D01*
X030003Y012347D01*
X029955Y012395D01*
X029708Y012347D02*
X029660Y012395D01*
X029515Y012395D01*
X029515Y012105D01*
X029515Y011395D02*
X029660Y011395D01*
X029708Y011347D01*
X029708Y011250D01*
X029660Y011202D01*
X029515Y011202D01*
X029612Y011202D02*
X029708Y011105D01*
X029810Y011250D02*
X030003Y011250D01*
X029955Y011105D02*
X029955Y011395D01*
X029810Y011250D01*
X029515Y011105D02*
X029515Y011395D01*
X029515Y010395D02*
X029660Y010395D01*
X029708Y010347D01*
X029708Y010250D01*
X029660Y010202D01*
X029515Y010202D01*
X029612Y010202D02*
X029708Y010105D01*
X029810Y010153D02*
X029858Y010105D01*
X029955Y010105D01*
X030003Y010153D01*
X030003Y010250D01*
X029955Y010298D01*
X029906Y010298D01*
X029810Y010250D01*
X029810Y010395D01*
X030003Y010395D01*
X029515Y010395D02*
X029515Y010105D01*
X029515Y009395D02*
X029660Y009395D01*
X029708Y009347D01*
X029708Y009250D01*
X029660Y009202D01*
X029515Y009202D01*
X029612Y009202D02*
X029708Y009105D01*
X029810Y009153D02*
X029858Y009105D01*
X029955Y009105D01*
X030003Y009153D01*
X030003Y009202D01*
X029955Y009250D01*
X029810Y009250D01*
X029810Y009153D01*
X029810Y009250D02*
X029906Y009347D01*
X030003Y009395D01*
X029515Y009395D02*
X029515Y009105D01*
X029515Y008395D02*
X029660Y008395D01*
X029708Y008347D01*
X029708Y008250D01*
X029660Y008202D01*
X029515Y008202D01*
X029612Y008202D02*
X029708Y008105D01*
X029810Y008105D02*
X029810Y008153D01*
X030003Y008347D01*
X030003Y008395D01*
X029810Y008395D01*
X029515Y008395D02*
X029515Y008105D01*
X029515Y007395D02*
X029660Y007395D01*
X029708Y007347D01*
X029708Y007250D01*
X029660Y007202D01*
X029515Y007202D01*
X029612Y007202D02*
X029708Y007105D01*
X029810Y007153D02*
X029810Y007202D01*
X029858Y007250D01*
X029955Y007250D01*
X030003Y007202D01*
X030003Y007153D01*
X029955Y007105D01*
X029858Y007105D01*
X029810Y007153D01*
X029858Y007250D02*
X029810Y007298D01*
X029810Y007347D01*
X029858Y007395D01*
X029955Y007395D01*
X030003Y007347D01*
X030003Y007298D01*
X029955Y007250D01*
X029515Y007105D02*
X029515Y007395D01*
X029515Y006395D02*
X029660Y006395D01*
X029708Y006347D01*
X029708Y006250D01*
X029660Y006202D01*
X029515Y006202D01*
X029612Y006202D02*
X029708Y006105D01*
X029810Y006153D02*
X029858Y006105D01*
X029955Y006105D01*
X030003Y006153D01*
X030003Y006347D01*
X029955Y006395D01*
X029858Y006395D01*
X029810Y006347D01*
X029810Y006298D01*
X029858Y006250D01*
X030003Y006250D01*
X029515Y006105D02*
X029515Y006395D01*
X029515Y005395D02*
X029660Y005395D01*
X029708Y005347D01*
X029708Y005250D01*
X029660Y005202D01*
X029515Y005202D01*
X029612Y005202D02*
X029708Y005105D01*
X029810Y005105D02*
X030003Y005105D01*
X029906Y005105D02*
X029906Y005395D01*
X029810Y005298D01*
X030104Y005347D02*
X030104Y005153D01*
X030298Y005347D01*
X030298Y005153D01*
X030249Y005105D01*
X030153Y005105D01*
X030104Y005153D01*
X030104Y005347D02*
X030153Y005395D01*
X030249Y005395D01*
X030298Y005347D01*
X029515Y005395D02*
X029515Y005105D01*
X029515Y004395D02*
X029660Y004395D01*
X029708Y004347D01*
X029708Y004250D01*
X029660Y004202D01*
X029515Y004202D01*
X029612Y004202D02*
X029708Y004105D01*
X029810Y004105D02*
X030003Y004105D01*
X029906Y004105D02*
X029906Y004395D01*
X029810Y004298D01*
X030104Y004298D02*
X030201Y004395D01*
X030201Y004105D01*
X030104Y004105D02*
X030298Y004105D01*
X029515Y004105D02*
X029515Y004395D01*
X023003Y008105D02*
X022810Y008395D01*
X022708Y008395D02*
X022515Y008395D01*
X022612Y008395D02*
X022612Y008105D01*
X022810Y008105D02*
X023003Y008395D01*
X023003Y010605D02*
X022810Y010895D01*
X022708Y010847D02*
X022708Y010750D01*
X022660Y010702D01*
X022515Y010702D01*
X022612Y010702D02*
X022708Y010605D01*
X022810Y010605D02*
X023003Y010895D01*
X022708Y010847D02*
X022660Y010895D01*
X022515Y010895D01*
X022515Y010605D01*
X023563Y012105D02*
X023660Y012105D01*
X023708Y012153D01*
X023708Y012250D01*
X023612Y012250D01*
X023708Y012347D02*
X023660Y012395D01*
X023563Y012395D01*
X023515Y012347D01*
X023515Y012153D01*
X023563Y012105D01*
X023810Y012105D02*
X023810Y012395D01*
X024003Y012105D01*
X024003Y012395D01*
X024104Y012395D02*
X024249Y012395D01*
X024298Y012347D01*
X024298Y012153D01*
X024249Y012105D01*
X024104Y012105D01*
X024104Y012395D01*
X022405Y013865D02*
X022405Y014155D01*
X022406Y014345D02*
X022310Y014345D01*
X022358Y014345D02*
X022358Y014635D01*
X022310Y014635D02*
X022406Y014635D01*
X022506Y014587D02*
X022506Y014393D01*
X022554Y014345D01*
X022651Y014345D01*
X022700Y014393D01*
X022700Y014587D02*
X022651Y014635D01*
X022554Y014635D01*
X022506Y014587D01*
X022208Y014635D02*
X022208Y014345D01*
X022211Y014155D02*
X022405Y013865D01*
X022211Y013865D02*
X022211Y014155D01*
X022112Y014155D02*
X022015Y014155D01*
X022063Y014155D02*
X022063Y013865D01*
X022015Y013865D02*
X022112Y013865D01*
X022015Y014345D02*
X022015Y014635D01*
X022112Y014538D01*
X022208Y014635D01*
X023015Y015865D02*
X023112Y015865D01*
X023063Y015865D02*
X023063Y016155D01*
X023015Y016155D02*
X023112Y016155D01*
X023211Y016155D02*
X023405Y015865D01*
X023405Y016155D01*
X023406Y016345D02*
X023310Y016345D01*
X023358Y016345D02*
X023358Y016635D01*
X023310Y016635D02*
X023406Y016635D01*
X023506Y016635D02*
X023700Y016345D01*
X023700Y016635D01*
X023801Y016635D02*
X023801Y016345D01*
X023994Y016345D01*
X023897Y016490D02*
X023801Y016490D01*
X023801Y016635D02*
X023994Y016635D01*
X024515Y016635D02*
X024515Y016345D01*
X024708Y016345D01*
X024810Y016345D02*
X024906Y016345D01*
X024858Y016345D02*
X024858Y016635D01*
X024810Y016635D02*
X024906Y016635D01*
X025006Y016635D02*
X025200Y016345D01*
X025200Y016635D01*
X025301Y016635D02*
X025301Y016345D01*
X025494Y016345D01*
X025397Y016490D02*
X025301Y016490D01*
X025301Y016635D02*
X025494Y016635D01*
X025006Y016635D02*
X025006Y016345D01*
X025003Y016155D02*
X025003Y015913D01*
X024955Y015865D01*
X024858Y015865D01*
X024810Y015913D01*
X024810Y016155D01*
X024708Y016107D02*
X024660Y016155D01*
X024563Y016155D01*
X024515Y016107D01*
X024515Y015913D01*
X024563Y015865D01*
X024660Y015865D01*
X024708Y015913D01*
X024708Y016107D01*
X025104Y016155D02*
X025298Y016155D01*
X025201Y016155D02*
X025201Y015865D01*
X023506Y016345D02*
X023506Y016635D01*
X023208Y016345D02*
X023015Y016345D01*
X023015Y016635D01*
X023211Y016155D02*
X023211Y015865D01*
X025015Y014395D02*
X025160Y014395D01*
X025208Y014347D01*
X025208Y014250D01*
X025160Y014202D01*
X025015Y014202D01*
X025015Y014105D02*
X025015Y014395D01*
X025310Y014395D02*
X025503Y014395D01*
X025406Y014395D02*
X025406Y014105D01*
X025701Y014105D02*
X025701Y014395D01*
X025604Y014395D02*
X025798Y014395D01*
D14*
X023995Y011594D02*
X023995Y011504D01*
X023995Y011505D02*
X023941Y011503D01*
X023888Y011497D01*
X023835Y011487D01*
X023783Y011473D01*
X023732Y011456D01*
X023683Y011435D01*
X023635Y011411D01*
X023589Y011383D01*
X023545Y011352D01*
X023503Y011318D01*
X023464Y011282D01*
X023427Y011242D01*
X023394Y011200D01*
X023363Y011156D01*
X023336Y011110D01*
X023257Y011152D01*
X023285Y011201D01*
X023317Y011247D01*
X023352Y011292D01*
X023389Y011334D01*
X023430Y011374D01*
X023473Y011410D01*
X023518Y011444D01*
X023565Y011475D01*
X023615Y011502D01*
X023666Y011526D01*
X023718Y011547D01*
X023772Y011564D01*
X023827Y011577D01*
X023882Y011587D01*
X023939Y011593D01*
X023995Y011595D01*
X023995Y011586D01*
X023939Y011584D01*
X023884Y011578D01*
X023829Y011568D01*
X023774Y011555D01*
X023721Y011538D01*
X023669Y011518D01*
X023619Y011494D01*
X023570Y011467D01*
X023523Y011437D01*
X023478Y011403D01*
X023436Y011367D01*
X023396Y011328D01*
X023359Y011286D01*
X023324Y011242D01*
X023293Y011196D01*
X023265Y011148D01*
X023273Y011144D01*
X023301Y011191D01*
X023332Y011237D01*
X023366Y011280D01*
X023402Y011322D01*
X023442Y011360D01*
X023484Y011396D01*
X023528Y011429D01*
X023574Y011459D01*
X023623Y011486D01*
X023673Y011509D01*
X023724Y011530D01*
X023777Y011546D01*
X023830Y011559D01*
X023885Y011569D01*
X023940Y011575D01*
X023995Y011577D01*
X023995Y011568D01*
X023940Y011566D01*
X023886Y011560D01*
X023832Y011551D01*
X023779Y011538D01*
X023727Y011521D01*
X023676Y011501D01*
X023627Y011478D01*
X023579Y011451D01*
X023533Y011422D01*
X023489Y011389D01*
X023448Y011354D01*
X023409Y011315D01*
X023372Y011275D01*
X023339Y011232D01*
X023308Y011186D01*
X023281Y011139D01*
X023289Y011135D01*
X023316Y011182D01*
X023346Y011226D01*
X023379Y011269D01*
X023415Y011309D01*
X023454Y011347D01*
X023495Y011382D01*
X023538Y011414D01*
X023584Y011444D01*
X023631Y011470D01*
X023680Y011493D01*
X023730Y011513D01*
X023782Y011529D01*
X023834Y011542D01*
X023887Y011551D01*
X023941Y011557D01*
X023995Y011559D01*
X023995Y011550D01*
X023942Y011548D01*
X023889Y011542D01*
X023836Y011533D01*
X023784Y011520D01*
X023733Y011504D01*
X023683Y011485D01*
X023635Y011462D01*
X023588Y011436D01*
X023544Y011407D01*
X023501Y011375D01*
X023460Y011340D01*
X023422Y011303D01*
X023386Y011263D01*
X023353Y011221D01*
X023323Y011177D01*
X023296Y011131D01*
X023304Y011127D01*
X023331Y011172D01*
X023361Y011216D01*
X023393Y011257D01*
X023428Y011297D01*
X023466Y011334D01*
X023506Y011368D01*
X023549Y011400D01*
X023593Y011428D01*
X023639Y011454D01*
X023687Y011476D01*
X023736Y011496D01*
X023786Y011512D01*
X023838Y011524D01*
X023890Y011533D01*
X023942Y011539D01*
X023995Y011541D01*
X023995Y011532D01*
X023939Y011530D01*
X023884Y011523D01*
X023829Y011513D01*
X023775Y011499D01*
X023723Y011481D01*
X023671Y011460D01*
X023622Y011434D01*
X023574Y011406D01*
X023528Y011374D01*
X023485Y011339D01*
X023445Y011301D01*
X023407Y011260D01*
X023372Y011216D01*
X023341Y011170D01*
X023312Y011122D01*
X023320Y011118D01*
X023348Y011166D01*
X023379Y011211D01*
X023414Y011254D01*
X023451Y011294D01*
X023491Y011332D01*
X023534Y011367D01*
X023579Y011398D01*
X023626Y011427D01*
X023675Y011451D01*
X023726Y011473D01*
X023778Y011490D01*
X023831Y011504D01*
X023885Y011514D01*
X023940Y011521D01*
X023995Y011523D01*
X023995Y011514D01*
X023941Y011512D01*
X023887Y011506D01*
X023833Y011496D01*
X023781Y011482D01*
X023729Y011464D01*
X023679Y011443D01*
X023630Y011419D01*
X023584Y011391D01*
X023539Y011359D01*
X023497Y011325D01*
X023458Y011288D01*
X023421Y011248D01*
X023387Y011206D01*
X023356Y011161D01*
X023328Y011114D01*
X023269Y010327D02*
X023347Y010372D01*
X023347Y010371D02*
X023375Y010327D01*
X023406Y010285D01*
X023439Y010245D01*
X023475Y010207D01*
X023514Y010172D01*
X023555Y010140D01*
X023599Y010110D01*
X023644Y010084D01*
X023691Y010061D01*
X023739Y010041D01*
X023789Y010025D01*
X023839Y010012D01*
X023891Y010003D01*
X023943Y009997D01*
X023995Y009995D01*
X023996Y009906D01*
X023995Y009905D01*
X023940Y009907D01*
X023886Y009913D01*
X023831Y009922D01*
X023778Y009935D01*
X023726Y009951D01*
X023674Y009970D01*
X023624Y009993D01*
X023576Y010019D01*
X023529Y010048D01*
X023485Y010080D01*
X023442Y010115D01*
X023402Y010153D01*
X023365Y010193D01*
X023330Y010235D01*
X023298Y010280D01*
X023269Y010326D01*
X023277Y010331D01*
X023305Y010285D01*
X023337Y010241D01*
X023372Y010199D01*
X023409Y010159D01*
X023448Y010122D01*
X023490Y010087D01*
X023534Y010056D01*
X023580Y010027D01*
X023628Y010001D01*
X023678Y009979D01*
X023728Y009959D01*
X023780Y009943D01*
X023833Y009931D01*
X023887Y009922D01*
X023941Y009916D01*
X023995Y009914D01*
X023995Y009923D01*
X023941Y009925D01*
X023888Y009931D01*
X023835Y009940D01*
X023783Y009952D01*
X023731Y009968D01*
X023681Y009987D01*
X023632Y010009D01*
X023585Y010035D01*
X023539Y010063D01*
X023496Y010095D01*
X023454Y010129D01*
X023415Y010165D01*
X023378Y010205D01*
X023344Y010246D01*
X023313Y010290D01*
X023284Y010335D01*
X023292Y010340D01*
X023322Y010292D01*
X023356Y010246D01*
X023392Y010203D01*
X023432Y010162D01*
X023474Y010124D01*
X023518Y010089D01*
X023565Y010057D01*
X023614Y010029D01*
X023665Y010004D01*
X023718Y009982D01*
X023771Y009965D01*
X023826Y009951D01*
X023882Y009941D01*
X023938Y009934D01*
X023995Y009932D01*
X023995Y009941D01*
X023939Y009943D01*
X023883Y009949D01*
X023828Y009959D01*
X023774Y009973D01*
X023721Y009991D01*
X023669Y010012D01*
X023618Y010037D01*
X023570Y010065D01*
X023524Y010096D01*
X023479Y010131D01*
X023438Y010168D01*
X023399Y010209D01*
X023363Y010251D01*
X023330Y010297D01*
X023300Y010344D01*
X023308Y010349D01*
X023337Y010302D01*
X023370Y010257D01*
X023406Y010215D01*
X023444Y010175D01*
X023485Y010138D01*
X023529Y010103D01*
X023575Y010072D01*
X023623Y010045D01*
X023672Y010020D01*
X023724Y009999D01*
X023776Y009982D01*
X023830Y009968D01*
X023885Y009958D01*
X023940Y009952D01*
X023995Y009950D01*
X023995Y009959D01*
X023940Y009961D01*
X023886Y009967D01*
X023832Y009977D01*
X023779Y009991D01*
X023727Y010008D01*
X023676Y010028D01*
X023627Y010053D01*
X023580Y010080D01*
X023534Y010111D01*
X023491Y010144D01*
X023450Y010181D01*
X023412Y010221D01*
X023377Y010263D01*
X023345Y010307D01*
X023316Y010353D01*
X023324Y010358D01*
X023352Y010312D01*
X023384Y010268D01*
X023419Y010227D01*
X023457Y010188D01*
X023497Y010151D01*
X023539Y010118D01*
X023584Y010088D01*
X023631Y010060D01*
X023680Y010037D01*
X023730Y010016D01*
X023781Y009999D01*
X023834Y009986D01*
X023887Y009976D01*
X023941Y009970D01*
X023995Y009968D01*
X023995Y009977D01*
X023942Y009979D01*
X023888Y009985D01*
X023836Y009995D01*
X023784Y010008D01*
X023733Y010025D01*
X023683Y010045D01*
X023635Y010068D01*
X023589Y010095D01*
X023545Y010125D01*
X023503Y010158D01*
X023463Y010194D01*
X023426Y010233D01*
X023391Y010274D01*
X023360Y010317D01*
X023331Y010362D01*
X023339Y010367D01*
X023367Y010322D01*
X023398Y010279D01*
X023432Y010239D01*
X023469Y010201D01*
X023508Y010165D01*
X023550Y010133D01*
X023594Y010103D01*
X023640Y010076D01*
X023687Y010053D01*
X023736Y010033D01*
X023786Y010016D01*
X023838Y010003D01*
X023890Y009994D01*
X023942Y009988D01*
X023995Y009986D01*
X024004Y009906D02*
X024004Y009996D01*
X024005Y009995D02*
X024059Y009997D01*
X024112Y010003D01*
X024165Y010013D01*
X024217Y010027D01*
X024268Y010044D01*
X024318Y010065D01*
X024366Y010089D01*
X024412Y010117D01*
X024456Y010148D01*
X024497Y010182D01*
X024537Y010219D01*
X024573Y010258D01*
X024641Y010201D01*
X024642Y010200D01*
X024604Y010159D01*
X024564Y010121D01*
X024521Y010085D01*
X024476Y010052D01*
X024429Y010022D01*
X024381Y009996D01*
X024330Y009972D01*
X024278Y009952D01*
X024225Y009936D01*
X024171Y009922D01*
X024116Y009913D01*
X024061Y009907D01*
X024005Y009905D01*
X024005Y009914D01*
X024060Y009916D01*
X024115Y009922D01*
X024169Y009931D01*
X024223Y009944D01*
X024275Y009961D01*
X024327Y009980D01*
X024377Y010004D01*
X024425Y010030D01*
X024471Y010060D01*
X024516Y010092D01*
X024558Y010127D01*
X024598Y010166D01*
X024635Y010206D01*
X024628Y010212D01*
X024591Y010172D01*
X024552Y010134D01*
X024510Y010099D01*
X024466Y010067D01*
X024420Y010038D01*
X024372Y010012D01*
X024323Y009989D01*
X024272Y009969D01*
X024220Y009953D01*
X024167Y009940D01*
X024114Y009931D01*
X024059Y009925D01*
X024005Y009923D01*
X024005Y009932D01*
X024059Y009934D01*
X024112Y009940D01*
X024165Y009949D01*
X024218Y009962D01*
X024269Y009978D01*
X024320Y009997D01*
X024368Y010020D01*
X024416Y010045D01*
X024461Y010074D01*
X024505Y010106D01*
X024546Y010141D01*
X024585Y010178D01*
X024621Y010218D01*
X024614Y010224D01*
X024578Y010184D01*
X024540Y010147D01*
X024499Y010113D01*
X024456Y010082D01*
X024411Y010053D01*
X024364Y010028D01*
X024316Y010005D01*
X024266Y009986D01*
X024215Y009970D01*
X024164Y009958D01*
X024111Y009949D01*
X024058Y009943D01*
X024005Y009941D01*
X024005Y009950D01*
X024058Y009952D01*
X024110Y009958D01*
X024162Y009967D01*
X024213Y009979D01*
X024263Y009995D01*
X024313Y010014D01*
X024360Y010036D01*
X024407Y010061D01*
X024451Y010089D01*
X024493Y010120D01*
X024534Y010154D01*
X024572Y010191D01*
X024607Y010229D01*
X024601Y010235D01*
X024565Y010197D01*
X024528Y010161D01*
X024488Y010127D01*
X024446Y010097D01*
X024402Y010069D01*
X024356Y010044D01*
X024309Y010022D01*
X024260Y010003D01*
X024211Y009988D01*
X024160Y009975D01*
X024109Y009967D01*
X024057Y009961D01*
X024005Y009959D01*
X024005Y009968D01*
X024061Y009970D01*
X024116Y009977D01*
X024171Y009987D01*
X024225Y010001D01*
X024278Y010019D01*
X024329Y010041D01*
X024379Y010066D01*
X024427Y010095D01*
X024472Y010127D01*
X024515Y010162D01*
X024556Y010200D01*
X024594Y010241D01*
X024587Y010247D01*
X024550Y010206D01*
X024509Y010169D01*
X024467Y010134D01*
X024422Y010102D01*
X024374Y010074D01*
X024325Y010049D01*
X024274Y010027D01*
X024222Y010010D01*
X024169Y009996D01*
X024115Y009986D01*
X024060Y009979D01*
X024005Y009977D01*
X024005Y009986D01*
X024059Y009988D01*
X024113Y009994D01*
X024167Y010004D01*
X024220Y010018D01*
X024271Y010036D01*
X024321Y010057D01*
X024370Y010082D01*
X024417Y010110D01*
X024461Y010141D01*
X024503Y010175D01*
X024543Y010213D01*
X024580Y010253D01*
X024645Y011294D02*
X024576Y011237D01*
X024577Y011237D02*
X024540Y011277D01*
X024501Y011315D01*
X024459Y011349D01*
X024415Y011381D01*
X024369Y011409D01*
X024320Y011434D01*
X024270Y011455D01*
X024219Y011473D01*
X024166Y011486D01*
X024113Y011496D01*
X024059Y011503D01*
X024005Y011505D01*
X024004Y011594D01*
X024005Y011595D01*
X024061Y011593D01*
X024117Y011587D01*
X024172Y011577D01*
X024227Y011564D01*
X024280Y011547D01*
X024333Y011527D01*
X024384Y011503D01*
X024433Y011476D01*
X024480Y011445D01*
X024525Y011412D01*
X024568Y011376D01*
X024608Y011337D01*
X024646Y011295D01*
X024639Y011289D01*
X024602Y011330D01*
X024562Y011369D01*
X024520Y011405D01*
X024475Y011438D01*
X024428Y011468D01*
X024380Y011495D01*
X024329Y011518D01*
X024277Y011539D01*
X024224Y011555D01*
X024170Y011568D01*
X024116Y011578D01*
X024061Y011584D01*
X024005Y011586D01*
X024005Y011577D01*
X024060Y011575D01*
X024115Y011569D01*
X024169Y011560D01*
X024222Y011547D01*
X024274Y011530D01*
X024326Y011510D01*
X024375Y011487D01*
X024424Y011460D01*
X024470Y011431D01*
X024514Y011398D01*
X024556Y011362D01*
X024595Y011324D01*
X024632Y011283D01*
X024625Y011278D01*
X024589Y011318D01*
X024550Y011356D01*
X024508Y011391D01*
X024465Y011423D01*
X024419Y011453D01*
X024371Y011479D01*
X024322Y011502D01*
X024272Y011522D01*
X024220Y011538D01*
X024167Y011551D01*
X024113Y011560D01*
X024059Y011566D01*
X024005Y011568D01*
X024005Y011559D01*
X024059Y011557D01*
X024112Y011551D01*
X024165Y011542D01*
X024217Y011529D01*
X024269Y011513D01*
X024319Y011494D01*
X024367Y011471D01*
X024414Y011445D01*
X024460Y011416D01*
X024503Y011384D01*
X024544Y011349D01*
X024582Y011312D01*
X024618Y011272D01*
X024611Y011266D01*
X024576Y011305D01*
X024538Y011342D01*
X024497Y011377D01*
X024454Y011408D01*
X024410Y011437D01*
X024363Y011463D01*
X024315Y011485D01*
X024266Y011505D01*
X024215Y011521D01*
X024163Y011533D01*
X024111Y011542D01*
X024058Y011548D01*
X024005Y011550D01*
X024005Y011541D01*
X024057Y011539D01*
X024110Y011533D01*
X024161Y011524D01*
X024212Y011512D01*
X024263Y011496D01*
X024312Y011477D01*
X024359Y011455D01*
X024405Y011429D01*
X024449Y011401D01*
X024491Y011370D01*
X024532Y011336D01*
X024569Y011299D01*
X024604Y011260D01*
X024598Y011254D01*
X024563Y011293D01*
X024525Y011329D01*
X024486Y011363D01*
X024444Y011394D01*
X024400Y011422D01*
X024355Y011447D01*
X024308Y011469D01*
X024260Y011488D01*
X024210Y011503D01*
X024160Y011516D01*
X024108Y011524D01*
X024057Y011530D01*
X024005Y011532D01*
X024005Y011523D01*
X024056Y011521D01*
X024107Y011516D01*
X024158Y011507D01*
X024208Y011495D01*
X024257Y011479D01*
X024304Y011461D01*
X024351Y011439D01*
X024396Y011414D01*
X024439Y011386D01*
X024480Y011356D01*
X024519Y011323D01*
X024556Y011287D01*
X024591Y011249D01*
X024584Y011243D01*
X024547Y011284D01*
X024507Y011322D01*
X024465Y011356D01*
X024420Y011388D01*
X024373Y011417D01*
X024324Y011442D01*
X024273Y011463D01*
X024222Y011481D01*
X024168Y011495D01*
X024114Y011505D01*
X024060Y011512D01*
X024005Y011514D01*
X023269Y007827D02*
X023347Y007872D01*
X023347Y007871D02*
X023375Y007827D01*
X023406Y007785D01*
X023439Y007745D01*
X023475Y007707D01*
X023514Y007672D01*
X023555Y007640D01*
X023599Y007610D01*
X023644Y007584D01*
X023691Y007561D01*
X023739Y007541D01*
X023789Y007525D01*
X023839Y007512D01*
X023891Y007503D01*
X023943Y007497D01*
X023995Y007495D01*
X023996Y007406D01*
X023995Y007405D01*
X023940Y007407D01*
X023886Y007413D01*
X023831Y007422D01*
X023778Y007435D01*
X023726Y007451D01*
X023674Y007470D01*
X023624Y007493D01*
X023576Y007519D01*
X023529Y007548D01*
X023485Y007580D01*
X023442Y007615D01*
X023402Y007653D01*
X023365Y007693D01*
X023330Y007735D01*
X023298Y007780D01*
X023269Y007826D01*
X023277Y007831D01*
X023305Y007785D01*
X023337Y007741D01*
X023372Y007699D01*
X023409Y007659D01*
X023448Y007622D01*
X023490Y007587D01*
X023534Y007556D01*
X023580Y007527D01*
X023628Y007501D01*
X023678Y007479D01*
X023728Y007459D01*
X023780Y007443D01*
X023833Y007431D01*
X023887Y007422D01*
X023941Y007416D01*
X023995Y007414D01*
X023995Y007423D01*
X023941Y007425D01*
X023888Y007431D01*
X023835Y007440D01*
X023783Y007452D01*
X023731Y007468D01*
X023681Y007487D01*
X023632Y007509D01*
X023585Y007535D01*
X023539Y007563D01*
X023496Y007595D01*
X023454Y007629D01*
X023415Y007665D01*
X023378Y007705D01*
X023344Y007746D01*
X023313Y007790D01*
X023284Y007835D01*
X023292Y007840D01*
X023322Y007792D01*
X023356Y007746D01*
X023392Y007703D01*
X023432Y007662D01*
X023474Y007624D01*
X023518Y007589D01*
X023565Y007557D01*
X023614Y007529D01*
X023665Y007504D01*
X023718Y007482D01*
X023771Y007465D01*
X023826Y007451D01*
X023882Y007441D01*
X023938Y007434D01*
X023995Y007432D01*
X023995Y007441D01*
X023939Y007443D01*
X023883Y007449D01*
X023828Y007459D01*
X023774Y007473D01*
X023721Y007491D01*
X023669Y007512D01*
X023618Y007537D01*
X023570Y007565D01*
X023524Y007596D01*
X023479Y007631D01*
X023438Y007668D01*
X023399Y007709D01*
X023363Y007751D01*
X023330Y007797D01*
X023300Y007844D01*
X023308Y007849D01*
X023337Y007802D01*
X023370Y007757D01*
X023406Y007715D01*
X023444Y007675D01*
X023485Y007638D01*
X023529Y007603D01*
X023575Y007572D01*
X023623Y007545D01*
X023672Y007520D01*
X023724Y007499D01*
X023776Y007482D01*
X023830Y007468D01*
X023885Y007458D01*
X023940Y007452D01*
X023995Y007450D01*
X023995Y007459D01*
X023940Y007461D01*
X023886Y007467D01*
X023832Y007477D01*
X023779Y007491D01*
X023727Y007508D01*
X023676Y007528D01*
X023627Y007553D01*
X023580Y007580D01*
X023534Y007611D01*
X023491Y007644D01*
X023450Y007681D01*
X023412Y007721D01*
X023377Y007763D01*
X023345Y007807D01*
X023316Y007853D01*
X023324Y007858D01*
X023352Y007812D01*
X023384Y007768D01*
X023419Y007727D01*
X023457Y007688D01*
X023497Y007651D01*
X023539Y007618D01*
X023584Y007588D01*
X023631Y007560D01*
X023680Y007537D01*
X023730Y007516D01*
X023781Y007499D01*
X023834Y007486D01*
X023887Y007476D01*
X023941Y007470D01*
X023995Y007468D01*
X023995Y007477D01*
X023942Y007479D01*
X023888Y007485D01*
X023836Y007495D01*
X023784Y007508D01*
X023733Y007525D01*
X023683Y007545D01*
X023635Y007568D01*
X023589Y007595D01*
X023545Y007625D01*
X023503Y007658D01*
X023463Y007694D01*
X023426Y007733D01*
X023391Y007774D01*
X023360Y007817D01*
X023331Y007862D01*
X023339Y007867D01*
X023367Y007822D01*
X023398Y007779D01*
X023432Y007739D01*
X023469Y007701D01*
X023508Y007665D01*
X023550Y007633D01*
X023594Y007603D01*
X023640Y007576D01*
X023687Y007553D01*
X023736Y007533D01*
X023786Y007516D01*
X023838Y007503D01*
X023890Y007494D01*
X023942Y007488D01*
X023995Y007486D01*
X023995Y009094D02*
X023995Y009004D01*
X023995Y009005D02*
X023941Y009003D01*
X023888Y008997D01*
X023835Y008987D01*
X023783Y008973D01*
X023732Y008956D01*
X023683Y008935D01*
X023635Y008911D01*
X023589Y008883D01*
X023545Y008852D01*
X023503Y008818D01*
X023464Y008782D01*
X023427Y008742D01*
X023394Y008700D01*
X023363Y008656D01*
X023336Y008610D01*
X023257Y008652D01*
X023285Y008701D01*
X023317Y008747D01*
X023352Y008792D01*
X023389Y008834D01*
X023430Y008874D01*
X023473Y008910D01*
X023518Y008944D01*
X023565Y008975D01*
X023615Y009002D01*
X023666Y009026D01*
X023718Y009047D01*
X023772Y009064D01*
X023827Y009077D01*
X023882Y009087D01*
X023939Y009093D01*
X023995Y009095D01*
X023995Y009086D01*
X023939Y009084D01*
X023884Y009078D01*
X023829Y009068D01*
X023774Y009055D01*
X023721Y009038D01*
X023669Y009018D01*
X023619Y008994D01*
X023570Y008967D01*
X023523Y008937D01*
X023478Y008903D01*
X023436Y008867D01*
X023396Y008828D01*
X023359Y008786D01*
X023324Y008742D01*
X023293Y008696D01*
X023265Y008648D01*
X023273Y008644D01*
X023301Y008691D01*
X023332Y008737D01*
X023366Y008780D01*
X023402Y008822D01*
X023442Y008860D01*
X023484Y008896D01*
X023528Y008929D01*
X023574Y008959D01*
X023623Y008986D01*
X023673Y009009D01*
X023724Y009030D01*
X023777Y009046D01*
X023830Y009059D01*
X023885Y009069D01*
X023940Y009075D01*
X023995Y009077D01*
X023995Y009068D01*
X023940Y009066D01*
X023886Y009060D01*
X023832Y009051D01*
X023779Y009038D01*
X023727Y009021D01*
X023676Y009001D01*
X023627Y008978D01*
X023579Y008951D01*
X023533Y008922D01*
X023489Y008889D01*
X023448Y008854D01*
X023409Y008815D01*
X023372Y008775D01*
X023339Y008732D01*
X023308Y008686D01*
X023281Y008639D01*
X023289Y008635D01*
X023316Y008682D01*
X023346Y008726D01*
X023379Y008769D01*
X023415Y008809D01*
X023454Y008847D01*
X023495Y008882D01*
X023538Y008914D01*
X023584Y008944D01*
X023631Y008970D01*
X023680Y008993D01*
X023730Y009013D01*
X023782Y009029D01*
X023834Y009042D01*
X023887Y009051D01*
X023941Y009057D01*
X023995Y009059D01*
X023995Y009050D01*
X023942Y009048D01*
X023889Y009042D01*
X023836Y009033D01*
X023784Y009020D01*
X023733Y009004D01*
X023683Y008985D01*
X023635Y008962D01*
X023588Y008936D01*
X023544Y008907D01*
X023501Y008875D01*
X023460Y008840D01*
X023422Y008803D01*
X023386Y008763D01*
X023353Y008721D01*
X023323Y008677D01*
X023296Y008631D01*
X023304Y008627D01*
X023331Y008672D01*
X023361Y008716D01*
X023393Y008757D01*
X023428Y008797D01*
X023466Y008834D01*
X023506Y008868D01*
X023549Y008900D01*
X023593Y008928D01*
X023639Y008954D01*
X023687Y008976D01*
X023736Y008996D01*
X023786Y009012D01*
X023838Y009024D01*
X023890Y009033D01*
X023942Y009039D01*
X023995Y009041D01*
X023995Y009032D01*
X023939Y009030D01*
X023884Y009023D01*
X023829Y009013D01*
X023775Y008999D01*
X023723Y008981D01*
X023671Y008960D01*
X023622Y008934D01*
X023574Y008906D01*
X023528Y008874D01*
X023485Y008839D01*
X023445Y008801D01*
X023407Y008760D01*
X023372Y008716D01*
X023341Y008670D01*
X023312Y008622D01*
X023320Y008618D01*
X023348Y008666D01*
X023379Y008711D01*
X023414Y008754D01*
X023451Y008794D01*
X023491Y008832D01*
X023534Y008867D01*
X023579Y008898D01*
X023626Y008927D01*
X023675Y008951D01*
X023726Y008973D01*
X023778Y008990D01*
X023831Y009004D01*
X023885Y009014D01*
X023940Y009021D01*
X023995Y009023D01*
X023995Y009014D01*
X023941Y009012D01*
X023887Y009006D01*
X023833Y008996D01*
X023781Y008982D01*
X023729Y008964D01*
X023679Y008943D01*
X023630Y008919D01*
X023584Y008891D01*
X023539Y008859D01*
X023497Y008825D01*
X023458Y008788D01*
X023421Y008748D01*
X023387Y008706D01*
X023356Y008661D01*
X023328Y008614D01*
X024645Y008794D02*
X024576Y008737D01*
X024577Y008737D02*
X024540Y008777D01*
X024501Y008815D01*
X024459Y008849D01*
X024415Y008881D01*
X024369Y008909D01*
X024320Y008934D01*
X024270Y008955D01*
X024219Y008973D01*
X024166Y008986D01*
X024113Y008996D01*
X024059Y009003D01*
X024005Y009005D01*
X024004Y009094D01*
X024005Y009095D01*
X024061Y009093D01*
X024117Y009087D01*
X024172Y009077D01*
X024227Y009064D01*
X024280Y009047D01*
X024333Y009027D01*
X024384Y009003D01*
X024433Y008976D01*
X024480Y008945D01*
X024525Y008912D01*
X024568Y008876D01*
X024608Y008837D01*
X024646Y008795D01*
X024639Y008789D01*
X024602Y008830D01*
X024562Y008869D01*
X024520Y008905D01*
X024475Y008938D01*
X024428Y008968D01*
X024380Y008995D01*
X024329Y009018D01*
X024277Y009039D01*
X024224Y009055D01*
X024170Y009068D01*
X024116Y009078D01*
X024061Y009084D01*
X024005Y009086D01*
X024005Y009077D01*
X024060Y009075D01*
X024115Y009069D01*
X024169Y009060D01*
X024222Y009047D01*
X024274Y009030D01*
X024326Y009010D01*
X024375Y008987D01*
X024424Y008960D01*
X024470Y008931D01*
X024514Y008898D01*
X024556Y008862D01*
X024595Y008824D01*
X024632Y008783D01*
X024625Y008778D01*
X024589Y008818D01*
X024550Y008856D01*
X024508Y008891D01*
X024465Y008923D01*
X024419Y008953D01*
X024371Y008979D01*
X024322Y009002D01*
X024272Y009022D01*
X024220Y009038D01*
X024167Y009051D01*
X024113Y009060D01*
X024059Y009066D01*
X024005Y009068D01*
X024005Y009059D01*
X024059Y009057D01*
X024112Y009051D01*
X024165Y009042D01*
X024217Y009029D01*
X024269Y009013D01*
X024319Y008994D01*
X024367Y008971D01*
X024414Y008945D01*
X024460Y008916D01*
X024503Y008884D01*
X024544Y008849D01*
X024582Y008812D01*
X024618Y008772D01*
X024611Y008766D01*
X024576Y008805D01*
X024538Y008842D01*
X024497Y008877D01*
X024454Y008908D01*
X024410Y008937D01*
X024363Y008963D01*
X024315Y008985D01*
X024266Y009005D01*
X024215Y009021D01*
X024163Y009033D01*
X024111Y009042D01*
X024058Y009048D01*
X024005Y009050D01*
X024005Y009041D01*
X024057Y009039D01*
X024110Y009033D01*
X024161Y009024D01*
X024212Y009012D01*
X024263Y008996D01*
X024312Y008977D01*
X024359Y008955D01*
X024405Y008929D01*
X024449Y008901D01*
X024491Y008870D01*
X024532Y008836D01*
X024569Y008799D01*
X024604Y008760D01*
X024598Y008754D01*
X024563Y008793D01*
X024525Y008829D01*
X024486Y008863D01*
X024444Y008894D01*
X024400Y008922D01*
X024355Y008947D01*
X024308Y008969D01*
X024260Y008988D01*
X024210Y009003D01*
X024160Y009016D01*
X024108Y009024D01*
X024057Y009030D01*
X024005Y009032D01*
X024005Y009023D01*
X024056Y009021D01*
X024107Y009016D01*
X024158Y009007D01*
X024208Y008995D01*
X024257Y008979D01*
X024304Y008961D01*
X024351Y008939D01*
X024396Y008914D01*
X024439Y008886D01*
X024480Y008856D01*
X024519Y008823D01*
X024556Y008787D01*
X024591Y008749D01*
X024584Y008743D01*
X024547Y008784D01*
X024507Y008822D01*
X024465Y008856D01*
X024420Y008888D01*
X024373Y008917D01*
X024324Y008942D01*
X024273Y008963D01*
X024222Y008981D01*
X024168Y008995D01*
X024114Y009005D01*
X024060Y009012D01*
X024005Y009014D01*
X024004Y007406D02*
X024004Y007496D01*
X024005Y007495D02*
X024059Y007497D01*
X024112Y007503D01*
X024165Y007513D01*
X024217Y007527D01*
X024268Y007544D01*
X024318Y007565D01*
X024366Y007589D01*
X024412Y007617D01*
X024456Y007648D01*
X024497Y007682D01*
X024537Y007719D01*
X024573Y007758D01*
X024641Y007701D01*
X024642Y007700D01*
X024604Y007659D01*
X024564Y007621D01*
X024521Y007585D01*
X024476Y007552D01*
X024429Y007522D01*
X024381Y007496D01*
X024330Y007472D01*
X024278Y007452D01*
X024225Y007436D01*
X024171Y007422D01*
X024116Y007413D01*
X024061Y007407D01*
X024005Y007405D01*
X024005Y007414D01*
X024060Y007416D01*
X024115Y007422D01*
X024169Y007431D01*
X024223Y007444D01*
X024275Y007461D01*
X024327Y007480D01*
X024377Y007504D01*
X024425Y007530D01*
X024471Y007560D01*
X024516Y007592D01*
X024558Y007627D01*
X024598Y007666D01*
X024635Y007706D01*
X024628Y007712D01*
X024591Y007672D01*
X024552Y007634D01*
X024510Y007599D01*
X024466Y007567D01*
X024420Y007538D01*
X024372Y007512D01*
X024323Y007489D01*
X024272Y007469D01*
X024220Y007453D01*
X024167Y007440D01*
X024114Y007431D01*
X024059Y007425D01*
X024005Y007423D01*
X024005Y007432D01*
X024059Y007434D01*
X024112Y007440D01*
X024165Y007449D01*
X024218Y007462D01*
X024269Y007478D01*
X024320Y007497D01*
X024368Y007520D01*
X024416Y007545D01*
X024461Y007574D01*
X024505Y007606D01*
X024546Y007641D01*
X024585Y007678D01*
X024621Y007718D01*
X024614Y007724D01*
X024578Y007684D01*
X024540Y007647D01*
X024499Y007613D01*
X024456Y007582D01*
X024411Y007553D01*
X024364Y007528D01*
X024316Y007505D01*
X024266Y007486D01*
X024215Y007470D01*
X024164Y007458D01*
X024111Y007449D01*
X024058Y007443D01*
X024005Y007441D01*
X024005Y007450D01*
X024058Y007452D01*
X024110Y007458D01*
X024162Y007467D01*
X024213Y007479D01*
X024263Y007495D01*
X024313Y007514D01*
X024360Y007536D01*
X024407Y007561D01*
X024451Y007589D01*
X024493Y007620D01*
X024534Y007654D01*
X024572Y007691D01*
X024607Y007729D01*
X024601Y007735D01*
X024565Y007697D01*
X024528Y007661D01*
X024488Y007627D01*
X024446Y007597D01*
X024402Y007569D01*
X024356Y007544D01*
X024309Y007522D01*
X024260Y007503D01*
X024211Y007488D01*
X024160Y007475D01*
X024109Y007467D01*
X024057Y007461D01*
X024005Y007459D01*
X024005Y007468D01*
X024061Y007470D01*
X024116Y007477D01*
X024171Y007487D01*
X024225Y007501D01*
X024278Y007519D01*
X024329Y007541D01*
X024379Y007566D01*
X024427Y007595D01*
X024472Y007627D01*
X024515Y007662D01*
X024556Y007700D01*
X024594Y007741D01*
X024587Y007747D01*
X024550Y007706D01*
X024509Y007669D01*
X024467Y007634D01*
X024422Y007602D01*
X024374Y007574D01*
X024325Y007549D01*
X024274Y007527D01*
X024222Y007510D01*
X024169Y007496D01*
X024115Y007486D01*
X024060Y007479D01*
X024005Y007477D01*
X024005Y007486D01*
X024059Y007488D01*
X024113Y007494D01*
X024167Y007504D01*
X024220Y007518D01*
X024271Y007536D01*
X024321Y007557D01*
X024370Y007582D01*
X024417Y007610D01*
X024461Y007641D01*
X024503Y007675D01*
X024543Y007713D01*
X024580Y007753D01*
X024377Y002505D02*
X024327Y002505D01*
X024302Y002480D01*
X024255Y002480D02*
X024230Y002505D01*
X024180Y002505D01*
X024155Y002480D01*
X024155Y002380D01*
X024180Y002355D01*
X024230Y002355D01*
X024255Y002380D01*
X024302Y002355D02*
X024402Y002455D01*
X024402Y002480D01*
X024377Y002505D01*
X024402Y002355D02*
X024302Y002355D01*
X030510Y002220D02*
X030510Y002120D01*
X030535Y002095D01*
X030585Y002095D01*
X030610Y002120D01*
X030658Y002095D02*
X030758Y002095D01*
X030708Y002095D02*
X030708Y002245D01*
X030658Y002195D01*
X030610Y002220D02*
X030585Y002245D01*
X030535Y002245D01*
X030510Y002220D01*
X030535Y001245D02*
X030510Y001220D01*
X030510Y001120D01*
X030535Y001095D01*
X030585Y001095D01*
X030610Y001120D01*
X030658Y001120D02*
X030683Y001095D01*
X030733Y001095D01*
X030758Y001120D01*
X030758Y001145D01*
X030733Y001170D01*
X030708Y001170D01*
X030733Y001170D02*
X030758Y001195D01*
X030758Y001220D01*
X030733Y001245D01*
X030683Y001245D01*
X030658Y001220D01*
X030610Y001220D02*
X030585Y001245D01*
X030535Y001245D01*
D15*
X024620Y007740D02*
X024620Y007920D01*
X024620Y008560D02*
X024620Y008760D01*
X024620Y010240D02*
X024620Y010420D01*
X024620Y011060D02*
X024620Y011260D01*
D16*
X030625Y011215D02*
X030670Y011260D01*
X030760Y011260D01*
X030805Y011215D01*
X030805Y011170D01*
X030760Y011125D01*
X030670Y011125D01*
X030625Y011170D01*
X030625Y011215D01*
X030670Y011260D02*
X030625Y011305D01*
X030625Y011350D01*
X030670Y011395D01*
X030760Y011395D01*
X030805Y011350D01*
X030805Y011305D01*
X030760Y011260D01*
X030920Y011215D02*
X031100Y011395D01*
X031214Y011350D02*
X031259Y011395D01*
X031349Y011395D01*
X031394Y011350D01*
X031394Y011305D01*
X031214Y011125D01*
X031394Y011125D01*
X031100Y011125D02*
X030965Y011260D01*
X030920Y011395D02*
X030920Y011125D01*
X030965Y010395D02*
X031055Y010395D01*
X031100Y010350D01*
X030920Y010170D01*
X030965Y010125D01*
X031055Y010125D01*
X031100Y010170D01*
X031100Y010350D01*
X031214Y010350D02*
X031259Y010395D01*
X031349Y010395D01*
X031394Y010350D01*
X031214Y010170D01*
X031259Y010125D01*
X031349Y010125D01*
X031394Y010170D01*
X031394Y010350D01*
X031509Y010395D02*
X031509Y010125D01*
X031509Y010215D02*
X031689Y010395D01*
X031554Y010260D02*
X031689Y010125D01*
X031214Y010170D02*
X031214Y010350D01*
X030965Y010395D02*
X030920Y010350D01*
X030920Y010170D01*
X030805Y010125D02*
X030625Y010125D01*
X030715Y010125D02*
X030715Y010395D01*
X030625Y010305D01*
X030715Y009395D02*
X030715Y009125D01*
X030625Y009125D02*
X030805Y009125D01*
X030920Y009125D02*
X030920Y009395D01*
X030965Y009260D02*
X031100Y009125D01*
X030920Y009215D02*
X031100Y009395D01*
X030715Y009395D02*
X030625Y009305D01*
X030670Y008395D02*
X030625Y008350D01*
X030670Y008395D02*
X030760Y008395D01*
X030805Y008350D01*
X030805Y008305D01*
X030625Y008125D01*
X030805Y008125D01*
X030920Y008125D02*
X030920Y008170D01*
X031100Y008350D01*
X031100Y008395D01*
X030920Y008395D01*
X031214Y008350D02*
X031259Y008395D01*
X031349Y008395D01*
X031394Y008350D01*
X031214Y008170D01*
X031259Y008125D01*
X031349Y008125D01*
X031394Y008170D01*
X031394Y008350D01*
X031214Y008350D02*
X031214Y008170D01*
X031259Y007395D02*
X031349Y007395D01*
X031394Y007350D01*
X031214Y007170D01*
X031259Y007125D01*
X031349Y007125D01*
X031394Y007170D01*
X031394Y007350D01*
X031259Y007395D02*
X031214Y007350D01*
X031214Y007170D01*
X031100Y007350D02*
X030920Y007170D01*
X030920Y007125D01*
X030805Y007125D02*
X030625Y007125D01*
X030805Y007305D01*
X030805Y007350D01*
X030760Y007395D01*
X030670Y007395D01*
X030625Y007350D01*
X030920Y007395D02*
X031100Y007395D01*
X031100Y007350D01*
X031055Y006395D02*
X030965Y006395D01*
X030920Y006350D01*
X030920Y006170D01*
X031100Y006350D01*
X031100Y006170D01*
X031055Y006125D01*
X030965Y006125D01*
X030920Y006170D01*
X030805Y006125D02*
X030625Y006125D01*
X030715Y006125D02*
X030715Y006395D01*
X030625Y006305D01*
X031055Y006395D02*
X031100Y006350D01*
X031214Y006395D02*
X031214Y006125D01*
X031214Y006215D02*
X031394Y006395D01*
X031259Y006260D02*
X031394Y006125D01*
X031349Y005395D02*
X031394Y005350D01*
X031214Y005170D01*
X031259Y005125D01*
X031349Y005125D01*
X031394Y005170D01*
X031394Y005350D01*
X031349Y005395D02*
X031259Y005395D01*
X031214Y005350D01*
X031214Y005170D01*
X031100Y005170D02*
X031055Y005125D01*
X030965Y005125D01*
X030920Y005170D01*
X031100Y005350D01*
X031100Y005170D01*
X031100Y005350D02*
X031055Y005395D01*
X030965Y005395D01*
X030920Y005350D01*
X030920Y005170D01*
X030805Y005125D02*
X030625Y005125D01*
X030715Y005125D02*
X030715Y005395D01*
X030625Y005305D01*
X031509Y005215D02*
X031689Y005395D01*
X031509Y005395D02*
X031509Y005125D01*
X031554Y005260D02*
X031689Y005125D01*
X031689Y004395D02*
X031509Y004215D01*
X031554Y004260D02*
X031689Y004125D01*
X031509Y004125D02*
X031509Y004395D01*
X031394Y004350D02*
X031214Y004170D01*
X031259Y004125D01*
X031349Y004125D01*
X031394Y004170D01*
X031394Y004350D01*
X031349Y004395D01*
X031259Y004395D01*
X031214Y004350D01*
X031214Y004170D01*
X031100Y004170D02*
X031055Y004125D01*
X030965Y004125D01*
X030920Y004170D01*
X031100Y004350D01*
X031100Y004170D01*
X031100Y004350D02*
X031055Y004395D01*
X030965Y004395D01*
X030920Y004350D01*
X030920Y004170D01*
X030805Y004125D02*
X030625Y004125D01*
X030715Y004125D02*
X030715Y004395D01*
X030625Y004305D01*
X030670Y012125D02*
X030625Y012170D01*
X030670Y012125D02*
X030760Y012125D01*
X030805Y012170D01*
X030805Y012215D01*
X030760Y012260D01*
X030715Y012260D01*
X030760Y012260D02*
X030805Y012305D01*
X030805Y012350D01*
X030760Y012395D01*
X030670Y012395D01*
X030625Y012350D01*
X030920Y012395D02*
X030920Y012125D01*
X030920Y012215D02*
X031100Y012395D01*
X031214Y012350D02*
X031214Y012305D01*
X031259Y012260D01*
X031394Y012260D01*
X031394Y012170D02*
X031394Y012350D01*
X031349Y012395D01*
X031259Y012395D01*
X031214Y012350D01*
X031214Y012170D02*
X031259Y012125D01*
X031349Y012125D01*
X031394Y012170D01*
X031100Y012125D02*
X030965Y012260D01*
X030920Y013125D02*
X030920Y013395D01*
X030805Y013350D02*
X030760Y013395D01*
X030670Y013395D01*
X030625Y013350D01*
X030805Y013350D02*
X030805Y013305D01*
X030625Y013125D01*
X030805Y013125D01*
X030920Y013215D02*
X031100Y013395D01*
X031214Y013350D02*
X031259Y013395D01*
X031349Y013395D01*
X031394Y013350D01*
X031394Y013305D01*
X031214Y013125D01*
X031394Y013125D01*
X031100Y013125D02*
X030965Y013260D01*
X030920Y014125D02*
X030920Y014395D01*
X030965Y014260D02*
X031100Y014125D01*
X030920Y014215D02*
X031100Y014395D01*
X030715Y014395D02*
X030715Y014125D01*
X030625Y014125D02*
X030805Y014125D01*
X030625Y014305D02*
X030715Y014395D01*
M02*
