G75*
%MOIN*%
%OFA0B0*%
%FSLAX24Y24*%
%IPPOS*%
%LPD*%
%AMOC8*
5,1,8,0,0,1.08239X$1,22.5*
%
%ADD10C,0.0080*%
%ADD11C,0.0000*%
D10*
X021500Y001250D02*
X021500Y018750D01*
X021502Y018810D01*
X021507Y018871D01*
X021516Y018930D01*
X021529Y018989D01*
X021545Y019048D01*
X021565Y019105D01*
X021588Y019160D01*
X021615Y019215D01*
X021644Y019267D01*
X021677Y019318D01*
X021713Y019367D01*
X021751Y019413D01*
X021793Y019457D01*
X021837Y019499D01*
X021883Y019537D01*
X021932Y019573D01*
X021983Y019606D01*
X022035Y019635D01*
X022090Y019662D01*
X022145Y019685D01*
X022202Y019705D01*
X022261Y019721D01*
X022320Y019734D01*
X022379Y019743D01*
X022440Y019748D01*
X022500Y019750D01*
X034500Y019750D01*
X034560Y019748D01*
X034621Y019743D01*
X034680Y019734D01*
X034739Y019721D01*
X034798Y019705D01*
X034855Y019685D01*
X034910Y019662D01*
X034965Y019635D01*
X035017Y019606D01*
X035068Y019573D01*
X035117Y019537D01*
X035163Y019499D01*
X035207Y019457D01*
X035249Y019413D01*
X035287Y019367D01*
X035323Y019318D01*
X035356Y019267D01*
X035385Y019215D01*
X035412Y019160D01*
X035435Y019105D01*
X035455Y019048D01*
X035471Y018989D01*
X035484Y018930D01*
X035493Y018871D01*
X035498Y018810D01*
X035500Y018750D01*
X035500Y001250D01*
X035498Y001190D01*
X035493Y001129D01*
X035484Y001070D01*
X035471Y001011D01*
X035455Y000952D01*
X035435Y000895D01*
X035412Y000840D01*
X035385Y000785D01*
X035356Y000733D01*
X035323Y000682D01*
X035287Y000633D01*
X035249Y000587D01*
X035207Y000543D01*
X035163Y000501D01*
X035117Y000463D01*
X035068Y000427D01*
X035017Y000394D01*
X034965Y000365D01*
X034910Y000338D01*
X034855Y000315D01*
X034798Y000295D01*
X034739Y000279D01*
X034680Y000266D01*
X034621Y000257D01*
X034560Y000252D01*
X034500Y000250D01*
X022500Y000250D01*
X022440Y000252D01*
X022379Y000257D01*
X022320Y000266D01*
X022261Y000279D01*
X022202Y000295D01*
X022145Y000315D01*
X022090Y000338D01*
X022035Y000365D01*
X021983Y000394D01*
X021932Y000427D01*
X021883Y000463D01*
X021837Y000501D01*
X021793Y000543D01*
X021751Y000587D01*
X021713Y000633D01*
X021677Y000682D01*
X021644Y000733D01*
X021615Y000785D01*
X021588Y000840D01*
X021565Y000895D01*
X021545Y000952D01*
X021529Y001011D01*
X021516Y001070D01*
X021507Y001129D01*
X021502Y001190D01*
X021500Y001250D01*
D11*
X023008Y018750D02*
X023010Y018794D01*
X023016Y018838D01*
X023026Y018881D01*
X023039Y018923D01*
X023057Y018963D01*
X023078Y019002D01*
X023102Y019039D01*
X023129Y019074D01*
X023160Y019106D01*
X023193Y019135D01*
X023229Y019161D01*
X023267Y019183D01*
X023307Y019202D01*
X023348Y019218D01*
X023391Y019230D01*
X023434Y019238D01*
X023478Y019242D01*
X023522Y019242D01*
X023566Y019238D01*
X023609Y019230D01*
X023652Y019218D01*
X023693Y019202D01*
X023733Y019183D01*
X023771Y019161D01*
X023807Y019135D01*
X023840Y019106D01*
X023871Y019074D01*
X023898Y019039D01*
X023922Y019002D01*
X023943Y018963D01*
X023961Y018923D01*
X023974Y018881D01*
X023984Y018838D01*
X023990Y018794D01*
X023992Y018750D01*
X023990Y018706D01*
X023984Y018662D01*
X023974Y018619D01*
X023961Y018577D01*
X023943Y018537D01*
X023922Y018498D01*
X023898Y018461D01*
X023871Y018426D01*
X023840Y018394D01*
X023807Y018365D01*
X023771Y018339D01*
X023733Y018317D01*
X023693Y018298D01*
X023652Y018282D01*
X023609Y018270D01*
X023566Y018262D01*
X023522Y018258D01*
X023478Y018258D01*
X023434Y018262D01*
X023391Y018270D01*
X023348Y018282D01*
X023307Y018298D01*
X023267Y018317D01*
X023229Y018339D01*
X023193Y018365D01*
X023160Y018394D01*
X023129Y018426D01*
X023102Y018461D01*
X023078Y018498D01*
X023057Y018537D01*
X023039Y018577D01*
X023026Y018619D01*
X023016Y018662D01*
X023010Y018706D01*
X023008Y018750D01*
X033008Y018750D02*
X033010Y018794D01*
X033016Y018838D01*
X033026Y018881D01*
X033039Y018923D01*
X033057Y018963D01*
X033078Y019002D01*
X033102Y019039D01*
X033129Y019074D01*
X033160Y019106D01*
X033193Y019135D01*
X033229Y019161D01*
X033267Y019183D01*
X033307Y019202D01*
X033348Y019218D01*
X033391Y019230D01*
X033434Y019238D01*
X033478Y019242D01*
X033522Y019242D01*
X033566Y019238D01*
X033609Y019230D01*
X033652Y019218D01*
X033693Y019202D01*
X033733Y019183D01*
X033771Y019161D01*
X033807Y019135D01*
X033840Y019106D01*
X033871Y019074D01*
X033898Y019039D01*
X033922Y019002D01*
X033943Y018963D01*
X033961Y018923D01*
X033974Y018881D01*
X033984Y018838D01*
X033990Y018794D01*
X033992Y018750D01*
X033990Y018706D01*
X033984Y018662D01*
X033974Y018619D01*
X033961Y018577D01*
X033943Y018537D01*
X033922Y018498D01*
X033898Y018461D01*
X033871Y018426D01*
X033840Y018394D01*
X033807Y018365D01*
X033771Y018339D01*
X033733Y018317D01*
X033693Y018298D01*
X033652Y018282D01*
X033609Y018270D01*
X033566Y018262D01*
X033522Y018258D01*
X033478Y018258D01*
X033434Y018262D01*
X033391Y018270D01*
X033348Y018282D01*
X033307Y018298D01*
X033267Y018317D01*
X033229Y018339D01*
X033193Y018365D01*
X033160Y018394D01*
X033129Y018426D01*
X033102Y018461D01*
X033078Y018498D01*
X033057Y018537D01*
X033039Y018577D01*
X033026Y018619D01*
X033016Y018662D01*
X033010Y018706D01*
X033008Y018750D01*
M02*
