G75*
%MOIN*%
%OFA0B0*%
%FSLAX24Y24*%
%IPPOS*%
%LPD*%
%AMOC8*
5,1,8,0,0,1.08239X$1,22.5*
%
%ADD10C,0.0080*%
%ADD11C,0.0000*%
%ADD12C,0.0650*%
%ADD13R,0.0650X0.0650*%
%ADD14C,0.0740*%
%ADD15OC8,0.0740*%
%ADD16C,0.0100*%
D10*
X021500Y001250D02*
X021500Y018750D01*
X021502Y018810D01*
X021507Y018871D01*
X021516Y018930D01*
X021529Y018989D01*
X021545Y019048D01*
X021565Y019105D01*
X021588Y019160D01*
X021615Y019215D01*
X021644Y019267D01*
X021677Y019318D01*
X021713Y019367D01*
X021751Y019413D01*
X021793Y019457D01*
X021837Y019499D01*
X021883Y019537D01*
X021932Y019573D01*
X021983Y019606D01*
X022035Y019635D01*
X022090Y019662D01*
X022145Y019685D01*
X022202Y019705D01*
X022261Y019721D01*
X022320Y019734D01*
X022379Y019743D01*
X022440Y019748D01*
X022500Y019750D01*
X034500Y019750D01*
X034560Y019748D01*
X034621Y019743D01*
X034680Y019734D01*
X034739Y019721D01*
X034798Y019705D01*
X034855Y019685D01*
X034910Y019662D01*
X034965Y019635D01*
X035017Y019606D01*
X035068Y019573D01*
X035117Y019537D01*
X035163Y019499D01*
X035207Y019457D01*
X035249Y019413D01*
X035287Y019367D01*
X035323Y019318D01*
X035356Y019267D01*
X035385Y019215D01*
X035412Y019160D01*
X035435Y019105D01*
X035455Y019048D01*
X035471Y018989D01*
X035484Y018930D01*
X035493Y018871D01*
X035498Y018810D01*
X035500Y018750D01*
X035500Y001250D01*
X035498Y001190D01*
X035493Y001129D01*
X035484Y001070D01*
X035471Y001011D01*
X035455Y000952D01*
X035435Y000895D01*
X035412Y000840D01*
X035385Y000785D01*
X035356Y000733D01*
X035323Y000682D01*
X035287Y000633D01*
X035249Y000587D01*
X035207Y000543D01*
X035163Y000501D01*
X035117Y000463D01*
X035068Y000427D01*
X035017Y000394D01*
X034965Y000365D01*
X034910Y000338D01*
X034855Y000315D01*
X034798Y000295D01*
X034739Y000279D01*
X034680Y000266D01*
X034621Y000257D01*
X034560Y000252D01*
X034500Y000250D01*
X022500Y000250D01*
X022440Y000252D01*
X022379Y000257D01*
X022320Y000266D01*
X022261Y000279D01*
X022202Y000295D01*
X022145Y000315D01*
X022090Y000338D01*
X022035Y000365D01*
X021983Y000394D01*
X021932Y000427D01*
X021883Y000463D01*
X021837Y000501D01*
X021793Y000543D01*
X021751Y000587D01*
X021713Y000633D01*
X021677Y000682D01*
X021644Y000733D01*
X021615Y000785D01*
X021588Y000840D01*
X021565Y000895D01*
X021545Y000952D01*
X021529Y001011D01*
X021516Y001070D01*
X021507Y001129D01*
X021502Y001190D01*
X021500Y001250D01*
D11*
X023008Y018750D02*
X023010Y018794D01*
X023016Y018838D01*
X023026Y018881D01*
X023039Y018923D01*
X023057Y018963D01*
X023078Y019002D01*
X023102Y019039D01*
X023129Y019074D01*
X023160Y019106D01*
X023193Y019135D01*
X023229Y019161D01*
X023267Y019183D01*
X023307Y019202D01*
X023348Y019218D01*
X023391Y019230D01*
X023434Y019238D01*
X023478Y019242D01*
X023522Y019242D01*
X023566Y019238D01*
X023609Y019230D01*
X023652Y019218D01*
X023693Y019202D01*
X023733Y019183D01*
X023771Y019161D01*
X023807Y019135D01*
X023840Y019106D01*
X023871Y019074D01*
X023898Y019039D01*
X023922Y019002D01*
X023943Y018963D01*
X023961Y018923D01*
X023974Y018881D01*
X023984Y018838D01*
X023990Y018794D01*
X023992Y018750D01*
X023990Y018706D01*
X023984Y018662D01*
X023974Y018619D01*
X023961Y018577D01*
X023943Y018537D01*
X023922Y018498D01*
X023898Y018461D01*
X023871Y018426D01*
X023840Y018394D01*
X023807Y018365D01*
X023771Y018339D01*
X023733Y018317D01*
X023693Y018298D01*
X023652Y018282D01*
X023609Y018270D01*
X023566Y018262D01*
X023522Y018258D01*
X023478Y018258D01*
X023434Y018262D01*
X023391Y018270D01*
X023348Y018282D01*
X023307Y018298D01*
X023267Y018317D01*
X023229Y018339D01*
X023193Y018365D01*
X023160Y018394D01*
X023129Y018426D01*
X023102Y018461D01*
X023078Y018498D01*
X023057Y018537D01*
X023039Y018577D01*
X023026Y018619D01*
X023016Y018662D01*
X023010Y018706D01*
X023008Y018750D01*
X033008Y018750D02*
X033010Y018794D01*
X033016Y018838D01*
X033026Y018881D01*
X033039Y018923D01*
X033057Y018963D01*
X033078Y019002D01*
X033102Y019039D01*
X033129Y019074D01*
X033160Y019106D01*
X033193Y019135D01*
X033229Y019161D01*
X033267Y019183D01*
X033307Y019202D01*
X033348Y019218D01*
X033391Y019230D01*
X033434Y019238D01*
X033478Y019242D01*
X033522Y019242D01*
X033566Y019238D01*
X033609Y019230D01*
X033652Y019218D01*
X033693Y019202D01*
X033733Y019183D01*
X033771Y019161D01*
X033807Y019135D01*
X033840Y019106D01*
X033871Y019074D01*
X033898Y019039D01*
X033922Y019002D01*
X033943Y018963D01*
X033961Y018923D01*
X033974Y018881D01*
X033984Y018838D01*
X033990Y018794D01*
X033992Y018750D01*
X033990Y018706D01*
X033984Y018662D01*
X033974Y018619D01*
X033961Y018577D01*
X033943Y018537D01*
X033922Y018498D01*
X033898Y018461D01*
X033871Y018426D01*
X033840Y018394D01*
X033807Y018365D01*
X033771Y018339D01*
X033733Y018317D01*
X033693Y018298D01*
X033652Y018282D01*
X033609Y018270D01*
X033566Y018262D01*
X033522Y018258D01*
X033478Y018258D01*
X033434Y018262D01*
X033391Y018270D01*
X033348Y018282D01*
X033307Y018298D01*
X033267Y018317D01*
X033229Y018339D01*
X033193Y018365D01*
X033160Y018394D01*
X033129Y018426D01*
X033102Y018461D01*
X033078Y018498D01*
X033057Y018537D01*
X033039Y018577D01*
X033026Y018619D01*
X033016Y018662D01*
X033010Y018706D01*
X033008Y018750D01*
D12*
X031000Y002750D03*
X030000Y002750D03*
X030000Y001750D03*
X031000Y001750D03*
X024000Y001750D03*
D13*
X025000Y001750D03*
D14*
X026500Y001250D03*
X026500Y002250D03*
X026500Y003250D03*
X026500Y004250D03*
X026500Y005250D03*
X025250Y005250D03*
X024500Y005750D03*
X024500Y004750D03*
X022500Y004250D03*
X022500Y003250D03*
X022500Y005250D03*
X026500Y006250D03*
X026500Y007250D03*
X026500Y008250D03*
X026500Y009250D03*
X026500Y010250D03*
X026500Y011250D03*
X026500Y012250D03*
X026500Y013250D03*
X026500Y014250D03*
X026500Y015250D03*
X026500Y016250D03*
X028500Y014250D03*
X028500Y013250D03*
X028500Y012250D03*
X028500Y011250D03*
X028500Y010250D03*
X028500Y009250D03*
X028500Y008250D03*
X028500Y007250D03*
X028500Y006250D03*
X028500Y005250D03*
X028500Y004250D03*
X032500Y004250D03*
X032500Y005250D03*
X032500Y006250D03*
X032500Y007250D03*
X032500Y008250D03*
X032500Y009250D03*
X032500Y010250D03*
X032500Y011250D03*
X032500Y012250D03*
X032500Y013250D03*
X032500Y014250D03*
X034500Y014250D03*
X034500Y013250D03*
X034500Y012250D03*
X034500Y011250D03*
X034500Y010250D03*
X034500Y009250D03*
X034500Y008250D03*
X034500Y007250D03*
X034500Y006250D03*
X034500Y005250D03*
X034500Y004250D03*
X034500Y003250D03*
X034500Y002250D03*
X034500Y001250D03*
X024500Y008250D03*
X023500Y008250D03*
X023500Y010750D03*
X024500Y010750D03*
X034500Y015250D03*
X034500Y016250D03*
X022500Y016750D03*
X022500Y017750D03*
D15*
X023500Y015250D03*
X024500Y015250D03*
X024500Y014250D03*
X023500Y014250D03*
X023500Y013250D03*
X024500Y013250D03*
D16*
X023500Y013250D01*
X023550Y013269D02*
X024450Y013269D01*
X024450Y013300D02*
X024450Y013200D01*
X024550Y013200D01*
X024550Y013300D01*
X024450Y013300D01*
X024450Y013770D01*
X024285Y013770D01*
X024000Y013485D01*
X023715Y013770D01*
X023550Y013770D01*
X023550Y013300D01*
X023450Y013300D01*
X023450Y013770D01*
X023285Y013770D01*
X022980Y013465D01*
X022980Y013300D01*
X023450Y013300D01*
X023450Y013200D01*
X022980Y013200D01*
X022980Y013035D01*
X023285Y012730D01*
X023450Y012730D01*
X023450Y013200D01*
X023550Y013200D01*
X023550Y013300D01*
X024450Y013300D01*
X024450Y013368D02*
X024550Y013368D01*
X024550Y013300D02*
X024550Y013770D01*
X024715Y013770D01*
X025020Y013465D01*
X025020Y013300D01*
X024550Y013300D01*
X024550Y013269D02*
X025307Y013269D01*
X025350Y013312D02*
X024350Y012312D01*
X024350Y011812D01*
X023710Y011172D01*
X023593Y011220D01*
X023407Y011220D01*
X023234Y011148D01*
X023102Y011016D01*
X023030Y010843D01*
X023030Y010657D01*
X023102Y010484D01*
X023234Y010352D01*
X023407Y010280D01*
X023593Y010280D01*
X023766Y010352D01*
X023898Y010484D01*
X023970Y010657D01*
X023970Y010843D01*
X023922Y010960D01*
X024562Y011600D01*
X024650Y011688D01*
X024650Y012188D01*
X025562Y013100D01*
X025650Y013188D01*
X025650Y014188D01*
X026062Y014600D01*
X026185Y014600D01*
X026102Y014516D01*
X026030Y014343D01*
X026030Y014157D01*
X026102Y013984D01*
X026234Y013852D01*
X026407Y013780D01*
X026593Y013780D01*
X026766Y013852D01*
X026898Y013984D01*
X026970Y014157D01*
X026970Y014343D01*
X026898Y014516D01*
X026815Y014600D01*
X027062Y014600D01*
X027150Y014688D01*
X028062Y015600D01*
X034185Y015600D01*
X034102Y015516D01*
X034030Y015343D01*
X034030Y015157D01*
X034102Y014984D01*
X034234Y014852D01*
X034407Y014780D01*
X034593Y014780D01*
X034766Y014852D01*
X034850Y014935D01*
X034850Y014565D01*
X034766Y014648D01*
X034593Y014720D01*
X034407Y014720D01*
X034234Y014648D01*
X034102Y014516D01*
X034056Y014406D01*
X033062Y015400D01*
X027938Y015400D01*
X027850Y015312D01*
X027350Y014812D01*
X027350Y014188D01*
X027438Y014100D01*
X027938Y013600D01*
X028185Y013600D01*
X028102Y013516D01*
X028030Y013343D01*
X028030Y013157D01*
X028102Y012984D01*
X028234Y012852D01*
X028407Y012780D01*
X028593Y012780D01*
X028766Y012852D01*
X028898Y012984D01*
X028970Y013157D01*
X028970Y013343D01*
X028898Y013516D01*
X028815Y013600D01*
X029438Y013600D01*
X030850Y012188D01*
X030850Y010312D01*
X029438Y008900D01*
X028885Y008900D01*
X028897Y008911D01*
X028945Y008977D01*
X028982Y009050D01*
X029007Y009128D01*
X029020Y009209D01*
X029020Y009211D01*
X028539Y009211D01*
X028539Y009289D01*
X028461Y009289D01*
X028461Y009770D01*
X028459Y009770D01*
X028378Y009757D01*
X028300Y009732D01*
X028227Y009695D01*
X028161Y009647D01*
X028103Y009589D01*
X028055Y009523D01*
X028018Y009450D01*
X027993Y009372D01*
X027980Y009291D01*
X027980Y009289D01*
X028461Y009289D01*
X028461Y009211D01*
X027980Y009211D01*
X027980Y009209D01*
X027993Y009128D01*
X028018Y009050D01*
X028055Y008977D01*
X028103Y008911D01*
X028115Y008900D01*
X026815Y008900D01*
X026898Y008984D01*
X026970Y009157D01*
X026970Y009343D01*
X026898Y009516D01*
X026815Y009600D01*
X027062Y009600D01*
X027562Y010100D01*
X028053Y010100D01*
X028102Y009984D01*
X028234Y009852D01*
X028407Y009780D01*
X028593Y009780D01*
X028766Y009852D01*
X028898Y009984D01*
X028970Y010157D01*
X028970Y010343D01*
X028898Y010516D01*
X028766Y010648D01*
X028593Y010720D01*
X028407Y010720D01*
X028234Y010648D01*
X028102Y010516D01*
X028053Y010400D01*
X027438Y010400D01*
X026938Y009900D01*
X026815Y009900D01*
X026898Y009984D01*
X026970Y010157D01*
X026970Y010343D01*
X026898Y010516D01*
X026766Y010648D01*
X026593Y010720D01*
X026407Y010720D01*
X026234Y010648D01*
X026102Y010516D01*
X026030Y010343D01*
X026030Y010157D01*
X026102Y009984D01*
X026185Y009900D01*
X023562Y009900D01*
X022650Y010812D01*
X022650Y014188D01*
X023062Y014600D01*
X023185Y014600D01*
X023030Y014445D01*
X023030Y014055D01*
X023305Y013780D01*
X023695Y013780D01*
X023970Y014055D01*
X023970Y014445D01*
X023815Y014600D01*
X024062Y014600D01*
X024274Y014812D01*
X024305Y014780D01*
X024695Y014780D01*
X024970Y015055D01*
X024970Y015445D01*
X024695Y015720D01*
X024305Y015720D01*
X024030Y015445D01*
X024030Y015055D01*
X024062Y015024D01*
X023938Y014900D01*
X023815Y014900D01*
X023970Y015055D01*
X023970Y015445D01*
X023695Y015720D01*
X023305Y015720D01*
X023030Y015445D01*
X023030Y015055D01*
X023185Y014900D01*
X022938Y014900D01*
X022850Y014812D01*
X022350Y014312D01*
X022350Y010688D01*
X022438Y010600D01*
X023288Y009750D01*
X022438Y008900D01*
X022438Y008900D01*
X022350Y008812D01*
X022350Y008188D01*
X022438Y008100D01*
X023850Y006688D01*
X023850Y003688D01*
X023938Y003600D01*
X024850Y002688D01*
X024850Y002175D01*
X024650Y002175D01*
X024650Y002312D01*
X024562Y002400D01*
X022562Y002400D01*
X022150Y002812D01*
X022150Y002935D01*
X022234Y002852D01*
X022407Y002780D01*
X022593Y002780D01*
X022766Y002852D01*
X022898Y002984D01*
X022970Y003157D01*
X022970Y003343D01*
X022898Y003516D01*
X022766Y003648D01*
X022593Y003720D01*
X022407Y003720D01*
X022234Y003648D01*
X022150Y003565D01*
X022150Y003935D01*
X022234Y003852D01*
X022407Y003780D01*
X022593Y003780D01*
X022766Y003852D01*
X022898Y003984D01*
X022970Y004157D01*
X022970Y004343D01*
X022898Y004516D01*
X022766Y004648D01*
X022593Y004720D01*
X022407Y004720D01*
X022234Y004648D01*
X022150Y004565D01*
X022150Y004935D01*
X022234Y004852D01*
X022407Y004780D01*
X022593Y004780D01*
X022766Y004852D01*
X022898Y004984D01*
X022970Y005157D01*
X022970Y005343D01*
X022898Y005516D01*
X022766Y005648D01*
X022593Y005720D01*
X022407Y005720D01*
X022234Y005648D01*
X022150Y005565D01*
X022150Y015188D01*
X023062Y016100D01*
X024938Y016100D01*
X025350Y015688D01*
X025350Y015312D01*
X024726Y014688D01*
X024695Y014720D01*
X024305Y014720D01*
X024030Y014445D01*
X024030Y014055D01*
X024305Y013780D01*
X024695Y013780D01*
X024970Y014055D01*
X024970Y014445D01*
X024938Y014476D01*
X025562Y015100D01*
X025650Y015188D01*
X025650Y015812D01*
X025150Y016312D01*
X025062Y016400D01*
X022938Y016400D01*
X021938Y015400D01*
X021850Y015312D01*
X021850Y002688D01*
X022350Y002188D01*
X022438Y002100D01*
X023749Y002100D01*
X023640Y001991D01*
X023575Y001835D01*
X023575Y001665D01*
X023640Y001509D01*
X023759Y001390D01*
X023850Y001352D01*
X023850Y001188D01*
X023938Y001100D01*
X024438Y000600D01*
X031062Y000600D01*
X031150Y000688D01*
X031562Y001100D01*
X031650Y001188D01*
X031650Y002312D01*
X031387Y002575D01*
X031425Y002665D01*
X031425Y002835D01*
X031360Y002991D01*
X031241Y003110D01*
X031150Y003148D01*
X031150Y004688D01*
X032062Y005600D01*
X032185Y005600D01*
X032102Y005516D01*
X032030Y005343D01*
X032030Y005157D01*
X032102Y004984D01*
X032234Y004852D01*
X032407Y004780D01*
X032593Y004780D01*
X032766Y004852D01*
X032898Y004984D01*
X032970Y005157D01*
X032970Y005343D01*
X032898Y005516D01*
X032815Y005600D01*
X033062Y005600D01*
X033562Y006100D01*
X033650Y006188D01*
X033650Y007312D01*
X032922Y008040D01*
X032970Y008157D01*
X032970Y008343D01*
X032922Y008460D01*
X033650Y009188D01*
X033650Y010312D01*
X033562Y010400D01*
X032922Y011040D01*
X032970Y011157D01*
X032970Y011343D01*
X032898Y011516D01*
X032766Y011648D01*
X032650Y011697D01*
X032650Y011803D01*
X032766Y011852D01*
X032898Y011984D01*
X032970Y012157D01*
X032970Y012343D01*
X032898Y012516D01*
X032766Y012648D01*
X032650Y012697D01*
X032650Y012803D01*
X032766Y012852D01*
X032898Y012984D01*
X032970Y013157D01*
X032970Y013343D01*
X032898Y013516D01*
X032766Y013648D01*
X032650Y013697D01*
X032650Y013803D01*
X032766Y013852D01*
X032898Y013984D01*
X032970Y014157D01*
X032970Y014343D01*
X032898Y014516D01*
X032815Y014600D01*
X032938Y014600D01*
X033350Y014188D01*
X033350Y010688D01*
X033850Y010188D01*
X033938Y010100D01*
X034053Y010100D01*
X034102Y009984D01*
X034234Y009852D01*
X034407Y009780D01*
X034593Y009780D01*
X034766Y009852D01*
X034898Y009984D01*
X034970Y010157D01*
X034970Y010343D01*
X034898Y010516D01*
X034766Y010648D01*
X034593Y010720D01*
X034407Y010720D01*
X034234Y010648D01*
X034102Y010516D01*
X034056Y010406D01*
X033650Y010812D01*
X033650Y014312D01*
X033562Y014400D01*
X033062Y014900D01*
X031938Y014900D01*
X031850Y014812D01*
X031438Y014400D01*
X028947Y014400D01*
X028898Y014516D01*
X028766Y014648D01*
X028593Y014720D01*
X028407Y014720D01*
X028234Y014648D01*
X028102Y014516D01*
X028030Y014343D01*
X028030Y014157D01*
X028102Y013984D01*
X028185Y013900D01*
X028062Y013900D01*
X027650Y014312D01*
X027650Y014688D01*
X028062Y015100D01*
X032938Y015100D01*
X033850Y014188D01*
X033850Y011688D01*
X033938Y011600D01*
X034078Y011460D01*
X034030Y011343D01*
X034030Y011157D01*
X034102Y010984D01*
X034234Y010852D01*
X034407Y010780D01*
X034593Y010780D01*
X034766Y010852D01*
X034898Y010984D01*
X034970Y011157D01*
X034970Y011343D01*
X034898Y011516D01*
X034766Y011648D01*
X034593Y011720D01*
X034407Y011720D01*
X034290Y011672D01*
X034150Y011812D01*
X034150Y011935D01*
X034234Y011852D01*
X034407Y011780D01*
X034593Y011780D01*
X034766Y011852D01*
X034898Y011984D01*
X034970Y012157D01*
X034970Y012343D01*
X034922Y012460D01*
X035150Y012688D01*
X035150Y015812D01*
X035062Y015900D01*
X034815Y015900D01*
X034898Y015984D01*
X034970Y016157D01*
X034970Y016343D01*
X034898Y016516D01*
X034766Y016648D01*
X034593Y016720D01*
X034407Y016720D01*
X034234Y016648D01*
X034102Y016516D01*
X034030Y016343D01*
X034030Y016157D01*
X034102Y015984D01*
X034185Y015900D01*
X027938Y015900D01*
X027850Y015812D01*
X026938Y014900D01*
X026815Y014900D01*
X026898Y014984D01*
X026970Y015157D01*
X026970Y015343D01*
X026898Y015516D01*
X026766Y015648D01*
X026593Y015720D01*
X026407Y015720D01*
X026234Y015648D01*
X026102Y015516D01*
X026030Y015343D01*
X026030Y015157D01*
X026102Y014984D01*
X026185Y014900D01*
X025938Y014900D01*
X025350Y014312D01*
X025350Y013312D01*
X025350Y013368D02*
X025020Y013368D01*
X025019Y013466D02*
X025350Y013466D01*
X025350Y013565D02*
X024921Y013565D01*
X024822Y013663D02*
X025350Y013663D01*
X025350Y013762D02*
X024724Y013762D01*
X024775Y013860D02*
X025350Y013860D01*
X025350Y013959D02*
X024873Y013959D01*
X024970Y014057D02*
X025350Y014057D01*
X025350Y014156D02*
X024970Y014156D01*
X024970Y014254D02*
X025350Y014254D01*
X025390Y014353D02*
X024970Y014353D01*
X024964Y014451D02*
X025489Y014451D01*
X025587Y014550D02*
X025012Y014550D01*
X025110Y014648D02*
X025686Y014648D01*
X025784Y014747D02*
X025209Y014747D01*
X025307Y014845D02*
X025883Y014845D01*
X026000Y014750D02*
X025500Y014250D01*
X025500Y013250D01*
X024500Y012250D01*
X024500Y011750D01*
X023500Y010750D01*
X023056Y010905D02*
X022650Y010905D01*
X022650Y011004D02*
X023096Y011004D01*
X023187Y011102D02*
X022650Y011102D01*
X022650Y011201D02*
X023360Y011201D01*
X023640Y011201D02*
X023738Y011201D01*
X023837Y011299D02*
X022650Y011299D01*
X022650Y011398D02*
X023935Y011398D01*
X024034Y011496D02*
X022650Y011496D01*
X022650Y011595D02*
X024132Y011595D01*
X024231Y011693D02*
X022650Y011693D01*
X022650Y011792D02*
X024329Y011792D01*
X024350Y011890D02*
X022650Y011890D01*
X022650Y011989D02*
X024350Y011989D01*
X024350Y012087D02*
X022650Y012087D01*
X022650Y012186D02*
X024350Y012186D01*
X024350Y012284D02*
X022650Y012284D01*
X022650Y012383D02*
X024420Y012383D01*
X024519Y012481D02*
X022650Y012481D01*
X022650Y012580D02*
X024617Y012580D01*
X024716Y012678D02*
X022650Y012678D01*
X022650Y012777D02*
X023238Y012777D01*
X023140Y012875D02*
X022650Y012875D01*
X022650Y012974D02*
X023041Y012974D01*
X022980Y013072D02*
X022650Y013072D01*
X022650Y013171D02*
X022980Y013171D01*
X022980Y013368D02*
X022650Y013368D01*
X022650Y013466D02*
X022981Y013466D01*
X023079Y013565D02*
X022650Y013565D01*
X022650Y013663D02*
X023178Y013663D01*
X023276Y013762D02*
X022650Y013762D01*
X022650Y013860D02*
X023225Y013860D01*
X023127Y013959D02*
X022650Y013959D01*
X022650Y014057D02*
X023030Y014057D01*
X023030Y014156D02*
X022650Y014156D01*
X022716Y014254D02*
X023030Y014254D01*
X023030Y014353D02*
X022815Y014353D01*
X022913Y014451D02*
X023036Y014451D01*
X023012Y014550D02*
X023135Y014550D01*
X023000Y014750D02*
X024000Y014750D01*
X024500Y015250D01*
X024030Y015239D02*
X023970Y015239D01*
X023970Y015141D02*
X024030Y015141D01*
X024043Y015042D02*
X023957Y015042D01*
X023981Y014944D02*
X023858Y014944D01*
X024209Y014747D02*
X024784Y014747D01*
X024760Y014845D02*
X024883Y014845D01*
X024858Y014944D02*
X024981Y014944D01*
X024957Y015042D02*
X025080Y015042D01*
X025178Y015141D02*
X024970Y015141D01*
X024970Y015239D02*
X025277Y015239D01*
X025350Y015338D02*
X024970Y015338D01*
X024970Y015436D02*
X025350Y015436D01*
X025350Y015535D02*
X024880Y015535D01*
X024782Y015633D02*
X025350Y015633D01*
X025306Y015732D02*
X022694Y015732D01*
X022792Y015830D02*
X025208Y015830D01*
X025109Y015929D02*
X022891Y015929D01*
X022989Y016027D02*
X025011Y016027D01*
X025000Y016250D02*
X023000Y016250D01*
X022000Y015250D01*
X022000Y002750D01*
X022500Y002250D01*
X024500Y002250D01*
X024500Y001250D01*
X025500Y001250D01*
X025500Y003750D01*
X024500Y004750D01*
X024922Y004540D02*
X024970Y004657D01*
X024970Y004843D01*
X024955Y004881D01*
X024984Y004852D01*
X025157Y004780D01*
X025343Y004780D01*
X025516Y004852D01*
X025648Y004984D01*
X025720Y005157D01*
X025720Y005343D01*
X025672Y005460D01*
X025812Y005600D01*
X026185Y005600D01*
X026102Y005516D01*
X026030Y005343D01*
X026030Y005157D01*
X026102Y004984D01*
X026234Y004852D01*
X026407Y004780D01*
X026593Y004780D01*
X026766Y004852D01*
X026898Y004984D01*
X026970Y005157D01*
X026970Y005343D01*
X026898Y005516D01*
X026815Y005600D01*
X027062Y005600D01*
X027150Y005688D01*
X027562Y006100D01*
X028053Y006100D01*
X028102Y005984D01*
X028234Y005852D01*
X028407Y005780D01*
X028593Y005780D01*
X028766Y005852D01*
X028898Y005984D01*
X028970Y006157D01*
X028970Y006343D01*
X028898Y006516D01*
X028766Y006648D01*
X028593Y006720D01*
X028407Y006720D01*
X028234Y006648D01*
X028102Y006516D01*
X028053Y006400D01*
X027438Y006400D01*
X027350Y006312D01*
X026938Y005900D01*
X026815Y005900D01*
X026898Y005984D01*
X026970Y006157D01*
X026970Y006343D01*
X026898Y006516D01*
X026766Y006648D01*
X026593Y006720D01*
X026407Y006720D01*
X026234Y006648D01*
X026102Y006516D01*
X026030Y006343D01*
X026030Y006157D01*
X026102Y005984D01*
X026185Y005900D01*
X025688Y005900D01*
X025460Y005672D01*
X025343Y005720D01*
X025157Y005720D01*
X025012Y005660D01*
X025020Y005709D01*
X025020Y005720D01*
X024530Y005720D01*
X024530Y005780D01*
X024470Y005780D01*
X024470Y006270D01*
X024459Y006270D01*
X024378Y006257D01*
X024300Y006232D01*
X024227Y006195D01*
X024161Y006147D01*
X024150Y006135D01*
X024150Y006812D01*
X022650Y008312D01*
X022650Y008688D01*
X023562Y009600D01*
X026185Y009600D01*
X026102Y009516D01*
X026030Y009343D01*
X026030Y009157D01*
X026102Y008984D01*
X026185Y008900D01*
X023938Y008900D01*
X023710Y008672D01*
X023593Y008720D01*
X023407Y008720D01*
X023234Y008648D01*
X023102Y008516D01*
X023030Y008343D01*
X023030Y008157D01*
X023102Y007984D01*
X023234Y007852D01*
X023111Y007852D01*
X023135Y007950D02*
X023012Y007950D01*
X023075Y008049D02*
X022914Y008049D01*
X022815Y008147D02*
X023034Y008147D01*
X023030Y008246D02*
X022717Y008246D01*
X022650Y008344D02*
X023030Y008344D01*
X023071Y008443D02*
X022650Y008443D01*
X022650Y008541D02*
X023126Y008541D01*
X023225Y008640D02*
X022650Y008640D01*
X022700Y008738D02*
X023776Y008738D01*
X023874Y008837D02*
X022799Y008837D01*
X022897Y008935D02*
X026150Y008935D01*
X026081Y009034D02*
X022996Y009034D01*
X023094Y009132D02*
X026040Y009132D01*
X026030Y009231D02*
X023193Y009231D01*
X023291Y009329D02*
X026030Y009329D01*
X026065Y009428D02*
X023390Y009428D01*
X023488Y009526D02*
X026111Y009526D01*
X026165Y009920D02*
X023542Y009920D01*
X023444Y010019D02*
X026087Y010019D01*
X026046Y010117D02*
X023345Y010117D01*
X023247Y010216D02*
X026030Y010216D01*
X026030Y010314D02*
X024676Y010314D01*
X024593Y010280D02*
X024766Y010352D01*
X024898Y010484D01*
X024970Y010657D01*
X024970Y010843D01*
X024898Y011016D01*
X024766Y011148D01*
X024593Y011220D01*
X024407Y011220D01*
X024234Y011148D01*
X024102Y011016D01*
X024030Y010843D01*
X024030Y010657D01*
X024102Y010484D01*
X024234Y010352D01*
X024407Y010280D01*
X024593Y010280D01*
X024827Y010413D02*
X026059Y010413D01*
X026099Y010511D02*
X024910Y010511D01*
X024951Y010610D02*
X026195Y010610D01*
X026378Y010708D02*
X024970Y010708D01*
X024970Y010807D02*
X026342Y010807D01*
X026407Y010780D02*
X026234Y010852D01*
X026102Y010984D01*
X026030Y011157D01*
X026030Y011343D01*
X026102Y011516D01*
X026234Y011648D01*
X026407Y011720D01*
X026593Y011720D01*
X026766Y011648D01*
X026898Y011516D01*
X026970Y011343D01*
X026970Y011157D01*
X026898Y010984D01*
X026766Y010852D01*
X026593Y010780D01*
X026407Y010780D01*
X026622Y010708D02*
X028378Y010708D01*
X028407Y010780D02*
X028593Y010780D01*
X028766Y010852D01*
X028898Y010984D01*
X028970Y011157D01*
X028970Y011343D01*
X028898Y011516D01*
X028766Y011648D01*
X028593Y011720D01*
X028407Y011720D01*
X028234Y011648D01*
X028102Y011516D01*
X028030Y011343D01*
X028030Y011157D01*
X028102Y010984D01*
X028234Y010852D01*
X028407Y010780D01*
X028342Y010807D02*
X026658Y010807D01*
X026820Y010905D02*
X028180Y010905D01*
X028093Y011004D02*
X026907Y011004D01*
X026947Y011102D02*
X028053Y011102D01*
X028030Y011201D02*
X026970Y011201D01*
X026970Y011299D02*
X028030Y011299D01*
X028052Y011398D02*
X026948Y011398D01*
X026907Y011496D02*
X028093Y011496D01*
X028180Y011595D02*
X026820Y011595D01*
X026659Y011693D02*
X028341Y011693D01*
X028379Y011792D02*
X026621Y011792D01*
X026593Y011780D02*
X026766Y011852D01*
X026898Y011984D01*
X026970Y012157D01*
X026970Y012343D01*
X026898Y012516D01*
X026766Y012648D01*
X026593Y012720D01*
X026407Y012720D01*
X026234Y012648D01*
X026102Y012516D01*
X026030Y012343D01*
X026030Y012157D01*
X026102Y011984D01*
X026234Y011852D01*
X026407Y011780D01*
X026593Y011780D01*
X026379Y011792D02*
X024650Y011792D01*
X024650Y011890D02*
X026195Y011890D01*
X026100Y011989D02*
X024650Y011989D01*
X024650Y012087D02*
X026059Y012087D01*
X026030Y012186D02*
X024650Y012186D01*
X024746Y012284D02*
X026030Y012284D01*
X026046Y012383D02*
X024845Y012383D01*
X024943Y012481D02*
X026087Y012481D01*
X026165Y012580D02*
X025042Y012580D01*
X025140Y012678D02*
X026305Y012678D01*
X026300Y012768D02*
X026378Y012743D01*
X026450Y012731D01*
X026450Y013200D01*
X026550Y013200D01*
X026550Y013300D01*
X027019Y013300D01*
X027007Y013372D01*
X026982Y013450D01*
X026945Y013523D01*
X026897Y013589D01*
X026839Y013647D01*
X026773Y013695D01*
X026700Y013732D01*
X026622Y013757D01*
X026550Y013769D01*
X026550Y013300D01*
X026450Y013300D01*
X026450Y013769D01*
X026378Y013757D01*
X026300Y013732D01*
X026227Y013695D01*
X026161Y013647D01*
X026103Y013589D01*
X026055Y013523D01*
X026018Y013450D01*
X025993Y013372D01*
X025981Y013300D01*
X026450Y013300D01*
X026450Y013200D01*
X025981Y013200D01*
X025993Y013128D01*
X026018Y013050D01*
X026055Y012977D01*
X026103Y012911D01*
X026161Y012853D01*
X026227Y012805D01*
X026300Y012768D01*
X026284Y012777D02*
X025239Y012777D01*
X025337Y012875D02*
X026140Y012875D01*
X026058Y012974D02*
X025436Y012974D01*
X025534Y013072D02*
X026011Y013072D01*
X025986Y013171D02*
X025633Y013171D01*
X025650Y013269D02*
X026450Y013269D01*
X026500Y013250D02*
X027500Y013250D01*
X028000Y012750D01*
X029500Y012750D01*
X030500Y011750D01*
X030500Y010250D01*
X029500Y009250D01*
X028500Y009250D01*
X028539Y009231D02*
X029768Y009231D01*
X029867Y009329D02*
X029014Y009329D01*
X029020Y009291D02*
X029007Y009372D01*
X028982Y009450D01*
X028945Y009523D01*
X028897Y009589D01*
X028839Y009647D01*
X028773Y009695D01*
X028700Y009732D01*
X028622Y009757D01*
X028541Y009770D01*
X028539Y009770D01*
X028539Y009289D01*
X029020Y009289D01*
X029020Y009291D01*
X028989Y009428D02*
X029965Y009428D01*
X030064Y009526D02*
X028942Y009526D01*
X028861Y009625D02*
X030162Y009625D01*
X030261Y009723D02*
X028717Y009723D01*
X028694Y009822D02*
X030359Y009822D01*
X030458Y009920D02*
X028835Y009920D01*
X028913Y010019D02*
X030556Y010019D01*
X030655Y010117D02*
X028954Y010117D01*
X028970Y010216D02*
X030753Y010216D01*
X030850Y010314D02*
X028970Y010314D01*
X028941Y010413D02*
X030850Y010413D01*
X030850Y010511D02*
X028901Y010511D01*
X028805Y010610D02*
X030850Y010610D01*
X030850Y010708D02*
X028622Y010708D01*
X028658Y010807D02*
X030850Y010807D01*
X030850Y010905D02*
X028820Y010905D01*
X028907Y011004D02*
X030850Y011004D01*
X030850Y011102D02*
X028947Y011102D01*
X028970Y011201D02*
X030850Y011201D01*
X030850Y011299D02*
X028970Y011299D01*
X028948Y011398D02*
X030850Y011398D01*
X030850Y011496D02*
X028907Y011496D01*
X028820Y011595D02*
X030850Y011595D01*
X030850Y011693D02*
X028659Y011693D01*
X028621Y011792D02*
X030850Y011792D01*
X030850Y011890D02*
X028805Y011890D01*
X028766Y011852D02*
X028898Y011984D01*
X028970Y012157D01*
X028970Y012343D01*
X028898Y012516D01*
X028766Y012648D01*
X028593Y012720D01*
X028407Y012720D01*
X028234Y012648D01*
X028102Y012516D01*
X028030Y012343D01*
X028030Y012157D01*
X028102Y011984D01*
X028234Y011852D01*
X028407Y011780D01*
X028593Y011780D01*
X028766Y011852D01*
X028900Y011989D02*
X030850Y011989D01*
X030850Y012087D02*
X028941Y012087D01*
X028970Y012186D02*
X030850Y012186D01*
X030754Y012284D02*
X028970Y012284D01*
X028954Y012383D02*
X030655Y012383D01*
X030557Y012481D02*
X028913Y012481D01*
X028835Y012580D02*
X030458Y012580D01*
X030360Y012678D02*
X028695Y012678D01*
X028790Y012875D02*
X030163Y012875D01*
X030261Y012777D02*
X026716Y012777D01*
X026700Y012768D02*
X026773Y012805D01*
X026839Y012853D01*
X026897Y012911D01*
X026945Y012977D01*
X026982Y013050D01*
X027007Y013128D01*
X027019Y013200D01*
X026550Y013200D01*
X026550Y012731D01*
X026622Y012743D01*
X026700Y012768D01*
X026695Y012678D02*
X028305Y012678D01*
X028165Y012580D02*
X026835Y012580D01*
X026913Y012481D02*
X028087Y012481D01*
X028046Y012383D02*
X026954Y012383D01*
X026970Y012284D02*
X028030Y012284D01*
X028030Y012186D02*
X026970Y012186D01*
X026941Y012087D02*
X028059Y012087D01*
X028100Y011989D02*
X026900Y011989D01*
X026805Y011890D02*
X028195Y011890D01*
X028210Y012875D02*
X026860Y012875D01*
X026942Y012974D02*
X028112Y012974D01*
X028065Y013072D02*
X026989Y013072D01*
X027014Y013171D02*
X028030Y013171D01*
X028030Y013269D02*
X026550Y013269D01*
X026550Y013171D02*
X026450Y013171D01*
X026450Y013072D02*
X026550Y013072D01*
X026550Y012974D02*
X026450Y012974D01*
X026450Y012875D02*
X026550Y012875D01*
X026550Y012777D02*
X026450Y012777D01*
X026450Y013368D02*
X026550Y013368D01*
X026550Y013466D02*
X026450Y013466D01*
X026450Y013565D02*
X026550Y013565D01*
X026550Y013663D02*
X026450Y013663D01*
X026450Y013762D02*
X026550Y013762D01*
X026594Y013762D02*
X027776Y013762D01*
X027678Y013860D02*
X026775Y013860D01*
X026873Y013959D02*
X027579Y013959D01*
X027481Y014057D02*
X026929Y014057D01*
X026970Y014156D02*
X027382Y014156D01*
X027350Y014254D02*
X026970Y014254D01*
X026966Y014353D02*
X027350Y014353D01*
X027350Y014451D02*
X026925Y014451D01*
X026865Y014550D02*
X027350Y014550D01*
X027350Y014648D02*
X027110Y014648D01*
X027209Y014747D02*
X027350Y014747D01*
X027383Y014845D02*
X027307Y014845D01*
X027406Y014944D02*
X027481Y014944D01*
X027504Y015042D02*
X027580Y015042D01*
X027603Y015141D02*
X027678Y015141D01*
X027701Y015239D02*
X027777Y015239D01*
X027800Y015338D02*
X027875Y015338D01*
X027850Y015312D02*
X027850Y015312D01*
X027898Y015436D02*
X034068Y015436D01*
X034030Y015338D02*
X033125Y015338D01*
X033223Y015239D02*
X034030Y015239D01*
X034037Y015141D02*
X033322Y015141D01*
X033420Y015042D02*
X034077Y015042D01*
X034142Y014944D02*
X033519Y014944D01*
X033617Y014845D02*
X034249Y014845D01*
X034233Y014648D02*
X033814Y014648D01*
X033913Y014550D02*
X034135Y014550D01*
X034075Y014451D02*
X034011Y014451D01*
X034000Y014250D02*
X034000Y011750D01*
X034500Y011250D01*
X034053Y011102D02*
X033650Y011102D01*
X033650Y011004D02*
X034093Y011004D01*
X034180Y010905D02*
X033650Y010905D01*
X033656Y010807D02*
X034342Y010807D01*
X034378Y010708D02*
X033754Y010708D01*
X033853Y010610D02*
X034195Y010610D01*
X034099Y010511D02*
X033951Y010511D01*
X034050Y010413D02*
X034059Y010413D01*
X034000Y010250D02*
X034500Y010250D01*
X034913Y010019D02*
X035310Y010019D01*
X035310Y010117D02*
X034954Y010117D01*
X034970Y010216D02*
X035310Y010216D01*
X035310Y010314D02*
X034970Y010314D01*
X034941Y010413D02*
X035310Y010413D01*
X035310Y010511D02*
X034901Y010511D01*
X034805Y010610D02*
X035310Y010610D01*
X035310Y010708D02*
X034622Y010708D01*
X034658Y010807D02*
X035310Y010807D01*
X035310Y010905D02*
X034820Y010905D01*
X034907Y011004D02*
X035310Y011004D01*
X035310Y011102D02*
X034947Y011102D01*
X034970Y011201D02*
X035310Y011201D01*
X035310Y011299D02*
X034970Y011299D01*
X034948Y011398D02*
X035310Y011398D01*
X035310Y011496D02*
X034907Y011496D01*
X034820Y011595D02*
X035310Y011595D01*
X035310Y011693D02*
X034659Y011693D01*
X034621Y011792D02*
X035310Y011792D01*
X035310Y011890D02*
X034805Y011890D01*
X034900Y011989D02*
X035310Y011989D01*
X035310Y012087D02*
X034941Y012087D01*
X034970Y012186D02*
X035310Y012186D01*
X035310Y012284D02*
X034970Y012284D01*
X034954Y012383D02*
X035310Y012383D01*
X035310Y012481D02*
X034943Y012481D01*
X035042Y012580D02*
X035310Y012580D01*
X035310Y012678D02*
X035140Y012678D01*
X035150Y012777D02*
X035310Y012777D01*
X035310Y012875D02*
X035150Y012875D01*
X035150Y012974D02*
X035310Y012974D01*
X035310Y013072D02*
X035150Y013072D01*
X035150Y013171D02*
X035310Y013171D01*
X035310Y013269D02*
X035150Y013269D01*
X035150Y013368D02*
X035310Y013368D01*
X035310Y013466D02*
X035150Y013466D01*
X035150Y013565D02*
X035310Y013565D01*
X035310Y013663D02*
X035150Y013663D01*
X035150Y013762D02*
X035310Y013762D01*
X035310Y013860D02*
X035150Y013860D01*
X035150Y013959D02*
X035310Y013959D01*
X035310Y014057D02*
X035150Y014057D01*
X035150Y014156D02*
X035310Y014156D01*
X035310Y014254D02*
X035150Y014254D01*
X035150Y014353D02*
X035310Y014353D01*
X035310Y014451D02*
X035150Y014451D01*
X035150Y014550D02*
X035310Y014550D01*
X035310Y014648D02*
X035150Y014648D01*
X035150Y014747D02*
X035310Y014747D01*
X035310Y014845D02*
X035150Y014845D01*
X035150Y014944D02*
X035310Y014944D01*
X035310Y015042D02*
X035150Y015042D01*
X035150Y015141D02*
X035310Y015141D01*
X035310Y015239D02*
X035150Y015239D01*
X035150Y015338D02*
X035310Y015338D01*
X035310Y015436D02*
X035150Y015436D01*
X035150Y015535D02*
X035310Y015535D01*
X035310Y015633D02*
X035150Y015633D01*
X035150Y015732D02*
X035310Y015732D01*
X035310Y015830D02*
X035132Y015830D01*
X035000Y015750D02*
X028000Y015750D01*
X027000Y014750D01*
X026000Y014750D01*
X026012Y014550D02*
X026135Y014550D01*
X026075Y014451D02*
X025913Y014451D01*
X025815Y014353D02*
X026034Y014353D01*
X026030Y014254D02*
X025716Y014254D01*
X025650Y014156D02*
X026030Y014156D01*
X026071Y014057D02*
X025650Y014057D01*
X025650Y013959D02*
X026127Y013959D01*
X026225Y013860D02*
X025650Y013860D01*
X025650Y013762D02*
X026406Y013762D01*
X026184Y013663D02*
X025650Y013663D01*
X025650Y013565D02*
X026086Y013565D01*
X026026Y013466D02*
X025650Y013466D01*
X025650Y013368D02*
X025992Y013368D01*
X025208Y013171D02*
X025020Y013171D01*
X025020Y013200D02*
X024550Y013200D01*
X024550Y012730D01*
X024715Y012730D01*
X025020Y013035D01*
X025020Y013200D01*
X025020Y013072D02*
X025110Y013072D01*
X025011Y012974D02*
X024959Y012974D01*
X024913Y012875D02*
X024860Y012875D01*
X024814Y012777D02*
X024762Y012777D01*
X024550Y012777D02*
X024450Y012777D01*
X024450Y012730D02*
X024450Y013200D01*
X023980Y013200D01*
X023550Y013200D01*
X023550Y012730D01*
X023715Y012730D01*
X024000Y013015D01*
X024285Y012730D01*
X024450Y012730D01*
X024450Y012875D02*
X024550Y012875D01*
X024550Y012974D02*
X024450Y012974D01*
X024450Y013072D02*
X024550Y013072D01*
X024550Y013171D02*
X024450Y013171D01*
X024450Y013466D02*
X024550Y013466D01*
X024550Y013565D02*
X024450Y013565D01*
X024450Y013663D02*
X024550Y013663D01*
X024550Y013762D02*
X024450Y013762D01*
X024276Y013762D02*
X023724Y013762D01*
X023775Y013860D02*
X024225Y013860D01*
X024127Y013959D02*
X023873Y013959D01*
X023970Y014057D02*
X024030Y014057D01*
X024030Y014156D02*
X023970Y014156D01*
X023970Y014254D02*
X024030Y014254D01*
X024030Y014353D02*
X023970Y014353D01*
X023964Y014451D02*
X024036Y014451D01*
X024135Y014550D02*
X023865Y014550D01*
X024110Y014648D02*
X024233Y014648D01*
X024500Y014250D02*
X025500Y015250D01*
X025500Y015750D01*
X025000Y016250D01*
X025140Y016323D02*
X026030Y016323D01*
X026030Y016343D02*
X026030Y016157D01*
X026102Y015984D01*
X026234Y015852D01*
X026407Y015780D01*
X026593Y015780D01*
X026766Y015852D01*
X026898Y015984D01*
X026970Y016157D01*
X026970Y016343D01*
X026898Y016516D01*
X026766Y016648D01*
X026593Y016720D01*
X026407Y016720D01*
X026234Y016648D01*
X026102Y016516D01*
X026030Y016343D01*
X026062Y016421D02*
X022836Y016421D01*
X022898Y016484D02*
X022970Y016657D01*
X022970Y016843D01*
X022898Y017016D01*
X022766Y017148D01*
X022593Y017220D01*
X022407Y017220D01*
X022234Y017148D01*
X022102Y017016D01*
X022030Y016843D01*
X022030Y016657D01*
X022102Y016484D01*
X022234Y016352D01*
X022407Y016280D01*
X022593Y016280D01*
X022766Y016352D01*
X022898Y016484D01*
X022913Y016520D02*
X026105Y016520D01*
X026203Y016618D02*
X022954Y016618D01*
X022970Y016717D02*
X026398Y016717D01*
X026602Y016717D02*
X034398Y016717D01*
X034602Y016717D02*
X035310Y016717D01*
X035310Y016815D02*
X022970Y016815D01*
X022941Y016914D02*
X035310Y016914D01*
X035310Y017012D02*
X022900Y017012D01*
X022804Y017111D02*
X035310Y017111D01*
X035310Y017209D02*
X022620Y017209D01*
X022593Y017280D02*
X022766Y017352D01*
X022898Y017484D01*
X022970Y017657D01*
X022970Y017843D01*
X022898Y018016D01*
X022766Y018148D01*
X022593Y018220D01*
X022407Y018220D01*
X022234Y018148D01*
X022102Y018016D01*
X022030Y017843D01*
X022030Y017657D01*
X022102Y017484D01*
X022234Y017352D01*
X022407Y017280D01*
X022593Y017280D01*
X022660Y017308D02*
X035310Y017308D01*
X035310Y017406D02*
X022821Y017406D01*
X022907Y017505D02*
X035310Y017505D01*
X035310Y017603D02*
X022948Y017603D01*
X022970Y017702D02*
X035310Y017702D01*
X035310Y017800D02*
X022970Y017800D01*
X022947Y017899D02*
X035310Y017899D01*
X035310Y017997D02*
X022906Y017997D01*
X022819Y018096D02*
X035310Y018096D01*
X035310Y018194D02*
X033836Y018194D01*
X033864Y018206D02*
X034044Y018386D01*
X034142Y018622D01*
X034142Y018878D01*
X034044Y019114D01*
X033864Y019294D01*
X033628Y019392D01*
X033372Y019392D01*
X033136Y019294D01*
X032956Y019114D01*
X032858Y018878D01*
X032858Y018622D01*
X032956Y018386D01*
X033136Y018206D01*
X033372Y018108D01*
X033628Y018108D01*
X033864Y018206D01*
X033951Y018293D02*
X035310Y018293D01*
X035310Y018391D02*
X034046Y018391D01*
X034087Y018490D02*
X035310Y018490D01*
X035310Y018588D02*
X034128Y018588D01*
X034142Y018687D02*
X035310Y018687D01*
X035310Y018750D02*
X035310Y001250D01*
X035300Y001123D01*
X035222Y000882D01*
X035073Y000677D01*
X034868Y000528D01*
X034627Y000450D01*
X034500Y000440D01*
X022500Y000440D01*
X022373Y000450D01*
X022132Y000528D01*
X021927Y000677D01*
X021778Y000882D01*
X021700Y001123D01*
X021690Y001250D01*
X021690Y018750D01*
X021700Y018877D01*
X021778Y019118D01*
X021927Y019323D01*
X022132Y019472D01*
X022373Y019550D01*
X022500Y019560D01*
X034500Y019560D01*
X034627Y019550D01*
X034868Y019472D01*
X035073Y019323D01*
X035222Y019118D01*
X035300Y018877D01*
X035310Y018750D01*
X035307Y018785D02*
X034142Y018785D01*
X034140Y018884D02*
X035298Y018884D01*
X035266Y018982D02*
X034099Y018982D01*
X034058Y019081D02*
X035234Y019081D01*
X035177Y019179D02*
X033979Y019179D01*
X033881Y019278D02*
X035106Y019278D01*
X034999Y019376D02*
X033666Y019376D01*
X033334Y019376D02*
X023666Y019376D01*
X023628Y019392D02*
X023372Y019392D01*
X023136Y019294D01*
X022956Y019114D01*
X022858Y018878D01*
X022858Y018622D01*
X022956Y018386D01*
X023136Y018206D01*
X023372Y018108D01*
X023628Y018108D01*
X023864Y018206D01*
X024044Y018386D01*
X024142Y018622D01*
X024142Y018878D01*
X024044Y019114D01*
X023864Y019294D01*
X023628Y019392D01*
X023881Y019278D02*
X033119Y019278D01*
X033021Y019179D02*
X023979Y019179D01*
X024058Y019081D02*
X032942Y019081D01*
X032901Y018982D02*
X024099Y018982D01*
X024140Y018884D02*
X032860Y018884D01*
X032858Y018785D02*
X024142Y018785D01*
X024142Y018687D02*
X032858Y018687D01*
X032872Y018588D02*
X024128Y018588D01*
X024087Y018490D02*
X032913Y018490D01*
X032954Y018391D02*
X024046Y018391D01*
X023951Y018293D02*
X033049Y018293D01*
X033164Y018194D02*
X023836Y018194D01*
X023164Y018194D02*
X022656Y018194D01*
X022344Y018194D02*
X021690Y018194D01*
X021690Y018096D02*
X022181Y018096D01*
X022094Y017997D02*
X021690Y017997D01*
X021690Y017899D02*
X022053Y017899D01*
X022030Y017800D02*
X021690Y017800D01*
X021690Y017702D02*
X022030Y017702D01*
X022052Y017603D02*
X021690Y017603D01*
X021690Y017505D02*
X022093Y017505D01*
X022179Y017406D02*
X021690Y017406D01*
X021690Y017308D02*
X022340Y017308D01*
X022380Y017209D02*
X021690Y017209D01*
X021690Y017111D02*
X022196Y017111D01*
X022100Y017012D02*
X021690Y017012D01*
X021690Y016914D02*
X022059Y016914D01*
X022030Y016815D02*
X021690Y016815D01*
X021690Y016717D02*
X022030Y016717D01*
X022046Y016618D02*
X021690Y016618D01*
X021690Y016520D02*
X022087Y016520D01*
X022164Y016421D02*
X021690Y016421D01*
X021690Y016323D02*
X022304Y016323D01*
X022696Y016323D02*
X022860Y016323D01*
X022762Y016224D02*
X021690Y016224D01*
X021690Y016126D02*
X022663Y016126D01*
X022565Y016027D02*
X021690Y016027D01*
X021690Y015929D02*
X022466Y015929D01*
X022368Y015830D02*
X021690Y015830D01*
X021690Y015732D02*
X022269Y015732D01*
X022171Y015633D02*
X021690Y015633D01*
X021690Y015535D02*
X022072Y015535D01*
X021974Y015436D02*
X021690Y015436D01*
X021690Y015338D02*
X021875Y015338D01*
X021850Y015239D02*
X021690Y015239D01*
X021690Y015141D02*
X021850Y015141D01*
X021850Y015042D02*
X021690Y015042D01*
X021690Y014944D02*
X021850Y014944D01*
X021850Y014845D02*
X021690Y014845D01*
X021690Y014747D02*
X021850Y014747D01*
X021850Y014648D02*
X021690Y014648D01*
X021690Y014550D02*
X021850Y014550D01*
X021850Y014451D02*
X021690Y014451D01*
X021690Y014353D02*
X021850Y014353D01*
X021850Y014254D02*
X021690Y014254D01*
X021690Y014156D02*
X021850Y014156D01*
X021850Y014057D02*
X021690Y014057D01*
X021690Y013959D02*
X021850Y013959D01*
X021850Y013860D02*
X021690Y013860D01*
X021690Y013762D02*
X021850Y013762D01*
X021850Y013663D02*
X021690Y013663D01*
X021690Y013565D02*
X021850Y013565D01*
X021850Y013466D02*
X021690Y013466D01*
X021690Y013368D02*
X021850Y013368D01*
X021850Y013269D02*
X021690Y013269D01*
X021690Y013171D02*
X021850Y013171D01*
X021850Y013072D02*
X021690Y013072D01*
X021690Y012974D02*
X021850Y012974D01*
X021850Y012875D02*
X021690Y012875D01*
X021690Y012777D02*
X021850Y012777D01*
X021850Y012678D02*
X021690Y012678D01*
X021690Y012580D02*
X021850Y012580D01*
X021850Y012481D02*
X021690Y012481D01*
X021690Y012383D02*
X021850Y012383D01*
X021850Y012284D02*
X021690Y012284D01*
X021690Y012186D02*
X021850Y012186D01*
X021850Y012087D02*
X021690Y012087D01*
X021690Y011989D02*
X021850Y011989D01*
X021850Y011890D02*
X021690Y011890D01*
X021690Y011792D02*
X021850Y011792D01*
X021850Y011693D02*
X021690Y011693D01*
X021690Y011595D02*
X021850Y011595D01*
X021850Y011496D02*
X021690Y011496D01*
X021690Y011398D02*
X021850Y011398D01*
X021850Y011299D02*
X021690Y011299D01*
X021690Y011201D02*
X021850Y011201D01*
X021850Y011102D02*
X021690Y011102D01*
X021690Y011004D02*
X021850Y011004D01*
X021850Y010905D02*
X021690Y010905D01*
X021690Y010807D02*
X021850Y010807D01*
X021850Y010708D02*
X021690Y010708D01*
X021690Y010610D02*
X021850Y010610D01*
X021850Y010511D02*
X021690Y010511D01*
X021690Y010413D02*
X021850Y010413D01*
X021850Y010314D02*
X021690Y010314D01*
X021690Y010216D02*
X021850Y010216D01*
X021850Y010117D02*
X021690Y010117D01*
X021690Y010019D02*
X021850Y010019D01*
X021850Y009920D02*
X021690Y009920D01*
X021690Y009822D02*
X021850Y009822D01*
X021850Y009723D02*
X021690Y009723D01*
X021690Y009625D02*
X021850Y009625D01*
X021850Y009526D02*
X021690Y009526D01*
X021690Y009428D02*
X021850Y009428D01*
X021850Y009329D02*
X021690Y009329D01*
X021690Y009231D02*
X021850Y009231D01*
X021850Y009132D02*
X021690Y009132D01*
X021690Y009034D02*
X021850Y009034D01*
X021850Y008935D02*
X021690Y008935D01*
X021690Y008837D02*
X021850Y008837D01*
X021850Y008738D02*
X021690Y008738D01*
X021690Y008640D02*
X021850Y008640D01*
X021850Y008541D02*
X021690Y008541D01*
X021690Y008443D02*
X021850Y008443D01*
X021850Y008344D02*
X021690Y008344D01*
X021690Y008246D02*
X021850Y008246D01*
X021850Y008147D02*
X021690Y008147D01*
X021690Y008049D02*
X021850Y008049D01*
X021850Y007950D02*
X021690Y007950D01*
X021690Y007852D02*
X021850Y007852D01*
X021850Y007753D02*
X021690Y007753D01*
X021690Y007655D02*
X021850Y007655D01*
X021850Y007556D02*
X021690Y007556D01*
X021690Y007458D02*
X021850Y007458D01*
X021850Y007359D02*
X021690Y007359D01*
X021690Y007261D02*
X021850Y007261D01*
X021850Y007162D02*
X021690Y007162D01*
X021690Y007064D02*
X021850Y007064D01*
X021850Y006965D02*
X021690Y006965D01*
X021690Y006867D02*
X021850Y006867D01*
X021850Y006768D02*
X021690Y006768D01*
X021690Y006670D02*
X021850Y006670D01*
X021850Y006571D02*
X021690Y006571D01*
X021690Y006473D02*
X021850Y006473D01*
X021850Y006374D02*
X021690Y006374D01*
X021690Y006276D02*
X021850Y006276D01*
X021850Y006177D02*
X021690Y006177D01*
X021690Y006079D02*
X021850Y006079D01*
X021850Y005980D02*
X021690Y005980D01*
X021690Y005882D02*
X021850Y005882D01*
X021850Y005783D02*
X021690Y005783D01*
X021690Y005685D02*
X021850Y005685D01*
X021850Y005586D02*
X021690Y005586D01*
X021690Y005488D02*
X021850Y005488D01*
X021850Y005389D02*
X021690Y005389D01*
X021690Y005291D02*
X021850Y005291D01*
X021850Y005192D02*
X021690Y005192D01*
X021690Y005094D02*
X021850Y005094D01*
X021850Y004995D02*
X021690Y004995D01*
X021690Y004897D02*
X021850Y004897D01*
X021850Y004798D02*
X021690Y004798D01*
X021690Y004700D02*
X021850Y004700D01*
X021850Y004601D02*
X021690Y004601D01*
X021690Y004503D02*
X021850Y004503D01*
X021850Y004404D02*
X021690Y004404D01*
X021690Y004306D02*
X021850Y004306D01*
X021850Y004207D02*
X021690Y004207D01*
X021690Y004109D02*
X021850Y004109D01*
X021850Y004010D02*
X021690Y004010D01*
X021690Y003912D02*
X021850Y003912D01*
X021850Y003813D02*
X021690Y003813D01*
X021690Y003715D02*
X021850Y003715D01*
X021850Y003616D02*
X021690Y003616D01*
X021690Y003518D02*
X021850Y003518D01*
X021850Y003419D02*
X021690Y003419D01*
X021690Y003321D02*
X021850Y003321D01*
X021850Y003222D02*
X021690Y003222D01*
X021690Y003124D02*
X021850Y003124D01*
X021850Y003025D02*
X021690Y003025D01*
X021690Y002927D02*
X021850Y002927D01*
X021850Y002828D02*
X021690Y002828D01*
X021690Y002730D02*
X021850Y002730D01*
X021907Y002631D02*
X021690Y002631D01*
X021690Y002533D02*
X022005Y002533D01*
X022104Y002434D02*
X021690Y002434D01*
X021690Y002336D02*
X022202Y002336D01*
X022301Y002237D02*
X021690Y002237D01*
X021690Y002139D02*
X022399Y002139D01*
X022528Y002434D02*
X024850Y002434D01*
X024850Y002336D02*
X024627Y002336D01*
X024650Y002237D02*
X024850Y002237D01*
X024850Y002533D02*
X022430Y002533D01*
X022331Y002631D02*
X024850Y002631D01*
X024808Y002730D02*
X022233Y002730D01*
X022291Y002828D02*
X022150Y002828D01*
X022150Y002927D02*
X022159Y002927D01*
X022709Y002828D02*
X024710Y002828D01*
X024611Y002927D02*
X022841Y002927D01*
X022916Y003025D02*
X024513Y003025D01*
X024414Y003124D02*
X022956Y003124D01*
X022970Y003222D02*
X024316Y003222D01*
X024217Y003321D02*
X022970Y003321D01*
X022939Y003419D02*
X024119Y003419D01*
X024020Y003518D02*
X022897Y003518D01*
X022799Y003616D02*
X023922Y003616D01*
X023850Y003715D02*
X022607Y003715D01*
X022673Y003813D02*
X023850Y003813D01*
X023850Y003912D02*
X022826Y003912D01*
X022909Y004010D02*
X023850Y004010D01*
X023850Y004109D02*
X022950Y004109D01*
X022970Y004207D02*
X023850Y004207D01*
X023850Y004306D02*
X022970Y004306D01*
X022945Y004404D02*
X023850Y004404D01*
X023850Y004503D02*
X022904Y004503D01*
X022814Y004601D02*
X023850Y004601D01*
X023850Y004700D02*
X022643Y004700D01*
X022637Y004798D02*
X023850Y004798D01*
X023850Y004897D02*
X022811Y004897D01*
X022903Y004995D02*
X023850Y004995D01*
X023850Y005094D02*
X022944Y005094D01*
X022970Y005192D02*
X023850Y005192D01*
X023850Y005291D02*
X022970Y005291D01*
X022951Y005389D02*
X023850Y005389D01*
X023850Y005488D02*
X022910Y005488D01*
X022829Y005586D02*
X023850Y005586D01*
X023850Y005685D02*
X022679Y005685D01*
X022321Y005685D02*
X022150Y005685D01*
X022150Y005783D02*
X023850Y005783D01*
X023850Y005882D02*
X022150Y005882D01*
X022150Y005980D02*
X023850Y005980D01*
X023850Y006079D02*
X022150Y006079D01*
X022150Y006177D02*
X023850Y006177D01*
X023850Y006276D02*
X022150Y006276D01*
X022150Y006374D02*
X023850Y006374D01*
X023850Y006473D02*
X022150Y006473D01*
X022150Y006571D02*
X023850Y006571D01*
X023850Y006670D02*
X022150Y006670D01*
X022150Y006768D02*
X023770Y006768D01*
X023671Y006867D02*
X022150Y006867D01*
X022150Y006965D02*
X023573Y006965D01*
X023474Y007064D02*
X022150Y007064D01*
X022150Y007162D02*
X023376Y007162D01*
X023277Y007261D02*
X022150Y007261D01*
X022150Y007359D02*
X023179Y007359D01*
X023080Y007458D02*
X022150Y007458D01*
X022150Y007556D02*
X022982Y007556D01*
X022883Y007655D02*
X022150Y007655D01*
X022150Y007753D02*
X022785Y007753D01*
X022686Y007852D02*
X022150Y007852D01*
X022150Y007950D02*
X022588Y007950D01*
X022489Y008049D02*
X022150Y008049D01*
X022150Y008147D02*
X022391Y008147D01*
X022350Y008246D02*
X022150Y008246D01*
X022150Y008344D02*
X022350Y008344D01*
X022350Y008443D02*
X022150Y008443D01*
X022150Y008541D02*
X022350Y008541D01*
X022350Y008640D02*
X022150Y008640D01*
X022150Y008738D02*
X022350Y008738D01*
X022374Y008837D02*
X022150Y008837D01*
X022150Y008935D02*
X022473Y008935D01*
X022571Y009034D02*
X022150Y009034D01*
X022150Y009132D02*
X022670Y009132D01*
X022768Y009231D02*
X022150Y009231D01*
X022150Y009329D02*
X022867Y009329D01*
X022965Y009428D02*
X022150Y009428D01*
X022150Y009526D02*
X023064Y009526D01*
X023162Y009625D02*
X022150Y009625D01*
X022150Y009723D02*
X023261Y009723D01*
X023216Y009822D02*
X022150Y009822D01*
X022150Y009920D02*
X023118Y009920D01*
X023019Y010019D02*
X022150Y010019D01*
X022150Y010117D02*
X022921Y010117D01*
X022822Y010216D02*
X022150Y010216D01*
X022150Y010314D02*
X022724Y010314D01*
X022625Y010413D02*
X022150Y010413D01*
X022150Y010511D02*
X022527Y010511D01*
X022428Y010610D02*
X022150Y010610D01*
X022150Y010708D02*
X022350Y010708D01*
X022350Y010807D02*
X022150Y010807D01*
X022150Y010905D02*
X022350Y010905D01*
X022350Y011004D02*
X022150Y011004D01*
X022150Y011102D02*
X022350Y011102D01*
X022350Y011201D02*
X022150Y011201D01*
X022150Y011299D02*
X022350Y011299D01*
X022350Y011398D02*
X022150Y011398D01*
X022150Y011496D02*
X022350Y011496D01*
X022350Y011595D02*
X022150Y011595D01*
X022150Y011693D02*
X022350Y011693D01*
X022350Y011792D02*
X022150Y011792D01*
X022150Y011890D02*
X022350Y011890D01*
X022350Y011989D02*
X022150Y011989D01*
X022150Y012087D02*
X022350Y012087D01*
X022350Y012186D02*
X022150Y012186D01*
X022150Y012284D02*
X022350Y012284D01*
X022350Y012383D02*
X022150Y012383D01*
X022150Y012481D02*
X022350Y012481D01*
X022350Y012580D02*
X022150Y012580D01*
X022150Y012678D02*
X022350Y012678D01*
X022350Y012777D02*
X022150Y012777D01*
X022150Y012875D02*
X022350Y012875D01*
X022350Y012974D02*
X022150Y012974D01*
X022150Y013072D02*
X022350Y013072D01*
X022350Y013171D02*
X022150Y013171D01*
X022150Y013269D02*
X022350Y013269D01*
X022350Y013368D02*
X022150Y013368D01*
X022150Y013466D02*
X022350Y013466D01*
X022350Y013565D02*
X022150Y013565D01*
X022150Y013663D02*
X022350Y013663D01*
X022350Y013762D02*
X022150Y013762D01*
X022150Y013860D02*
X022350Y013860D01*
X022350Y013959D02*
X022150Y013959D01*
X022150Y014057D02*
X022350Y014057D01*
X022350Y014156D02*
X022150Y014156D01*
X022150Y014254D02*
X022350Y014254D01*
X022390Y014353D02*
X022150Y014353D01*
X022150Y014451D02*
X022489Y014451D01*
X022587Y014550D02*
X022150Y014550D01*
X022150Y014648D02*
X022686Y014648D01*
X022784Y014747D02*
X022150Y014747D01*
X022150Y014845D02*
X022883Y014845D01*
X023000Y014750D02*
X022500Y014250D01*
X022500Y010750D01*
X023500Y009750D01*
X027000Y009750D01*
X027500Y010250D01*
X028500Y010250D01*
X028059Y010413D02*
X026941Y010413D01*
X026970Y010314D02*
X027352Y010314D01*
X027253Y010216D02*
X026970Y010216D01*
X026954Y010117D02*
X027155Y010117D01*
X027056Y010019D02*
X026913Y010019D01*
X026958Y009920D02*
X026835Y009920D01*
X027087Y009625D02*
X028139Y009625D01*
X028058Y009526D02*
X026889Y009526D01*
X026935Y009428D02*
X028011Y009428D01*
X027986Y009329D02*
X026970Y009329D01*
X026970Y009231D02*
X028461Y009231D01*
X028461Y009329D02*
X028539Y009329D01*
X028539Y009428D02*
X028461Y009428D01*
X028461Y009526D02*
X028539Y009526D01*
X028539Y009625D02*
X028461Y009625D01*
X028461Y009723D02*
X028539Y009723D01*
X028306Y009822D02*
X027284Y009822D01*
X027382Y009920D02*
X028165Y009920D01*
X028087Y010019D02*
X027481Y010019D01*
X027185Y009723D02*
X028283Y009723D01*
X027992Y009132D02*
X026960Y009132D01*
X026919Y009034D02*
X028027Y009034D01*
X028086Y008935D02*
X026850Y008935D01*
X026815Y008600D02*
X028115Y008600D01*
X028103Y008589D01*
X028055Y008523D01*
X028018Y008450D01*
X027993Y008372D01*
X027980Y008291D01*
X027980Y008289D01*
X028461Y008289D01*
X028461Y008211D01*
X028539Y008211D01*
X028539Y008289D01*
X029020Y008289D01*
X029020Y008291D01*
X029007Y008372D01*
X028982Y008450D01*
X028945Y008523D01*
X028897Y008589D01*
X028885Y008600D01*
X029562Y008600D01*
X029650Y008688D01*
X031062Y010100D01*
X031062Y010100D01*
X031150Y010188D01*
X031150Y012312D01*
X029650Y013812D01*
X029562Y013900D01*
X028815Y013900D01*
X028898Y013984D01*
X028947Y014100D01*
X031562Y014100D01*
X032062Y014600D01*
X032185Y014600D01*
X032102Y014516D01*
X032030Y014343D01*
X032030Y014157D01*
X032102Y013984D01*
X032234Y013852D01*
X032350Y013803D01*
X032350Y013697D01*
X032234Y013648D01*
X032102Y013516D01*
X032030Y013343D01*
X032030Y013157D01*
X032102Y012984D01*
X032234Y012852D01*
X032350Y012803D01*
X032350Y012697D01*
X032234Y012648D01*
X032102Y012516D01*
X032030Y012343D01*
X032030Y012157D01*
X032102Y011984D01*
X032234Y011852D01*
X032350Y011803D01*
X032350Y011697D01*
X032234Y011648D01*
X032102Y011516D01*
X032030Y011343D01*
X032030Y011157D01*
X032102Y010984D01*
X032234Y010852D01*
X032407Y010780D01*
X032593Y010780D01*
X032710Y010828D01*
X033350Y010188D01*
X033350Y009312D01*
X032710Y008672D01*
X032593Y008720D01*
X032407Y008720D01*
X032234Y008648D01*
X032102Y008516D01*
X032030Y008343D01*
X032030Y008157D01*
X032102Y007984D01*
X032234Y007852D01*
X028836Y007852D01*
X028839Y007853D02*
X028897Y007911D01*
X028945Y007977D01*
X028982Y008050D01*
X029007Y008128D01*
X029020Y008209D01*
X029020Y008211D01*
X028539Y008211D01*
X028539Y007730D01*
X028541Y007730D01*
X028622Y007743D01*
X028700Y007768D01*
X028773Y007805D01*
X028839Y007853D01*
X028925Y007950D02*
X032135Y007950D01*
X032075Y008049D02*
X028981Y008049D01*
X029010Y008147D02*
X032034Y008147D01*
X032030Y008246D02*
X028539Y008246D01*
X028500Y008250D02*
X029500Y008250D01*
X029500Y007250D01*
X029000Y006750D01*
X025500Y006750D01*
X024500Y005750D01*
X024530Y005780D02*
X024530Y006270D01*
X024541Y006270D01*
X024622Y006257D01*
X024700Y006232D01*
X024773Y006195D01*
X024839Y006147D01*
X024897Y006089D01*
X024945Y006023D01*
X024982Y005950D01*
X025007Y005872D01*
X025020Y005791D01*
X025020Y005780D01*
X024530Y005780D01*
X024530Y005783D02*
X024470Y005783D01*
X024470Y005720D02*
X024530Y005720D01*
X024530Y005230D01*
X024541Y005230D01*
X024622Y005243D01*
X024700Y005268D01*
X024773Y005305D01*
X024780Y005311D01*
X024780Y005157D01*
X024795Y005119D01*
X024766Y005148D01*
X024593Y005220D01*
X024407Y005220D01*
X024234Y005148D01*
X024150Y005065D01*
X024150Y005365D01*
X024161Y005353D01*
X024227Y005305D01*
X024300Y005268D01*
X024378Y005243D01*
X024459Y005230D01*
X024470Y005230D01*
X024470Y005720D01*
X024470Y005685D02*
X024530Y005685D01*
X024530Y005586D02*
X024470Y005586D01*
X024470Y005488D02*
X024530Y005488D01*
X024530Y005389D02*
X024470Y005389D01*
X024470Y005291D02*
X024530Y005291D01*
X024661Y005192D02*
X024780Y005192D01*
X024780Y005291D02*
X024744Y005291D01*
X024339Y005192D02*
X024150Y005192D01*
X024150Y005094D02*
X024179Y005094D01*
X024150Y005291D02*
X024256Y005291D01*
X025016Y005685D02*
X025071Y005685D01*
X025020Y005783D02*
X025571Y005783D01*
X025669Y005882D02*
X025004Y005882D01*
X024966Y005980D02*
X026105Y005980D01*
X026062Y006079D02*
X024904Y006079D01*
X024797Y006177D02*
X026030Y006177D01*
X026030Y006276D02*
X024150Y006276D01*
X024150Y006374D02*
X026043Y006374D01*
X026083Y006473D02*
X024150Y006473D01*
X024150Y006571D02*
X026156Y006571D01*
X026285Y006670D02*
X024150Y006670D01*
X024150Y006768D02*
X032301Y006768D01*
X032300Y006768D02*
X032356Y006750D01*
X032300Y006732D01*
X032227Y006695D01*
X032161Y006647D01*
X032103Y006589D01*
X032055Y006523D01*
X032018Y006450D01*
X031993Y006372D01*
X031980Y006291D01*
X031980Y006289D01*
X032461Y006289D01*
X032461Y007211D01*
X031980Y007211D01*
X031980Y007209D01*
X031993Y007128D01*
X032018Y007050D01*
X032055Y006977D01*
X032103Y006911D01*
X032161Y006853D01*
X032227Y006805D01*
X032300Y006768D01*
X032193Y006670D02*
X028715Y006670D01*
X028844Y006571D02*
X032090Y006571D01*
X032030Y006473D02*
X028917Y006473D01*
X028957Y006374D02*
X031994Y006374D01*
X031980Y006211D02*
X031980Y006209D01*
X031993Y006128D01*
X032018Y006050D01*
X032055Y005977D01*
X032103Y005911D01*
X032115Y005900D01*
X031938Y005900D01*
X031850Y005812D01*
X030850Y004812D01*
X030850Y003148D01*
X030759Y003110D01*
X030640Y002991D01*
X030575Y002835D01*
X030575Y002665D01*
X030640Y002509D01*
X030759Y002390D01*
X030915Y002325D01*
X031085Y002325D01*
X031175Y002363D01*
X031350Y002188D01*
X031350Y002001D01*
X031241Y002110D01*
X031085Y002175D01*
X030915Y002175D01*
X030759Y002110D01*
X030640Y001991D01*
X030575Y001835D01*
X030575Y001665D01*
X030640Y001509D01*
X030759Y001390D01*
X030915Y001325D01*
X031085Y001325D01*
X031241Y001390D01*
X031350Y001499D01*
X031350Y001312D01*
X030938Y000900D01*
X026815Y000900D01*
X026898Y000984D01*
X026970Y001157D01*
X026970Y001343D01*
X026898Y001516D01*
X026766Y001648D01*
X026593Y001720D01*
X026407Y001720D01*
X026234Y001648D01*
X026102Y001516D01*
X026030Y001343D01*
X026030Y001157D01*
X026102Y000984D01*
X026185Y000900D01*
X024562Y000900D01*
X024150Y001312D01*
X024150Y001352D01*
X024241Y001390D01*
X024350Y001499D01*
X024350Y001188D01*
X024438Y001100D01*
X025562Y001100D01*
X025650Y001188D01*
X025650Y003812D01*
X024922Y004540D01*
X024960Y004503D02*
X026096Y004503D01*
X026102Y004516D02*
X026030Y004343D01*
X026030Y004157D01*
X026102Y003984D01*
X026234Y003852D01*
X026407Y003780D01*
X026593Y003780D01*
X026766Y003852D01*
X026898Y003984D01*
X026970Y004157D01*
X026970Y004343D01*
X026898Y004516D01*
X026766Y004648D01*
X026593Y004720D01*
X026407Y004720D01*
X026234Y004648D01*
X026102Y004516D01*
X026186Y004601D02*
X024947Y004601D01*
X024970Y004700D02*
X026357Y004700D01*
X026363Y004798D02*
X025387Y004798D01*
X025561Y004897D02*
X026189Y004897D01*
X026097Y004995D02*
X025653Y004995D01*
X025694Y005094D02*
X026056Y005094D01*
X026030Y005192D02*
X025720Y005192D01*
X025720Y005291D02*
X026030Y005291D01*
X026049Y005389D02*
X025701Y005389D01*
X025700Y005488D02*
X026090Y005488D01*
X026171Y005586D02*
X025798Y005586D01*
X025750Y005750D02*
X025250Y005250D01*
X025429Y005685D02*
X025472Y005685D01*
X025750Y005750D02*
X027000Y005750D01*
X027500Y006250D01*
X028500Y006250D01*
X028062Y006079D02*
X027541Y006079D01*
X027442Y005980D02*
X028105Y005980D01*
X028204Y005882D02*
X027344Y005882D01*
X027245Y005783D02*
X028399Y005783D01*
X028407Y005720D02*
X028234Y005648D01*
X028102Y005516D01*
X028030Y005343D01*
X028030Y005157D01*
X028102Y004984D01*
X028234Y004852D01*
X028407Y004780D01*
X028593Y004780D01*
X028766Y004852D01*
X028898Y004984D01*
X028970Y005157D01*
X028970Y005343D01*
X028898Y005516D01*
X028766Y005648D01*
X028593Y005720D01*
X028407Y005720D01*
X028321Y005685D02*
X027147Y005685D01*
X026910Y005488D02*
X028090Y005488D01*
X028049Y005389D02*
X026951Y005389D01*
X026970Y005291D02*
X028030Y005291D01*
X028030Y005192D02*
X026970Y005192D01*
X026944Y005094D02*
X028056Y005094D01*
X028097Y004995D02*
X026903Y004995D01*
X026811Y004897D02*
X028189Y004897D01*
X028363Y004798D02*
X026637Y004798D01*
X026643Y004700D02*
X028357Y004700D01*
X028407Y004720D02*
X028234Y004648D01*
X028102Y004516D01*
X028030Y004343D01*
X028030Y004157D01*
X028102Y003984D01*
X028234Y003852D01*
X028350Y003803D01*
X028350Y003188D01*
X029613Y001925D01*
X029575Y001835D01*
X029575Y001665D01*
X029640Y001509D01*
X029759Y001390D01*
X029915Y001325D01*
X030085Y001325D01*
X030241Y001390D01*
X030360Y001509D01*
X030425Y001665D01*
X030425Y001835D01*
X030360Y001991D01*
X030241Y002110D01*
X030085Y002175D01*
X029915Y002175D01*
X029825Y002137D01*
X028650Y003312D01*
X028650Y003803D01*
X028766Y003852D01*
X028898Y003984D01*
X028970Y004157D01*
X028970Y004343D01*
X028898Y004516D01*
X028766Y004648D01*
X028593Y004720D01*
X028407Y004720D01*
X028643Y004700D02*
X030850Y004700D01*
X030850Y004798D02*
X028637Y004798D01*
X028811Y004897D02*
X030934Y004897D01*
X031033Y004995D02*
X028903Y004995D01*
X028944Y005094D02*
X031131Y005094D01*
X031230Y005192D02*
X028970Y005192D01*
X028970Y005291D02*
X031328Y005291D01*
X031427Y005389D02*
X028951Y005389D01*
X028910Y005488D02*
X031525Y005488D01*
X031624Y005586D02*
X028829Y005586D01*
X028679Y005685D02*
X031722Y005685D01*
X031821Y005783D02*
X028601Y005783D01*
X028796Y005882D02*
X031919Y005882D01*
X032000Y005750D02*
X033000Y005750D01*
X033500Y006250D01*
X033500Y007250D01*
X032500Y008250D01*
X033500Y009250D01*
X033500Y010250D01*
X032500Y011250D01*
X032500Y012250D01*
X032500Y013250D01*
X032500Y014250D01*
X032970Y014254D02*
X033284Y014254D01*
X033350Y014156D02*
X032970Y014156D01*
X032929Y014057D02*
X033350Y014057D01*
X033350Y013959D02*
X032873Y013959D01*
X032775Y013860D02*
X033350Y013860D01*
X033350Y013762D02*
X032650Y013762D01*
X032731Y013663D02*
X033350Y013663D01*
X033350Y013565D02*
X032850Y013565D01*
X032919Y013466D02*
X033350Y013466D01*
X033350Y013368D02*
X032960Y013368D01*
X032970Y013269D02*
X033350Y013269D01*
X033350Y013171D02*
X032970Y013171D01*
X032935Y013072D02*
X033350Y013072D01*
X033350Y012974D02*
X032888Y012974D01*
X032790Y012875D02*
X033350Y012875D01*
X033350Y012777D02*
X032650Y012777D01*
X032695Y012678D02*
X033350Y012678D01*
X033350Y012580D02*
X032835Y012580D01*
X032913Y012481D02*
X033350Y012481D01*
X033350Y012383D02*
X032954Y012383D01*
X032970Y012284D02*
X033350Y012284D01*
X033350Y012186D02*
X032970Y012186D01*
X032941Y012087D02*
X033350Y012087D01*
X033350Y011989D02*
X032900Y011989D01*
X032805Y011890D02*
X033350Y011890D01*
X033350Y011792D02*
X032650Y011792D01*
X032659Y011693D02*
X033350Y011693D01*
X033350Y011595D02*
X032820Y011595D01*
X032907Y011496D02*
X033350Y011496D01*
X033350Y011398D02*
X032948Y011398D01*
X032970Y011299D02*
X033350Y011299D01*
X033350Y011201D02*
X032970Y011201D01*
X032947Y011102D02*
X033350Y011102D01*
X033350Y011004D02*
X032959Y011004D01*
X033057Y010905D02*
X033350Y010905D01*
X033350Y010807D02*
X033156Y010807D01*
X033254Y010708D02*
X033350Y010708D01*
X033353Y010610D02*
X033428Y010610D01*
X033451Y010511D02*
X033527Y010511D01*
X033550Y010413D02*
X033625Y010413D01*
X033562Y010400D02*
X033562Y010400D01*
X033648Y010314D02*
X033724Y010314D01*
X033650Y010216D02*
X033822Y010216D01*
X033921Y010117D02*
X033650Y010117D01*
X033650Y010019D02*
X034087Y010019D01*
X034165Y009920D02*
X033650Y009920D01*
X033650Y009822D02*
X034306Y009822D01*
X034407Y009720D02*
X034234Y009648D01*
X034102Y009516D01*
X034030Y009343D01*
X034030Y009157D01*
X034102Y008984D01*
X034234Y008852D01*
X034407Y008780D01*
X034593Y008780D01*
X034766Y008852D01*
X034898Y008984D01*
X034970Y009157D01*
X034970Y009343D01*
X034898Y009516D01*
X034766Y009648D01*
X034593Y009720D01*
X034407Y009720D01*
X034210Y009625D02*
X033650Y009625D01*
X033650Y009723D02*
X035310Y009723D01*
X035310Y009625D02*
X034790Y009625D01*
X034889Y009526D02*
X035310Y009526D01*
X035310Y009428D02*
X034935Y009428D01*
X034970Y009329D02*
X035310Y009329D01*
X035310Y009231D02*
X034970Y009231D01*
X034960Y009132D02*
X035310Y009132D01*
X035310Y009034D02*
X034919Y009034D01*
X034850Y008935D02*
X035310Y008935D01*
X035310Y008837D02*
X034730Y008837D01*
X034593Y008720D02*
X034407Y008720D01*
X034234Y008648D01*
X034102Y008516D01*
X034030Y008343D01*
X034030Y008157D01*
X034102Y007984D01*
X034234Y007852D01*
X033111Y007852D01*
X033012Y007950D02*
X034135Y007950D01*
X034075Y008049D02*
X032925Y008049D01*
X032966Y008147D02*
X034034Y008147D01*
X034030Y008246D02*
X032970Y008246D01*
X032970Y008344D02*
X034030Y008344D01*
X034071Y008443D02*
X032929Y008443D01*
X033003Y008541D02*
X034126Y008541D01*
X034225Y008640D02*
X033102Y008640D01*
X033200Y008738D02*
X035310Y008738D01*
X035310Y008640D02*
X034775Y008640D01*
X034766Y008648D02*
X034593Y008720D01*
X034766Y008648D02*
X034898Y008516D01*
X034970Y008343D01*
X034970Y008157D01*
X034898Y007984D01*
X034766Y007852D01*
X035310Y007852D01*
X035310Y007950D02*
X034865Y007950D01*
X034925Y008049D02*
X035310Y008049D01*
X035310Y008147D02*
X034966Y008147D01*
X034970Y008246D02*
X035310Y008246D01*
X035310Y008344D02*
X034970Y008344D01*
X034929Y008443D02*
X035310Y008443D01*
X035310Y008541D02*
X034874Y008541D01*
X034270Y008837D02*
X033299Y008837D01*
X033397Y008935D02*
X034150Y008935D01*
X034081Y009034D02*
X033496Y009034D01*
X033594Y009132D02*
X034040Y009132D01*
X034030Y009231D02*
X033650Y009231D01*
X033650Y009329D02*
X034030Y009329D01*
X034065Y009428D02*
X033650Y009428D01*
X033650Y009526D02*
X034111Y009526D01*
X034694Y009822D02*
X035310Y009822D01*
X035310Y009920D02*
X034835Y009920D01*
X034000Y010250D02*
X033500Y010750D01*
X033500Y014250D01*
X033000Y014750D01*
X032000Y014750D01*
X031500Y014250D01*
X028500Y014250D01*
X028030Y014254D02*
X027708Y014254D01*
X027650Y014353D02*
X028034Y014353D01*
X028075Y014451D02*
X027650Y014451D01*
X027650Y014550D02*
X028135Y014550D01*
X028233Y014648D02*
X027650Y014648D01*
X027709Y014747D02*
X031784Y014747D01*
X031883Y014845D02*
X027807Y014845D01*
X027906Y014944D02*
X033094Y014944D01*
X033117Y014845D02*
X033193Y014845D01*
X033216Y014747D02*
X033291Y014747D01*
X033314Y014648D02*
X033390Y014648D01*
X033413Y014550D02*
X033488Y014550D01*
X033511Y014451D02*
X033587Y014451D01*
X033610Y014353D02*
X033685Y014353D01*
X033650Y014254D02*
X033784Y014254D01*
X033850Y014156D02*
X033650Y014156D01*
X033650Y014057D02*
X033850Y014057D01*
X033850Y013959D02*
X033650Y013959D01*
X033650Y013860D02*
X033850Y013860D01*
X033850Y013762D02*
X033650Y013762D01*
X033650Y013663D02*
X033850Y013663D01*
X033850Y013565D02*
X033650Y013565D01*
X033650Y013466D02*
X033850Y013466D01*
X033850Y013368D02*
X033650Y013368D01*
X033650Y013269D02*
X033850Y013269D01*
X033850Y013171D02*
X033650Y013171D01*
X033650Y013072D02*
X033850Y013072D01*
X033850Y012974D02*
X033650Y012974D01*
X033650Y012875D02*
X033850Y012875D01*
X033850Y012777D02*
X033650Y012777D01*
X033650Y012678D02*
X033850Y012678D01*
X033850Y012580D02*
X033650Y012580D01*
X033650Y012481D02*
X033850Y012481D01*
X033850Y012383D02*
X033650Y012383D01*
X033650Y012284D02*
X033850Y012284D01*
X033850Y012186D02*
X033650Y012186D01*
X033650Y012087D02*
X033850Y012087D01*
X033850Y011989D02*
X033650Y011989D01*
X033650Y011890D02*
X033850Y011890D01*
X033850Y011792D02*
X033650Y011792D01*
X033650Y011693D02*
X033850Y011693D01*
X033938Y011600D02*
X033938Y011600D01*
X033943Y011595D02*
X033650Y011595D01*
X033650Y011496D02*
X034042Y011496D01*
X034052Y011398D02*
X033650Y011398D01*
X033650Y011299D02*
X034030Y011299D01*
X034030Y011201D02*
X033650Y011201D01*
X034269Y011693D02*
X034341Y011693D01*
X034379Y011792D02*
X034171Y011792D01*
X034150Y011890D02*
X034195Y011890D01*
X034500Y012250D02*
X035000Y012750D01*
X035000Y015750D01*
X034843Y015929D02*
X035310Y015929D01*
X035310Y016027D02*
X034916Y016027D01*
X034957Y016126D02*
X035310Y016126D01*
X035310Y016224D02*
X034970Y016224D01*
X034970Y016323D02*
X035310Y016323D01*
X035310Y016421D02*
X034938Y016421D01*
X034895Y016520D02*
X035310Y016520D01*
X035310Y016618D02*
X034797Y016618D01*
X034203Y016618D02*
X026797Y016618D01*
X026895Y016520D02*
X034105Y016520D01*
X034062Y016421D02*
X026938Y016421D01*
X026970Y016323D02*
X034030Y016323D01*
X034030Y016224D02*
X026970Y016224D01*
X026957Y016126D02*
X034043Y016126D01*
X034084Y016027D02*
X026916Y016027D01*
X026843Y015929D02*
X034157Y015929D01*
X034120Y015535D02*
X027997Y015535D01*
X027769Y015732D02*
X025650Y015732D01*
X025650Y015633D02*
X026218Y015633D01*
X026120Y015535D02*
X025650Y015535D01*
X025650Y015436D02*
X026068Y015436D01*
X026030Y015338D02*
X025650Y015338D01*
X025650Y015239D02*
X026030Y015239D01*
X026037Y015141D02*
X025603Y015141D01*
X025504Y015042D02*
X026077Y015042D01*
X026142Y014944D02*
X025406Y014944D01*
X025632Y015830D02*
X026286Y015830D01*
X026157Y015929D02*
X025534Y015929D01*
X025435Y016027D02*
X026084Y016027D01*
X026043Y016126D02*
X025337Y016126D01*
X025238Y016224D02*
X026030Y016224D01*
X026714Y015830D02*
X027868Y015830D01*
X027850Y015812D02*
X027850Y015812D01*
X027671Y015633D02*
X026782Y015633D01*
X026880Y015535D02*
X027572Y015535D01*
X027474Y015436D02*
X026932Y015436D01*
X026970Y015338D02*
X027375Y015338D01*
X027277Y015239D02*
X026970Y015239D01*
X026963Y015141D02*
X027178Y015141D01*
X027080Y015042D02*
X026923Y015042D01*
X026981Y014944D02*
X026858Y014944D01*
X027500Y014750D02*
X028000Y015250D01*
X033000Y015250D01*
X034000Y014250D01*
X033185Y014353D02*
X032966Y014353D01*
X032925Y014451D02*
X033087Y014451D01*
X032988Y014550D02*
X032865Y014550D01*
X032996Y015042D02*
X028004Y015042D01*
X027500Y014750D02*
X027500Y014250D01*
X028000Y013750D01*
X029500Y013750D01*
X031000Y012250D01*
X031000Y010250D01*
X029500Y008750D01*
X024000Y008750D01*
X023500Y008250D01*
X023970Y008246D02*
X024030Y008246D01*
X024030Y008157D02*
X024030Y008343D01*
X024102Y008516D01*
X024185Y008600D01*
X024062Y008600D01*
X023922Y008460D01*
X023970Y008343D01*
X023970Y008157D01*
X023898Y007984D01*
X023766Y007852D01*
X024234Y007852D01*
X024407Y007780D01*
X024593Y007780D01*
X024710Y007828D01*
X024850Y007688D01*
X024938Y007600D01*
X026185Y007600D01*
X026102Y007516D01*
X026030Y007343D01*
X026030Y007157D01*
X026102Y006984D01*
X026234Y006852D01*
X026407Y006780D01*
X026593Y006780D01*
X026766Y006852D01*
X026898Y006984D01*
X026970Y007157D01*
X026970Y007343D01*
X026898Y007516D01*
X026815Y007600D01*
X027938Y007600D01*
X028078Y007460D01*
X028030Y007343D01*
X028030Y007157D01*
X028102Y006984D01*
X028234Y006852D01*
X028407Y006780D01*
X028593Y006780D01*
X028766Y006852D01*
X028898Y006984D01*
X028970Y007157D01*
X028970Y007343D01*
X028898Y007516D01*
X028766Y007648D01*
X028593Y007720D01*
X028407Y007720D01*
X028290Y007672D01*
X028062Y007900D01*
X026815Y007900D01*
X026898Y007984D01*
X026970Y008157D01*
X026970Y008343D01*
X026898Y008516D01*
X026815Y008600D01*
X026874Y008541D02*
X028069Y008541D01*
X028016Y008443D02*
X026929Y008443D01*
X026970Y008344D02*
X027988Y008344D01*
X027980Y008211D02*
X027980Y008209D01*
X027993Y008128D01*
X028018Y008050D01*
X028055Y007977D01*
X028103Y007911D01*
X028161Y007853D01*
X028227Y007805D01*
X028300Y007768D01*
X028378Y007743D01*
X028459Y007730D01*
X028461Y007730D01*
X028461Y008211D01*
X027980Y008211D01*
X027990Y008147D02*
X026966Y008147D01*
X026970Y008246D02*
X028461Y008246D01*
X028461Y008147D02*
X028539Y008147D01*
X028539Y008049D02*
X028461Y008049D01*
X028461Y007950D02*
X028539Y007950D01*
X028539Y007852D02*
X028461Y007852D01*
X028461Y007753D02*
X028539Y007753D01*
X028653Y007753D02*
X032365Y007753D01*
X032378Y007757D02*
X032300Y007732D01*
X032227Y007695D01*
X032161Y007647D01*
X032103Y007589D01*
X032055Y007523D01*
X032018Y007450D01*
X031993Y007372D01*
X031980Y007291D01*
X031980Y007289D01*
X032461Y007289D01*
X032461Y007770D01*
X032459Y007770D01*
X032378Y007757D01*
X032407Y007780D02*
X032593Y007780D01*
X032710Y007828D01*
X033350Y007188D01*
X033350Y006312D01*
X032938Y005900D01*
X032885Y005900D01*
X032897Y005911D01*
X032945Y005977D01*
X032982Y006050D01*
X033007Y006128D01*
X033020Y006209D01*
X033020Y006211D01*
X032539Y006211D01*
X032539Y006289D01*
X033020Y006289D01*
X033020Y006291D01*
X033007Y006372D01*
X032982Y006450D01*
X032945Y006523D01*
X032897Y006589D01*
X032839Y006647D01*
X032773Y006695D01*
X032700Y006732D01*
X032644Y006750D01*
X032700Y006768D01*
X032773Y006805D01*
X032839Y006853D01*
X032897Y006911D01*
X032945Y006977D01*
X032982Y007050D01*
X033007Y007128D01*
X033020Y007209D01*
X033020Y007211D01*
X032539Y007211D01*
X032539Y007289D01*
X032461Y007289D01*
X032461Y007211D01*
X032539Y007211D01*
X032539Y006730D01*
X032539Y006289D01*
X032461Y006289D01*
X032461Y006211D01*
X031980Y006211D01*
X031985Y006177D02*
X028970Y006177D01*
X028970Y006276D02*
X032461Y006276D01*
X032500Y006250D02*
X032500Y007250D01*
X031500Y008250D01*
X029500Y008250D01*
X029012Y008344D02*
X032030Y008344D01*
X032071Y008443D02*
X028984Y008443D01*
X028931Y008541D02*
X032126Y008541D01*
X032225Y008640D02*
X029602Y008640D01*
X029650Y008688D02*
X029650Y008688D01*
X029700Y008738D02*
X032776Y008738D01*
X032730Y008837D02*
X032874Y008837D01*
X032850Y008935D02*
X032973Y008935D01*
X032898Y008984D02*
X032970Y009157D01*
X032970Y009343D01*
X032898Y009516D01*
X032766Y009648D01*
X032650Y009697D01*
X032650Y009803D01*
X032766Y009852D01*
X032898Y009984D01*
X032970Y010157D01*
X032970Y010343D01*
X032898Y010516D01*
X032766Y010648D01*
X032593Y010720D01*
X032407Y010720D01*
X032234Y010648D01*
X032102Y010516D01*
X032030Y010343D01*
X032030Y010157D01*
X032102Y009984D01*
X032234Y009852D01*
X032350Y009803D01*
X032350Y009697D01*
X032234Y009648D01*
X032102Y009516D01*
X032030Y009343D01*
X032030Y009157D01*
X032102Y008984D01*
X032234Y008852D01*
X032407Y008780D01*
X032593Y008780D01*
X032766Y008852D01*
X032898Y008984D01*
X032919Y009034D02*
X033071Y009034D01*
X033170Y009132D02*
X032960Y009132D01*
X032970Y009231D02*
X033268Y009231D01*
X033350Y009329D02*
X032970Y009329D01*
X032935Y009428D02*
X033350Y009428D01*
X033350Y009526D02*
X032889Y009526D01*
X032790Y009625D02*
X033350Y009625D01*
X033350Y009723D02*
X032650Y009723D01*
X032694Y009822D02*
X033350Y009822D01*
X033350Y009920D02*
X032835Y009920D01*
X032913Y010019D02*
X033350Y010019D01*
X033350Y010117D02*
X032954Y010117D01*
X032970Y010216D02*
X033322Y010216D01*
X033224Y010314D02*
X032970Y010314D01*
X032941Y010413D02*
X033125Y010413D01*
X033027Y010511D02*
X032901Y010511D01*
X032928Y010610D02*
X032805Y010610D01*
X032830Y010708D02*
X032622Y010708D01*
X032658Y010807D02*
X032731Y010807D01*
X032378Y010708D02*
X031150Y010708D01*
X031150Y010610D02*
X032195Y010610D01*
X032099Y010511D02*
X031150Y010511D01*
X031150Y010413D02*
X032059Y010413D01*
X032030Y010314D02*
X031150Y010314D01*
X031150Y010216D02*
X032030Y010216D01*
X032046Y010117D02*
X031079Y010117D01*
X030981Y010019D02*
X032087Y010019D01*
X032165Y009920D02*
X030882Y009920D01*
X030784Y009822D02*
X032306Y009822D01*
X032350Y009723D02*
X030685Y009723D01*
X030587Y009625D02*
X032210Y009625D01*
X032111Y009526D02*
X030488Y009526D01*
X030390Y009428D02*
X032065Y009428D01*
X032030Y009329D02*
X030291Y009329D01*
X030193Y009231D02*
X032030Y009231D01*
X032040Y009132D02*
X030094Y009132D01*
X029996Y009034D02*
X032081Y009034D01*
X032150Y008935D02*
X029897Y008935D01*
X029799Y008837D02*
X032270Y008837D01*
X032500Y009250D02*
X032500Y010250D01*
X032342Y010807D02*
X031150Y010807D01*
X031150Y010905D02*
X032180Y010905D01*
X032093Y011004D02*
X031150Y011004D01*
X031150Y011102D02*
X032053Y011102D01*
X032030Y011201D02*
X031150Y011201D01*
X031150Y011299D02*
X032030Y011299D01*
X032052Y011398D02*
X031150Y011398D01*
X031150Y011496D02*
X032093Y011496D01*
X032180Y011595D02*
X031150Y011595D01*
X031150Y011693D02*
X032341Y011693D01*
X032350Y011792D02*
X031150Y011792D01*
X031150Y011890D02*
X032195Y011890D01*
X032100Y011989D02*
X031150Y011989D01*
X031150Y012087D02*
X032059Y012087D01*
X032030Y012186D02*
X031150Y012186D01*
X031150Y012284D02*
X032030Y012284D01*
X032046Y012383D02*
X031080Y012383D01*
X030981Y012481D02*
X032087Y012481D01*
X032165Y012580D02*
X030883Y012580D01*
X030784Y012678D02*
X032305Y012678D01*
X032350Y012777D02*
X030686Y012777D01*
X030587Y012875D02*
X032210Y012875D01*
X032112Y012974D02*
X030489Y012974D01*
X030390Y013072D02*
X032065Y013072D01*
X032030Y013171D02*
X030292Y013171D01*
X030193Y013269D02*
X032030Y013269D01*
X032040Y013368D02*
X030095Y013368D01*
X029996Y013466D02*
X032081Y013466D01*
X032150Y013565D02*
X029898Y013565D01*
X029799Y013663D02*
X032269Y013663D01*
X032350Y013762D02*
X029701Y013762D01*
X029602Y013860D02*
X032225Y013860D01*
X032127Y013959D02*
X028873Y013959D01*
X028929Y014057D02*
X032071Y014057D01*
X032030Y014156D02*
X031618Y014156D01*
X031716Y014254D02*
X032030Y014254D01*
X032034Y014353D02*
X031815Y014353D01*
X031913Y014451D02*
X032075Y014451D01*
X032135Y014550D02*
X032012Y014550D01*
X031686Y014648D02*
X028767Y014648D01*
X028865Y014550D02*
X031587Y014550D01*
X031489Y014451D02*
X028925Y014451D01*
X028127Y013959D02*
X028004Y013959D01*
X028071Y014057D02*
X027905Y014057D01*
X027807Y014156D02*
X028030Y014156D01*
X027875Y013663D02*
X026816Y013663D01*
X026914Y013565D02*
X028150Y013565D01*
X028081Y013466D02*
X026974Y013466D01*
X027008Y013368D02*
X028040Y013368D01*
X028850Y013565D02*
X029473Y013565D01*
X029572Y013466D02*
X028919Y013466D01*
X028960Y013368D02*
X029670Y013368D01*
X029769Y013269D02*
X028970Y013269D01*
X028970Y013171D02*
X029867Y013171D01*
X029966Y013072D02*
X028935Y013072D01*
X028888Y012974D02*
X030064Y012974D01*
X033716Y014747D02*
X034850Y014747D01*
X034850Y014845D02*
X034751Y014845D01*
X034767Y014648D02*
X034850Y014648D01*
X028195Y010610D02*
X026805Y010610D01*
X026901Y010511D02*
X028099Y010511D01*
X026180Y010905D02*
X024944Y010905D01*
X024904Y011004D02*
X026093Y011004D01*
X026053Y011102D02*
X024813Y011102D01*
X024640Y011201D02*
X026030Y011201D01*
X026030Y011299D02*
X024261Y011299D01*
X024163Y011201D02*
X024360Y011201D01*
X024360Y011398D02*
X026052Y011398D01*
X026093Y011496D02*
X024458Y011496D01*
X024557Y011595D02*
X026180Y011595D01*
X026341Y011693D02*
X024650Y011693D01*
X024187Y011102D02*
X024064Y011102D01*
X024096Y011004D02*
X023966Y011004D01*
X023944Y010905D02*
X024056Y010905D01*
X024030Y010807D02*
X023970Y010807D01*
X023970Y010708D02*
X024030Y010708D01*
X024049Y010610D02*
X023951Y010610D01*
X023910Y010511D02*
X024090Y010511D01*
X024173Y010413D02*
X023827Y010413D01*
X023676Y010314D02*
X024324Y010314D01*
X023500Y009750D02*
X022500Y008750D01*
X022500Y008250D01*
X024000Y006750D01*
X024000Y003750D01*
X025000Y002750D01*
X025000Y001750D01*
X025650Y001745D02*
X029575Y001745D01*
X029579Y001843D02*
X026746Y001843D01*
X026766Y001852D02*
X026898Y001984D01*
X026970Y002157D01*
X026970Y002343D01*
X026898Y002516D01*
X026766Y002648D01*
X026593Y002720D01*
X026407Y002720D01*
X026234Y002648D01*
X026102Y002516D01*
X026030Y002343D01*
X026030Y002157D01*
X026102Y001984D01*
X026234Y001852D01*
X026407Y001780D01*
X026593Y001780D01*
X026766Y001852D01*
X026856Y001942D02*
X029596Y001942D01*
X029498Y002040D02*
X026922Y002040D01*
X026963Y002139D02*
X029399Y002139D01*
X029301Y002237D02*
X026970Y002237D01*
X026970Y002336D02*
X029202Y002336D01*
X029104Y002434D02*
X026932Y002434D01*
X026882Y002533D02*
X029005Y002533D01*
X028907Y002631D02*
X026784Y002631D01*
X026709Y002828D02*
X028710Y002828D01*
X028808Y002730D02*
X025650Y002730D01*
X025650Y002828D02*
X026291Y002828D01*
X026234Y002852D02*
X026407Y002780D01*
X026593Y002780D01*
X026766Y002852D01*
X026898Y002984D01*
X026970Y003157D01*
X026970Y003343D01*
X026898Y003516D01*
X026766Y003648D01*
X026593Y003720D01*
X026407Y003720D01*
X026234Y003648D01*
X026102Y003516D01*
X026030Y003343D01*
X026030Y003157D01*
X026102Y002984D01*
X026234Y002852D01*
X026159Y002927D02*
X025650Y002927D01*
X025650Y003025D02*
X026084Y003025D01*
X026044Y003124D02*
X025650Y003124D01*
X025650Y003222D02*
X026030Y003222D01*
X026030Y003321D02*
X025650Y003321D01*
X025650Y003419D02*
X026061Y003419D01*
X026103Y003518D02*
X025650Y003518D01*
X025650Y003616D02*
X026201Y003616D01*
X026393Y003715D02*
X025650Y003715D01*
X025649Y003813D02*
X026327Y003813D01*
X026174Y003912D02*
X025551Y003912D01*
X025452Y004010D02*
X026091Y004010D01*
X026050Y004109D02*
X025354Y004109D01*
X025255Y004207D02*
X026030Y004207D01*
X026030Y004306D02*
X025157Y004306D01*
X025058Y004404D02*
X026055Y004404D01*
X026814Y004601D02*
X028186Y004601D01*
X028096Y004503D02*
X026904Y004503D01*
X026945Y004404D02*
X028055Y004404D01*
X028030Y004306D02*
X026970Y004306D01*
X026970Y004207D02*
X028030Y004207D01*
X028050Y004109D02*
X026950Y004109D01*
X026909Y004010D02*
X028091Y004010D01*
X028174Y003912D02*
X026826Y003912D01*
X026673Y003813D02*
X028327Y003813D01*
X028350Y003715D02*
X026607Y003715D01*
X026799Y003616D02*
X028350Y003616D01*
X028350Y003518D02*
X026897Y003518D01*
X026939Y003419D02*
X028350Y003419D01*
X028350Y003321D02*
X026970Y003321D01*
X026970Y003222D02*
X028350Y003222D01*
X028414Y003124D02*
X026956Y003124D01*
X026916Y003025D02*
X028513Y003025D01*
X028611Y002927D02*
X026841Y002927D01*
X026216Y002631D02*
X025650Y002631D01*
X025650Y002533D02*
X026118Y002533D01*
X026068Y002434D02*
X025650Y002434D01*
X025650Y002336D02*
X026030Y002336D01*
X026030Y002237D02*
X025650Y002237D01*
X025650Y002139D02*
X026037Y002139D01*
X026078Y002040D02*
X025650Y002040D01*
X025650Y001942D02*
X026144Y001942D01*
X026254Y001843D02*
X025650Y001843D01*
X025650Y001646D02*
X026231Y001646D01*
X026133Y001548D02*
X025650Y001548D01*
X025650Y001449D02*
X026074Y001449D01*
X026033Y001351D02*
X025650Y001351D01*
X025650Y001252D02*
X026030Y001252D01*
X026031Y001154D02*
X025616Y001154D01*
X026072Y001055D02*
X024407Y001055D01*
X024384Y001154D02*
X024309Y001154D01*
X024350Y001252D02*
X024210Y001252D01*
X024150Y001351D02*
X024350Y001351D01*
X024350Y001449D02*
X024300Y001449D01*
X024000Y001250D02*
X024000Y001750D01*
X023700Y001449D02*
X021690Y001449D01*
X021690Y001351D02*
X023850Y001351D01*
X023850Y001252D02*
X021690Y001252D01*
X021698Y001154D02*
X023884Y001154D01*
X023983Y001055D02*
X021722Y001055D01*
X021754Y000957D02*
X024081Y000957D01*
X024180Y000858D02*
X021796Y000858D01*
X021867Y000760D02*
X024278Y000760D01*
X024377Y000661D02*
X021950Y000661D01*
X022085Y000563D02*
X034915Y000563D01*
X035050Y000661D02*
X031123Y000661D01*
X031150Y000688D02*
X031150Y000688D01*
X031222Y000760D02*
X034327Y000760D01*
X034300Y000768D02*
X034378Y000743D01*
X034450Y000731D01*
X034450Y001200D01*
X034550Y001200D01*
X034550Y001300D01*
X035019Y001300D01*
X035007Y001372D01*
X034982Y001450D01*
X034945Y001523D01*
X034897Y001589D01*
X034839Y001647D01*
X034773Y001695D01*
X034700Y001732D01*
X034622Y001757D01*
X034550Y001769D01*
X034550Y001300D01*
X034450Y001300D01*
X034450Y001769D01*
X034378Y001757D01*
X034300Y001732D01*
X034227Y001695D01*
X034161Y001647D01*
X034103Y001589D01*
X034055Y001523D01*
X034018Y001450D01*
X033993Y001372D01*
X033981Y001300D01*
X034450Y001300D01*
X034450Y001200D01*
X033981Y001200D01*
X033993Y001128D01*
X034018Y001050D01*
X034055Y000977D01*
X034103Y000911D01*
X034161Y000853D01*
X034227Y000805D01*
X034300Y000768D01*
X034450Y000760D02*
X034550Y000760D01*
X034550Y000731D02*
X034622Y000743D01*
X034700Y000768D01*
X034773Y000805D01*
X034839Y000853D01*
X034897Y000911D01*
X034945Y000977D01*
X034982Y001050D01*
X035007Y001128D01*
X035019Y001200D01*
X034550Y001200D01*
X034550Y000731D01*
X034673Y000760D02*
X035133Y000760D01*
X035204Y000858D02*
X034843Y000858D01*
X034930Y000957D02*
X035246Y000957D01*
X035278Y001055D02*
X034983Y001055D01*
X035011Y001154D02*
X035302Y001154D01*
X035310Y001252D02*
X034550Y001252D01*
X034500Y001250D02*
X032500Y003250D01*
X032500Y004250D01*
X032539Y004289D02*
X033020Y004289D01*
X033020Y004291D01*
X033007Y004372D01*
X032982Y004450D01*
X032945Y004523D01*
X032897Y004589D01*
X032839Y004647D01*
X032773Y004695D01*
X032700Y004732D01*
X032622Y004757D01*
X032541Y004770D01*
X032539Y004770D01*
X032539Y004289D01*
X032539Y004211D01*
X033020Y004211D01*
X033020Y004209D01*
X033007Y004128D01*
X032982Y004050D01*
X032945Y003977D01*
X032897Y003911D01*
X032839Y003853D01*
X032773Y003805D01*
X032700Y003768D01*
X032622Y003743D01*
X032541Y003730D01*
X032539Y003730D01*
X032539Y004211D01*
X032461Y004211D01*
X032461Y003730D01*
X032459Y003730D01*
X032378Y003743D01*
X032300Y003768D01*
X032227Y003805D01*
X032161Y003853D01*
X032103Y003911D01*
X032055Y003977D01*
X032018Y004050D01*
X031993Y004128D01*
X031980Y004209D01*
X031980Y004211D01*
X032461Y004211D01*
X032461Y004289D01*
X032461Y004770D01*
X032459Y004770D01*
X032378Y004757D01*
X032300Y004732D01*
X032227Y004695D01*
X032161Y004647D01*
X032103Y004589D01*
X032055Y004523D01*
X032018Y004450D01*
X031993Y004372D01*
X031980Y004291D01*
X031980Y004289D01*
X032461Y004289D01*
X032539Y004289D01*
X032539Y004306D02*
X032461Y004306D01*
X032461Y004404D02*
X032539Y004404D01*
X032539Y004503D02*
X032461Y004503D01*
X032461Y004601D02*
X032539Y004601D01*
X032539Y004700D02*
X032461Y004700D01*
X032363Y004798D02*
X031260Y004798D01*
X031162Y004700D02*
X032237Y004700D01*
X032116Y004601D02*
X031150Y004601D01*
X031150Y004503D02*
X032045Y004503D01*
X032003Y004404D02*
X031150Y004404D01*
X031150Y004306D02*
X031982Y004306D01*
X031980Y004207D02*
X031150Y004207D01*
X031150Y004109D02*
X031999Y004109D01*
X032039Y004010D02*
X031150Y004010D01*
X031150Y003912D02*
X032103Y003912D01*
X032217Y003813D02*
X031150Y003813D01*
X031150Y003715D02*
X034393Y003715D01*
X034407Y003720D02*
X034234Y003648D01*
X034102Y003516D01*
X034030Y003343D01*
X034030Y003157D01*
X034102Y002984D01*
X034234Y002852D01*
X034407Y002780D01*
X034593Y002780D01*
X034766Y002852D01*
X034898Y002984D01*
X034970Y003157D01*
X034970Y003343D01*
X034898Y003516D01*
X034766Y003648D01*
X034593Y003720D01*
X034407Y003720D01*
X034407Y003780D02*
X034593Y003780D01*
X034766Y003852D01*
X034898Y003984D01*
X034970Y004157D01*
X034970Y004343D01*
X034898Y004516D01*
X034766Y004648D01*
X034593Y004720D01*
X034407Y004720D01*
X034234Y004648D01*
X034102Y004516D01*
X034030Y004343D01*
X034030Y004157D01*
X034102Y003984D01*
X034234Y003852D01*
X034407Y003780D01*
X034327Y003813D02*
X032783Y003813D01*
X032897Y003912D02*
X034174Y003912D01*
X034091Y004010D02*
X032961Y004010D01*
X033001Y004109D02*
X034050Y004109D01*
X034030Y004207D02*
X033020Y004207D01*
X033018Y004306D02*
X034030Y004306D01*
X034055Y004404D02*
X032997Y004404D01*
X032955Y004503D02*
X034096Y004503D01*
X034186Y004601D02*
X032884Y004601D01*
X032763Y004700D02*
X034357Y004700D01*
X034407Y004780D02*
X034593Y004780D01*
X034766Y004852D01*
X034898Y004984D01*
X034970Y005157D01*
X034970Y005343D01*
X034898Y005516D01*
X034766Y005648D01*
X034593Y005720D01*
X034407Y005720D01*
X034234Y005648D01*
X034102Y005516D01*
X034030Y005343D01*
X034030Y005157D01*
X034102Y004984D01*
X034234Y004852D01*
X034407Y004780D01*
X034363Y004798D02*
X032637Y004798D01*
X032811Y004897D02*
X034189Y004897D01*
X034097Y004995D02*
X032903Y004995D01*
X032944Y005094D02*
X034056Y005094D01*
X034030Y005192D02*
X032970Y005192D01*
X032970Y005291D02*
X034030Y005291D01*
X034049Y005389D02*
X032951Y005389D01*
X032910Y005488D02*
X034090Y005488D01*
X034171Y005586D02*
X032829Y005586D01*
X033147Y005685D02*
X034321Y005685D01*
X034399Y005783D02*
X033245Y005783D01*
X033344Y005882D02*
X034204Y005882D01*
X034234Y005852D02*
X034102Y005984D01*
X034030Y006157D01*
X034030Y006343D01*
X034102Y006516D01*
X034234Y006648D01*
X034407Y006720D01*
X034593Y006720D01*
X034766Y006648D01*
X034898Y006516D01*
X034970Y006343D01*
X034970Y006157D01*
X034898Y005984D01*
X034766Y005852D01*
X034593Y005780D01*
X034407Y005780D01*
X034234Y005852D01*
X034105Y005980D02*
X033442Y005980D01*
X033541Y006079D02*
X034062Y006079D01*
X034030Y006177D02*
X033639Y006177D01*
X033650Y006276D02*
X034030Y006276D01*
X034043Y006374D02*
X033650Y006374D01*
X033650Y006473D02*
X034083Y006473D01*
X034156Y006571D02*
X033650Y006571D01*
X033650Y006670D02*
X034285Y006670D01*
X034407Y006780D02*
X034593Y006780D01*
X034766Y006852D01*
X034898Y006984D01*
X034970Y007157D01*
X034970Y007343D01*
X034898Y007516D01*
X034766Y007648D01*
X034593Y007720D01*
X034407Y007720D01*
X034234Y007648D01*
X034102Y007516D01*
X034030Y007343D01*
X034030Y007157D01*
X034102Y006984D01*
X034234Y006852D01*
X034407Y006780D01*
X034219Y006867D02*
X033650Y006867D01*
X033650Y006965D02*
X034120Y006965D01*
X034069Y007064D02*
X033650Y007064D01*
X033650Y007162D02*
X034030Y007162D01*
X034030Y007261D02*
X033650Y007261D01*
X033603Y007359D02*
X034036Y007359D01*
X034077Y007458D02*
X033505Y007458D01*
X033406Y007556D02*
X034141Y007556D01*
X034248Y007655D02*
X033308Y007655D01*
X033209Y007753D02*
X035310Y007753D01*
X035310Y007655D02*
X034752Y007655D01*
X034859Y007556D02*
X035310Y007556D01*
X035310Y007458D02*
X034923Y007458D01*
X034964Y007359D02*
X035310Y007359D01*
X035310Y007261D02*
X034970Y007261D01*
X034970Y007162D02*
X035310Y007162D01*
X035310Y007064D02*
X034931Y007064D01*
X034880Y006965D02*
X035310Y006965D01*
X035310Y006867D02*
X034781Y006867D01*
X034715Y006670D02*
X035310Y006670D01*
X035310Y006768D02*
X033650Y006768D01*
X033350Y006768D02*
X032699Y006768D01*
X032807Y006670D02*
X033350Y006670D01*
X033350Y006571D02*
X032910Y006571D01*
X032970Y006473D02*
X033350Y006473D01*
X033350Y006374D02*
X033006Y006374D01*
X033015Y006177D02*
X033215Y006177D01*
X033313Y006276D02*
X032539Y006276D01*
X032539Y006374D02*
X032461Y006374D01*
X032461Y006473D02*
X032539Y006473D01*
X032539Y006571D02*
X032461Y006571D01*
X032461Y006670D02*
X032539Y006670D01*
X032539Y006768D02*
X032461Y006768D01*
X032461Y006867D02*
X032539Y006867D01*
X032539Y006965D02*
X032461Y006965D01*
X032461Y007064D02*
X032539Y007064D01*
X032539Y007162D02*
X032461Y007162D01*
X032461Y007261D02*
X028970Y007261D01*
X028964Y007359D02*
X031991Y007359D01*
X032022Y007458D02*
X028923Y007458D01*
X028859Y007556D02*
X032080Y007556D01*
X032172Y007655D02*
X028752Y007655D01*
X028347Y007753D02*
X028209Y007753D01*
X028164Y007852D02*
X028111Y007852D01*
X028075Y007950D02*
X026865Y007950D01*
X026925Y008049D02*
X028019Y008049D01*
X028000Y007750D02*
X028500Y007250D01*
X028069Y007064D02*
X026931Y007064D01*
X026970Y007162D02*
X028030Y007162D01*
X028030Y007261D02*
X026970Y007261D01*
X026964Y007359D02*
X028036Y007359D01*
X028077Y007458D02*
X026923Y007458D01*
X026859Y007556D02*
X027982Y007556D01*
X028000Y007750D02*
X025000Y007750D01*
X024500Y008250D01*
X024071Y008443D02*
X023929Y008443D01*
X023970Y008344D02*
X024030Y008344D01*
X024030Y008157D02*
X024102Y007984D01*
X024234Y007852D01*
X024135Y007950D02*
X023865Y007950D01*
X023925Y008049D02*
X024075Y008049D01*
X024034Y008147D02*
X023966Y008147D01*
X023766Y007852D02*
X023593Y007780D01*
X023407Y007780D01*
X023234Y007852D01*
X023209Y007753D02*
X024785Y007753D01*
X024883Y007655D02*
X023308Y007655D01*
X023406Y007556D02*
X026141Y007556D01*
X026077Y007458D02*
X023505Y007458D01*
X023603Y007359D02*
X026036Y007359D01*
X026030Y007261D02*
X023702Y007261D01*
X023800Y007162D02*
X026030Y007162D01*
X026069Y007064D02*
X023899Y007064D01*
X023997Y006965D02*
X026120Y006965D01*
X026219Y006867D02*
X024096Y006867D01*
X024150Y006177D02*
X024203Y006177D01*
X024470Y006177D02*
X024530Y006177D01*
X024530Y006079D02*
X024470Y006079D01*
X024470Y005980D02*
X024530Y005980D01*
X024530Y005882D02*
X024470Y005882D01*
X024970Y004798D02*
X025113Y004798D01*
X026829Y005586D02*
X028171Y005586D01*
X028895Y005980D02*
X032054Y005980D01*
X032009Y006079D02*
X028938Y006079D01*
X028285Y006670D02*
X026715Y006670D01*
X026844Y006571D02*
X028156Y006571D01*
X028083Y006473D02*
X026917Y006473D01*
X026957Y006374D02*
X027412Y006374D01*
X027313Y006276D02*
X026970Y006276D01*
X026970Y006177D02*
X027215Y006177D01*
X027116Y006079D02*
X026938Y006079D01*
X026895Y005980D02*
X027018Y005980D01*
X026781Y006867D02*
X028219Y006867D01*
X028120Y006965D02*
X026880Y006965D01*
X028781Y006867D02*
X032148Y006867D01*
X032064Y006965D02*
X028880Y006965D01*
X028931Y007064D02*
X032014Y007064D01*
X031987Y007162D02*
X028970Y007162D01*
X031000Y004750D02*
X032000Y005750D01*
X032048Y005586D02*
X032171Y005586D01*
X032090Y005488D02*
X031950Y005488D01*
X031851Y005389D02*
X032049Y005389D01*
X032030Y005291D02*
X031753Y005291D01*
X031654Y005192D02*
X032030Y005192D01*
X032056Y005094D02*
X031556Y005094D01*
X031457Y004995D02*
X032097Y004995D01*
X032189Y004897D02*
X031359Y004897D01*
X031000Y004750D02*
X031000Y002750D01*
X031500Y002250D01*
X031500Y001250D01*
X031000Y000750D01*
X024500Y000750D01*
X024000Y001250D01*
X023624Y001548D02*
X021690Y001548D01*
X021690Y001646D02*
X023583Y001646D01*
X023575Y001745D02*
X021690Y001745D01*
X021690Y001843D02*
X023579Y001843D01*
X023619Y001942D02*
X021690Y001942D01*
X021690Y002040D02*
X023689Y002040D01*
X024506Y000957D02*
X026129Y000957D01*
X026871Y000957D02*
X030994Y000957D01*
X031093Y001055D02*
X026928Y001055D01*
X026969Y001154D02*
X031191Y001154D01*
X031290Y001252D02*
X026970Y001252D01*
X026967Y001351D02*
X029854Y001351D01*
X029700Y001449D02*
X026926Y001449D01*
X026867Y001548D02*
X029624Y001548D01*
X029583Y001646D02*
X026769Y001646D01*
X029036Y002927D02*
X029558Y002927D01*
X029560Y002932D02*
X029537Y002861D01*
X029525Y002787D01*
X029525Y002769D01*
X029981Y002769D01*
X029981Y003225D01*
X029963Y003225D01*
X029889Y003213D01*
X029818Y003190D01*
X029751Y003156D01*
X029691Y003112D01*
X029638Y003059D01*
X029594Y002999D01*
X029560Y002932D01*
X029613Y003025D02*
X028937Y003025D01*
X028839Y003124D02*
X029706Y003124D01*
X029944Y003222D02*
X028740Y003222D01*
X028650Y003321D02*
X030850Y003321D01*
X030850Y003419D02*
X028650Y003419D01*
X028650Y003518D02*
X030850Y003518D01*
X030850Y003616D02*
X028650Y003616D01*
X028650Y003715D02*
X030850Y003715D01*
X030850Y003813D02*
X028673Y003813D01*
X028826Y003912D02*
X030850Y003912D01*
X030850Y004010D02*
X028909Y004010D01*
X028950Y004109D02*
X030850Y004109D01*
X030850Y004207D02*
X028970Y004207D01*
X028970Y004306D02*
X030850Y004306D01*
X030850Y004404D02*
X028945Y004404D01*
X028904Y004503D02*
X030850Y004503D01*
X030850Y004601D02*
X028814Y004601D01*
X028500Y004250D02*
X028500Y003250D01*
X030000Y001750D01*
X030300Y001449D02*
X030700Y001449D01*
X030624Y001548D02*
X030376Y001548D01*
X030417Y001646D02*
X030583Y001646D01*
X030575Y001745D02*
X030425Y001745D01*
X030421Y001843D02*
X030579Y001843D01*
X030619Y001942D02*
X030381Y001942D01*
X030311Y002040D02*
X030689Y002040D01*
X030827Y002139D02*
X030173Y002139D01*
X030111Y002287D02*
X030182Y002310D01*
X030249Y002344D01*
X030309Y002388D01*
X030362Y002441D01*
X030406Y002501D01*
X030440Y002568D01*
X030463Y002639D01*
X030475Y002713D01*
X030475Y002731D01*
X030019Y002731D01*
X030019Y002769D01*
X030475Y002769D01*
X030475Y002787D01*
X030463Y002861D01*
X030440Y002932D01*
X030406Y002999D01*
X030362Y003059D01*
X030309Y003112D01*
X030249Y003156D01*
X030182Y003190D01*
X030111Y003213D01*
X030037Y003225D01*
X030019Y003225D01*
X030019Y002769D01*
X029981Y002769D01*
X029981Y002731D01*
X030019Y002731D01*
X030019Y002275D01*
X030037Y002275D01*
X030111Y002287D01*
X030019Y002336D02*
X029981Y002336D01*
X029981Y002275D02*
X029981Y002731D01*
X029525Y002731D01*
X029525Y002713D01*
X029537Y002639D01*
X029560Y002568D01*
X029594Y002501D01*
X029638Y002441D01*
X029691Y002388D01*
X029751Y002344D01*
X029818Y002310D01*
X029889Y002287D01*
X029963Y002275D01*
X029981Y002275D01*
X029981Y002434D02*
X030019Y002434D01*
X030019Y002533D02*
X029981Y002533D01*
X029981Y002631D02*
X030019Y002631D01*
X030019Y002730D02*
X029981Y002730D01*
X029981Y002828D02*
X030019Y002828D01*
X030019Y002927D02*
X029981Y002927D01*
X029981Y003025D02*
X030019Y003025D01*
X030019Y003124D02*
X029981Y003124D01*
X029981Y003222D02*
X030019Y003222D01*
X030056Y003222D02*
X030850Y003222D01*
X030791Y003124D02*
X030294Y003124D01*
X030387Y003025D02*
X030674Y003025D01*
X030613Y002927D02*
X030442Y002927D01*
X030469Y002828D02*
X030575Y002828D01*
X030575Y002730D02*
X030475Y002730D01*
X030461Y002631D02*
X030589Y002631D01*
X030630Y002533D02*
X030422Y002533D01*
X030356Y002434D02*
X030715Y002434D01*
X030890Y002336D02*
X030233Y002336D01*
X029827Y002139D02*
X029824Y002139D01*
X029725Y002237D02*
X031301Y002237D01*
X031350Y002139D02*
X031173Y002139D01*
X031311Y002040D02*
X031350Y002040D01*
X031650Y002040D02*
X034078Y002040D01*
X034102Y001984D02*
X034030Y002157D01*
X034030Y002343D01*
X034102Y002516D01*
X034234Y002648D01*
X034407Y002720D01*
X034593Y002720D01*
X034766Y002648D01*
X034898Y002516D01*
X034970Y002343D01*
X034970Y002157D01*
X034898Y001984D01*
X034766Y001852D01*
X034593Y001780D01*
X034407Y001780D01*
X034234Y001852D01*
X034102Y001984D01*
X034144Y001942D02*
X031650Y001942D01*
X031650Y001843D02*
X034254Y001843D01*
X034339Y001745D02*
X031650Y001745D01*
X031650Y001646D02*
X034161Y001646D01*
X034073Y001548D02*
X031650Y001548D01*
X031650Y001449D02*
X034018Y001449D01*
X033989Y001351D02*
X031650Y001351D01*
X031650Y001252D02*
X034450Y001252D01*
X034450Y001154D02*
X034550Y001154D01*
X034550Y001055D02*
X034450Y001055D01*
X034450Y000957D02*
X034550Y000957D01*
X034550Y000858D02*
X034450Y000858D01*
X034157Y000858D02*
X031320Y000858D01*
X031419Y000957D02*
X034070Y000957D01*
X034017Y001055D02*
X031517Y001055D01*
X031616Y001154D02*
X033989Y001154D01*
X034450Y001351D02*
X034550Y001351D01*
X034550Y001449D02*
X034450Y001449D01*
X034450Y001548D02*
X034550Y001548D01*
X034550Y001646D02*
X034450Y001646D01*
X034450Y001745D02*
X034550Y001745D01*
X034661Y001745D02*
X035310Y001745D01*
X035310Y001843D02*
X034746Y001843D01*
X034856Y001942D02*
X035310Y001942D01*
X035310Y002040D02*
X034922Y002040D01*
X034963Y002139D02*
X035310Y002139D01*
X035310Y002237D02*
X034970Y002237D01*
X034970Y002336D02*
X035310Y002336D01*
X035310Y002434D02*
X034932Y002434D01*
X034882Y002533D02*
X035310Y002533D01*
X035310Y002631D02*
X034784Y002631D01*
X034709Y002828D02*
X035310Y002828D01*
X035310Y002730D02*
X031425Y002730D01*
X031425Y002828D02*
X034291Y002828D01*
X034159Y002927D02*
X031387Y002927D01*
X031326Y003025D02*
X034084Y003025D01*
X034044Y003124D02*
X031209Y003124D01*
X031150Y003222D02*
X034030Y003222D01*
X034030Y003321D02*
X031150Y003321D01*
X031150Y003419D02*
X034061Y003419D01*
X034103Y003518D02*
X031150Y003518D01*
X031150Y003616D02*
X034201Y003616D01*
X034607Y003715D02*
X035310Y003715D01*
X035310Y003813D02*
X034673Y003813D01*
X034826Y003912D02*
X035310Y003912D01*
X035310Y004010D02*
X034909Y004010D01*
X034950Y004109D02*
X035310Y004109D01*
X035310Y004207D02*
X034970Y004207D01*
X034970Y004306D02*
X035310Y004306D01*
X035310Y004404D02*
X034945Y004404D01*
X034904Y004503D02*
X035310Y004503D01*
X035310Y004601D02*
X034814Y004601D01*
X034643Y004700D02*
X035310Y004700D01*
X035310Y004798D02*
X034637Y004798D01*
X034811Y004897D02*
X035310Y004897D01*
X035310Y004995D02*
X034903Y004995D01*
X034944Y005094D02*
X035310Y005094D01*
X035310Y005192D02*
X034970Y005192D01*
X034970Y005291D02*
X035310Y005291D01*
X035310Y005389D02*
X034951Y005389D01*
X034910Y005488D02*
X035310Y005488D01*
X035310Y005586D02*
X034829Y005586D01*
X034679Y005685D02*
X035310Y005685D01*
X035310Y005783D02*
X034601Y005783D01*
X034796Y005882D02*
X035310Y005882D01*
X035310Y005980D02*
X034895Y005980D01*
X034938Y006079D02*
X035310Y006079D01*
X035310Y006177D02*
X034970Y006177D01*
X034970Y006276D02*
X035310Y006276D01*
X035310Y006374D02*
X034957Y006374D01*
X034917Y006473D02*
X035310Y006473D01*
X035310Y006571D02*
X034844Y006571D01*
X033350Y006867D02*
X032852Y006867D01*
X032936Y006965D02*
X033350Y006965D01*
X033350Y007064D02*
X032986Y007064D01*
X033013Y007162D02*
X033350Y007162D01*
X033277Y007261D02*
X032539Y007261D01*
X032539Y007289D02*
X033020Y007289D01*
X033020Y007291D01*
X033007Y007372D01*
X032982Y007450D01*
X032945Y007523D01*
X032897Y007589D01*
X032839Y007647D01*
X032773Y007695D01*
X032700Y007732D01*
X032622Y007757D01*
X032541Y007770D01*
X032539Y007770D01*
X032539Y007289D01*
X032539Y007359D02*
X032461Y007359D01*
X032461Y007458D02*
X032539Y007458D01*
X032539Y007556D02*
X032461Y007556D01*
X032461Y007655D02*
X032539Y007655D01*
X032539Y007753D02*
X032461Y007753D01*
X032407Y007780D02*
X032234Y007852D01*
X032635Y007753D02*
X032785Y007753D01*
X032828Y007655D02*
X032883Y007655D01*
X032920Y007556D02*
X032982Y007556D01*
X032978Y007458D02*
X033080Y007458D01*
X033009Y007359D02*
X033179Y007359D01*
X034234Y007852D02*
X034407Y007780D01*
X034593Y007780D01*
X034766Y007852D01*
X033116Y006079D02*
X032991Y006079D01*
X033018Y005980D02*
X032946Y005980D01*
X032539Y004207D02*
X032461Y004207D01*
X032461Y004109D02*
X032539Y004109D01*
X032539Y004010D02*
X032461Y004010D01*
X032461Y003912D02*
X032539Y003912D01*
X032539Y003813D02*
X032461Y003813D01*
X031411Y002631D02*
X034216Y002631D01*
X034118Y002533D02*
X031430Y002533D01*
X031528Y002434D02*
X034068Y002434D01*
X034030Y002336D02*
X031627Y002336D01*
X031650Y002237D02*
X034030Y002237D01*
X034037Y002139D02*
X031650Y002139D01*
X031202Y002336D02*
X031110Y002336D01*
X031300Y001449D02*
X031350Y001449D01*
X031350Y001351D02*
X031146Y001351D01*
X030854Y001351D02*
X030146Y001351D01*
X029767Y002336D02*
X029627Y002336D01*
X029644Y002434D02*
X029528Y002434D01*
X029578Y002533D02*
X029430Y002533D01*
X029331Y002631D02*
X029539Y002631D01*
X029525Y002730D02*
X029233Y002730D01*
X029134Y002828D02*
X029531Y002828D01*
X034841Y002927D02*
X035310Y002927D01*
X035310Y003025D02*
X034916Y003025D01*
X034956Y003124D02*
X035310Y003124D01*
X035310Y003222D02*
X034970Y003222D01*
X034970Y003321D02*
X035310Y003321D01*
X035310Y003419D02*
X034939Y003419D01*
X034897Y003518D02*
X035310Y003518D01*
X035310Y003616D02*
X034799Y003616D01*
X034839Y001646D02*
X035310Y001646D01*
X035310Y001548D02*
X034927Y001548D01*
X034982Y001449D02*
X035310Y001449D01*
X035310Y001351D02*
X035011Y001351D01*
X034670Y000464D02*
X022330Y000464D01*
X022201Y003616D02*
X022150Y003616D01*
X022150Y003715D02*
X022393Y003715D01*
X022327Y003813D02*
X022150Y003813D01*
X022150Y003912D02*
X022174Y003912D01*
X022150Y004601D02*
X022186Y004601D01*
X022150Y004700D02*
X022357Y004700D01*
X022363Y004798D02*
X022150Y004798D01*
X022150Y004897D02*
X022189Y004897D01*
X022171Y005586D02*
X022150Y005586D01*
X024003Y008541D02*
X024126Y008541D01*
X023324Y010314D02*
X023148Y010314D01*
X023173Y010413D02*
X023050Y010413D01*
X023090Y010511D02*
X022951Y010511D01*
X022853Y010610D02*
X023049Y010610D01*
X023030Y010708D02*
X022754Y010708D01*
X022656Y010807D02*
X023030Y010807D01*
X023450Y012777D02*
X023550Y012777D01*
X023550Y012875D02*
X023450Y012875D01*
X023450Y012974D02*
X023550Y012974D01*
X023550Y013072D02*
X023450Y013072D01*
X023450Y013171D02*
X023550Y013171D01*
X023450Y013269D02*
X022650Y013269D01*
X023450Y013368D02*
X023550Y013368D01*
X023550Y013466D02*
X023450Y013466D01*
X023450Y013565D02*
X023550Y013565D01*
X023550Y013663D02*
X023450Y013663D01*
X023450Y013762D02*
X023550Y013762D01*
X023822Y013663D02*
X024178Y013663D01*
X024079Y013565D02*
X023921Y013565D01*
X023959Y012974D02*
X024041Y012974D01*
X024140Y012875D02*
X023860Y012875D01*
X023762Y012777D02*
X024238Y012777D01*
X023142Y014944D02*
X022150Y014944D01*
X022150Y015042D02*
X023043Y015042D01*
X023030Y015141D02*
X022150Y015141D01*
X022201Y015239D02*
X023030Y015239D01*
X023030Y015338D02*
X022300Y015338D01*
X022398Y015436D02*
X023030Y015436D01*
X023120Y015535D02*
X022497Y015535D01*
X022595Y015633D02*
X023218Y015633D01*
X023782Y015633D02*
X024218Y015633D01*
X024120Y015535D02*
X023880Y015535D01*
X023970Y015436D02*
X024030Y015436D01*
X024030Y015338D02*
X023970Y015338D01*
X023049Y018293D02*
X021690Y018293D01*
X021690Y018391D02*
X022954Y018391D01*
X022913Y018490D02*
X021690Y018490D01*
X021690Y018588D02*
X022872Y018588D01*
X022858Y018687D02*
X021690Y018687D01*
X021693Y018785D02*
X022858Y018785D01*
X022860Y018884D02*
X021702Y018884D01*
X021734Y018982D02*
X022901Y018982D01*
X022942Y019081D02*
X021766Y019081D01*
X021823Y019179D02*
X023021Y019179D01*
X023119Y019278D02*
X021894Y019278D01*
X022001Y019376D02*
X023334Y019376D01*
X022141Y019475D02*
X034859Y019475D01*
X029670Y009132D02*
X029008Y009132D01*
X028973Y009034D02*
X029571Y009034D01*
X029473Y008935D02*
X028914Y008935D01*
M02*
